{"glyphs":{"0":{"ha":764,"x_min":0,"x_max":0,"o":"m 729 507 b 382 -14 729 208 604 -14 b 35 507 158 -14 35 208 b 382 1028 35 806 158 1028 b 729 507 604 1028 729 806 m 174 507 b 382 119 174 278 236 119 b 590 507 528 119 590 278 b 382 894 590 736 528 894 b 174 507 236 894 174 736 "},"1":{"ha":639,"x_min":0,"x_max":0,"o":"m 264 1014 l 431 1014 l 431 0 l 292 0 l 292 833 l 210 708 l 69 708 l 69 736 "},"2":{"ha":764,"x_min":0,"x_max":0,"o":"m 69 722 b 389 1028 69 903 222 1028 b 708 722 556 1028 708 917 b 569 458 708 597 628 517 b 229 138 403 292 229 215 l 694 138 l 694 0 l 56 0 l 56 69 b 472 542 56 257 306 375 b 569 722 519 589 569 632 b 389 893 569 833 479 893 b 207 722 299 893 207 833 l 207 681 l 69 681 "},"3":{"ha":764,"x_min":0,"x_max":0,"o":"m 694 876 l 397 636 b 708 313 579 626 708 493 b 375 -14 708 153 576 -14 b 42 299 181 -14 42 132 l 181 299 b 375 118 181 194 264 118 b 569 313 486 118 569 208 b 361 514 569 438 479 514 l 221 514 l 221 639 l 507 876 l 83 876 l 83 1014 l 611 1014 "},"4":{"ha":764,"x_min":0,"x_max":0,"o":"m 28 396 b 444 1014 271 750 444 1014 l 625 1014 l 625 396 l 736 396 l 736 264 l 625 264 l 625 0 l 486 0 l 486 264 l 28 264 m 486 396 l 486 839 b 183 396 406 719 294 554 "},"5":{"ha":806,"x_min":0,"x_max":0,"o":"m 389 694 b 750 340 604 690 750 556 b 389 -14 750 139 583 -14 b 28 333 188 -14 28 146 l 167 333 b 389 124 167 215 263 124 b 611 340 515 124 611 208 b 389 563 611 479 521 558 b 146 556 306 565 246 561 l 83 688 l 201 1014 l 667 1014 l 667 876 l 289 876 l 213 683 b 389 694 244 688 328 696 "},"6":{"ha":764,"x_min":0,"x_max":0,"o":"m 410 119 b 597 313 521 119 597 201 b 404 507 597 424 521 507 b 219 313 293 507 219 425 b 410 119 219 208 299 119 m 56 507 b 419 1028 58 771 160 1028 b 715 736 586 1028 717 910 l 576 736 b 414 896 576 840 504 896 b 188 515 229 896 185 654 b 417 639 235 578 313 639 b 736 313 618 639 736 486 b 414 -14 736 146 615 -14 b 133 139 292 -14 192 47 b 56 507 72 235 54 367 "},"7":{"ha":681,"x_min":0,"x_max":0,"o":"m 667 876 b 313 0 667 876 479 514 l 174 0 l 174 28 b 518 876 307 415 461 753 l 0 876 l 0 1014 l 667 1014 "},"8":{"ha":764,"x_min":0,"x_max":0,"o":"m 69 750 b 382 1028 69 903 215 1028 b 694 750 549 1028 694 903 b 568 529 694 656 644 578 b 715 278 658 481 715 396 b 382 -14 715 118 576 -14 b 49 278 188 -14 49 118 b 194 529 49 396 106 481 b 69 750 119 578 69 656 m 188 285 b 382 118 188 188 271 118 b 576 285 493 118 576 188 b 382 458 576 389 493 458 b 188 285 278 458 188 389 m 208 743 b 382 588 208 667 271 588 b 556 743 493 588 556 667 b 382 896 556 833 479 896 b 208 743 285 896 208 833 "},"9":{"ha":764,"x_min":0,"x_max":0,"o":"m 354 894 b 167 701 243 894 167 813 b 361 508 167 590 250 508 b 544 701 472 508 544 589 b 354 894 544 806 465 894 m 708 507 b 344 -14 706 243 604 -14 b 49 278 178 -14 47 104 l 188 278 b 350 118 188 174 260 118 b 576 499 535 118 579 360 b 347 375 531 431 465 375 b 28 701 146 375 28 528 b 354 1028 28 868 153 1028 b 651 832 486 1028 597 949 b 708 507 693 742 710 628 "},"A":{"ha":903,"x_min":0,"x_max":0,"o":"m 375 1014 l 528 1014 l 875 0 l 729 0 l 639 264 l 263 264 l 174 0 l 28 0 m 310 403 l 592 403 l 451 819 "},"B":{"ha":875,"x_min":0,"x_max":0,"o":"m 111 1014 l 472 1014 b 792 736 653 1014 792 903 b 668 519 792 643 743 565 b 806 285 751 476 806 396 b 486 0 806 111 667 0 l 111 0 m 493 139 b 660 292 576 139 660 194 b 493 444 660 403 576 444 l 257 444 l 257 139 m 479 583 b 646 729 563 583 646 625 b 479 875 646 833 563 875 l 257 875 l 257 583 "},"C":{"ha":1028,"x_min":0,"x_max":0,"o":"m 56 506 b 576 1042 56 804 278 1042 b 979 847 729 1042 882 972 l 882 750 b 583 904 813 847 715 904 b 203 507 347 904 203 731 b 590 110 203 283 347 110 b 889 264 722 110 819 167 l 986 167 b 583 -28 889 42 736 -28 b 56 506 278 -28 56 208 "},"D":{"ha":917,"x_min":0,"x_max":0,"o":"m 111 1014 l 340 1014 b 861 507 639 1014 861 806 b 340 0 861 208 639 0 l 111 0 m 257 875 l 257 139 l 347 139 b 715 507 576 139 715 278 b 347 875 715 736 576 875 "},"E":{"ha":792,"x_min":0,"x_max":0,"o":"m 111 1014 l 722 1014 l 722 875 l 257 875 l 257 583 l 708 583 l 708 444 l 257 444 l 257 139 l 722 139 l 722 0 l 111 0 "},"F":{"ha":764,"x_min":0,"x_max":0,"o":"m 111 1014 l 722 1014 l 722 875 l 257 875 l 257 583 l 681 583 l 681 444 l 257 444 l 257 0 l 111 0 "},"G":{"ha":1118,"x_min":0,"x_max":0,"o":"m 888 749 b 576 903 821 844 713 903 b 203 506 347 903 203 736 b 576 111 203 278 347 111 b 947 431 779 111 933 243 l 431 431 l 431 569 l 958 569 l 1090 438 b 576 -28 1076 188 854 -28 b 56 507 278 -28 56 208 b 583 1042 56 806 278 1042 b 988 849 750 1042 890 967 "},"H":{"ha":903,"x_min":0,"x_max":0,"o":"m 646 1014 l 792 1014 l 792 0 l 646 0 l 646 444 l 257 444 l 257 0 l 111 0 l 111 1014 l 257 1014 l 257 583 l 646 583 "},"I":{"ha":403,"x_min":0,"x_max":0,"o":"m 104 139 l 128 139 l 128 875 l 104 875 l 104 1014 l 299 1014 l 299 875 l 275 875 l 275 139 l 299 139 l 299 0 l 104 0 "},"J":{"ha":389,"x_min":0,"x_max":0,"o":"m 42 -125 l 42 0 l 69 0 b 132 56 106 0 132 21 l 132 1014 l 278 1014 l 278 69 b 69 -139 278 -56 194 -139 "},"K":{"ha":819,"x_min":0,"x_max":0,"o":"m 806 1014 l 368 515 l 819 0 l 633 0 l 257 431 l 257 0 l 111 0 l 111 1014 l 257 1014 l 257 597 l 632 1014 "},"L":{"ha":736,"x_min":0,"x_max":0,"o":"m 111 1014 l 257 1014 l 257 139 l 681 139 l 681 0 l 111 0 "},"M":{"ha":1250,"x_min":0,"x_max":0,"o":"m 931 1014 l 1139 1014 l 1139 0 l 994 0 l 994 818 l 708 222 l 542 222 l 256 818 l 256 0 l 111 0 l 111 1014 l 319 1014 l 625 367 "},"N":{"ha":958,"x_min":0,"x_max":0,"o":"m 703 1014 l 847 1014 l 847 0 l 688 0 l 256 764 l 256 0 l 111 0 l 111 1014 l 271 1014 l 703 264 "},"O":{"ha":1181,"x_min":0,"x_max":0,"o":"m 56 507 b 590 1042 56 803 294 1042 b 1125 507 886 1042 1125 803 b 590 -28 1125 211 886 -28 b 56 507 294 -28 56 211 m 201 506 b 590 111 201 278 361 111 b 978 506 819 111 978 278 b 590 903 978 736 819 903 b 201 506 361 903 201 736 "},"P":{"ha":819,"x_min":0,"x_max":0,"o":"m 111 1014 l 479 1014 b 792 722 660 1014 792 896 b 479 431 792 549 660 431 l 257 431 l 257 0 l 111 0 m 486 569 b 646 722 569 569 646 618 b 486 875 646 826 569 875 l 257 875 l 257 569 "},"Q":{"ha":1194,"x_min":0,"x_max":0,"o":"m 56 507 b 590 1042 56 806 292 1042 b 1125 507 889 1042 1125 806 b 1019 186 1125 386 1086 275 l 1181 28 l 1181 0 l 1017 0 l 925 88 b 590 -28 833 15 718 -28 b 56 507 292 -28 56 208 m 611 389 l 708 493 l 918 285 b 979 507 957 347 979 422 b 590 903 979 738 819 903 b 200 507 361 903 200 738 b 590 111 200 279 361 111 b 825 183 681 111 761 138 "},"R":{"ha":847,"x_min":0,"x_max":0,"o":"m 806 28 l 806 0 l 640 0 l 285 444 l 257 444 l 257 0 l 111 0 l 111 1014 l 472 1014 b 785 729 639 1014 785 910 b 463 444 785 556 629 444 m 479 583 b 639 729 563 583 639 639 b 479 875 639 819 563 875 l 257 875 l 257 583 "},"S":{"ha":819,"x_min":0,"x_max":0,"o":"m 569 750 b 396 903 569 833 493 903 b 229 757 293 903 229 840 b 389 597 229 681 278 626 b 500 571 426 588 464 579 b 750 278 639 538 750 451 b 410 -25 750 125 625 -25 b 56 278 221 -25 58 122 l 201 333 b 410 115 199 196 306 115 b 604 278 528 115 604 181 b 444 431 604 382 514 417 b 333 460 411 438 368 449 b 83 764 201 500 83 590 b 396 1039 83 924 221 1039 b 722 750 576 1039 722 917 "},"T":{"ha":736,"x_min":0,"x_max":0,"o":"m 442 0 l 294 0 l 294 875 l 14 875 l 14 1014 l 722 1014 l 722 875 l 442 875 "},"U":{"ha":910,"x_min":0,"x_max":0,"o":"m 653 1014 l 799 1014 l 799 0 l 688 0 l 667 56 l 660 63 l 653 56 b 424 -28 611 7 500 -28 b 104 306 229 -28 104 111 l 104 1014 l 250 1014 l 250 299 b 444 111 250 194 319 111 b 653 299 563 111 653 194 "},"V":{"ha":875,"x_min":0,"x_max":0,"o":"m 175 1014 l 438 203 l 700 1014 l 847 1014 l 514 0 l 361 0 l 28 1014 "},"W":{"ha":1208,"x_min":0,"x_max":0,"o":"m 682 806 l 868 253 l 1033 1014 l 1181 1014 l 958 0 l 813 0 l 604 588 l 396 0 l 250 0 l 28 1014 l 175 1014 l 340 251 l 528 806 "},"X":{"ha":806,"x_min":0,"x_max":0,"o":"m 188 1014 l 401 653 l 617 1014 l 778 1014 l 482 518 l 792 0 l 631 0 l 403 383 l 175 0 l 14 0 l 322 518 l 28 1014 "},"Y":{"ha":764,"x_min":0,"x_max":0,"o":"m 174 1014 l 382 651 l 589 1014 l 750 1014 l 456 500 l 456 0 l 308 0 l 308 500 l 14 1014 "},"Z":{"ha":778,"x_min":0,"x_max":0,"o":"m 69 1014 l 736 1014 l 736 875 l 204 139 l 722 139 l 722 0 l 42 0 l 42 139 l 574 875 l 69 875 "},"a":{"ha":792,"x_min":0,"x_max":0,"o":"m 708 0 l 583 0 l 569 56 l 563 63 l 556 56 b 375 -14 514 14 444 -14 b 42 326 194 -14 42 125 b 375 667 42 528 194 667 b 556 597 444 667 514 639 l 563 590 l 569 597 l 583 653 l 708 653 m 583 326 b 382 542 583 444 500 542 b 179 326 250 542 179 444 b 382 111 179 208 250 111 b 583 326 500 111 583 208 "},"b":{"ha":792,"x_min":0,"x_max":0,"o":"m 83 1056 l 221 1056 l 221 597 l 229 590 l 236 597 b 417 667 278 639 349 667 b 750 326 597 667 750 528 b 417 -14 750 125 597 -14 b 236 56 347 -14 278 14 l 229 63 l 221 56 l 208 0 l 83 0 m 208 326 b 410 111 208 208 292 111 b 611 326 542 111 611 208 b 410 542 611 444 542 542 b 208 326 292 542 208 444 "},"c":{"ha":681,"x_min":0,"x_max":0,"o":"m 178 326 b 382 111 178 208 250 111 b 551 222 465 111 529 167 l 660 153 b 375 -14 606 56 507 -14 b 42 326 200 -14 42 125 b 375 667 42 528 200 667 b 658 500 507 667 604 597 l 550 431 b 382 542 528 486 465 542 b 178 326 250 542 178 444 "},"d":{"ha":792,"x_min":0,"x_max":0,"o":"m 708 0 l 583 0 l 569 56 l 563 63 l 556 56 b 375 -14 514 14 444 -14 b 42 326 194 -14 42 125 b 375 667 42 528 194 667 b 556 597 443 667 514 639 l 563 590 l 569 597 l 569 1056 l 708 1056 m 583 326 b 382 542 583 444 500 542 b 179 326 250 542 179 444 b 382 111 179 208 250 111 b 583 326 500 111 583 208 "},"e":{"ha":701,"x_min":0,"x_max":0,"o":"m 181 292 b 368 111 181 194 250 111 b 529 208 451 111 508 153 l 646 153 b 361 -14 590 56 493 -14 b 42 326 188 -14 42 125 b 361 667 42 528 181 667 b 667 333 528 667 667 535 l 653 292 m 361 542 b 188 414 264 542 208 486 l 521 414 b 361 542 514 486 444 542 "},"f":{"ha":431,"x_min":0,"x_max":0,"o":"m 28 653 l 139 653 l 139 847 b 347 1056 139 972 208 1056 l 417 1042 l 417 917 l 340 931 b 278 861 299 931 278 903 l 278 653 l 417 653 l 417 528 l 278 528 l 278 0 l 139 0 l 139 528 l 28 528 "},"g":{"ha":674,"x_min":0,"x_max":0,"o":"m 42 -43 b 167 160 42 50 93 121 b 42 382 92 204 42 282 b 326 667 42 542 167 667 b 486 597 389 667 458 639 l 493 590 l 500 597 l 514 653 l 611 653 l 611 382 b 486 160 611 282 561 204 b 611 -43 561 121 611 50 b 326 -290 611 -199 472 -290 b 42 -43 181 -290 42 -199 m 174 382 b 326 222 174 292 236 222 b 479 382 417 222 479 292 b 326 542 479 472 417 542 b 174 382 236 542 174 472 m 174 -42 b 326 -171 174 -118 236 -171 b 479 -42 417 -171 479 -118 b 326 90 479 35 417 90 b 174 -42 236 90 174 35 "},"h":{"ha":722,"x_min":0,"x_max":0,"o":"m 83 1056 l 222 1056 l 222 597 l 229 590 l 236 597 b 389 667 264 639 333 667 b 653 403 556 667 653 556 l 653 0 l 514 0 l 514 403 b 375 542 510 492 467 542 b 222 394 293 542 225 475 l 222 0 l 83 0 "},"i":{"ha":306,"x_min":0,"x_max":0,"o":"m 85 653 l 221 653 l 221 0 l 85 0 m 83 931 l 222 931 l 222 778 l 83 778 "},"j":{"ha":318,"x_min":0,"x_max":0,"o":"m -42 -169 l -42 -294 l 28 -308 b 235 -100 167 -308 235 -225 l 235 653 l 97 653 l 97 -114 b 35 -183 97 -156 76 -183 m 97 931 l 235 931 l 235 778 l 97 778 "},"k":{"ha":667,"x_min":0,"x_max":0,"o":"m 486 653 l 667 653 l 353 339 l 681 0 l 500 0 l 222 278 l 222 0 l 83 0 l 83 1056 l 222 1056 l 222 389 "},"l":{"ha":306,"x_min":0,"x_max":0,"o":"m 222 125 l 236 0 l 97 0 l 83 125 l 83 1056 l 222 1056 "},"m":{"ha":1097,"x_min":0,"x_max":0,"o":"m 597 556 l 632 597 b 792 667 667 639 736 667 b 1028 431 944 667 1028 569 l 1028 0 l 889 0 l 889 417 b 778 542 889 500 847 542 b 625 394 696 542 628 475 l 625 0 l 486 0 l 486 417 b 375 542 486 500 444 542 b 222 394 293 542 225 475 l 222 0 l 83 0 l 83 653 l 208 653 l 222 597 l 229 590 l 236 597 b 389 667 264 639 333 667 b 597 556 489 667 561 624 "},"n":{"ha":722,"x_min":0,"x_max":0,"o":"m 83 653 l 208 653 l 222 597 l 229 590 l 236 597 b 389 667 264 639 333 667 b 653 403 556 667 653 556 l 653 0 l 514 0 l 514 403 b 375 542 510 492 467 542 b 222 394 293 542 225 475 l 222 0 l 83 0 "},"o":{"ha":764,"x_min":0,"x_max":0,"o":"m 42 326 b 382 667 42 528 201 667 b 722 326 563 667 722 528 b 382 -14 722 125 563 -14 b 42 326 201 -14 42 125 m 181 326 b 382 111 181 208 250 111 b 583 326 514 111 583 208 b 382 542 583 444 514 542 b 181 326 250 542 181 444 "},"p":{"ha":792,"x_min":0,"x_max":0,"o":"m 83 653 l 208 653 l 221 597 l 229 590 l 236 597 b 417 667 278 639 347 667 b 750 326 597 667 750 528 b 417 -14 750 125 597 -14 b 236 56 349 -14 278 14 l 229 63 l 221 56 l 221 -294 l 83 -294 m 208 326 b 410 111 208 208 292 111 b 611 326 542 111 611 208 b 410 542 611 444 542 542 b 208 326 292 542 208 444 "},"q":{"ha":792,"x_min":0,"x_max":0,"o":"m 708 -294 l 571 -294 l 571 56 l 563 63 l 556 56 b 375 -14 514 14 443 -14 b 42 326 194 -14 42 125 b 375 667 42 528 194 667 b 556 597 444 667 514 639 l 563 590 l 571 597 l 583 653 l 708 653 m 583 326 b 382 542 583 444 500 542 b 181 326 250 542 181 444 b 382 111 181 208 250 111 b 583 326 500 111 583 208 "},"r":{"ha":472,"x_min":0,"x_max":0,"o":"m 83 653 l 208 653 l 222 583 l 229 576 l 236 583 b 389 667 278 639 333 667 b 458 653 417 667 431 667 l 458 528 l 375 528 b 222 381 293 528 225 461 l 222 0 l 83 0 "},"s":{"ha":563,"x_min":0,"x_max":0,"o":"m 285 -14 b 28 181 153 -14 56 63 l 153 229 b 285 108 160 160 215 108 b 389 188 354 108 389 146 b 306 258 389 228 361 249 b 236 274 282 263 258 268 b 49 472 125 301 49 368 b 278 667 49 597 167 667 b 514 472 396 667 500 590 l 375 472 b 278 544 375 514 333 544 b 181 472 222 544 181 514 b 264 397 181 431 214 407 l 333 383 b 521 188 442 360 521 299 b 285 -14 521 76 417 -14 "},"t":{"ha":472,"x_min":0,"x_max":0,"o":"m 14 653 l 140 653 l 140 792 l 250 931 l 276 931 l 276 653 l 417 653 l 417 528 l 276 528 l 276 194 b 347 125 276 153 306 125 l 431 139 l 431 14 l 354 0 b 140 194 215 0 140 69 l 140 528 l 14 528 "},"u":{"ha":722,"x_min":0,"x_max":0,"o":"m 639 0 l 514 0 l 500 56 l 493 63 l 486 56 b 333 -14 458 14 389 -14 b 69 250 167 -14 69 97 l 69 653 l 208 653 l 208 250 b 347 111 211 161 254 111 b 500 257 428 111 496 176 l 500 653 l 639 653 "},"v":{"ha":625,"x_min":0,"x_max":0,"o":"m 472 653 l 611 653 l 375 0 l 250 0 l 14 653 l 153 653 l 313 186 "},"w":{"ha":917,"x_min":0,"x_max":0,"o":"m 389 556 l 528 556 l 653 188 l 765 653 l 903 653 l 722 0 l 590 0 l 458 376 l 326 0 l 194 0 l 14 653 l 151 653 l 264 188 "},"x":{"ha":597,"x_min":0,"x_max":0,"o":"m 431 653 l 583 653 l 375 336 l 597 0 l 444 0 l 299 221 l 153 0 l 0 0 l 222 336 l 14 653 l 167 653 l 299 453 "},"y":{"ha":597,"x_min":0,"x_max":0,"o":"m 444 653 l 583 653 l 236 -278 l 97 -278 l 233 86 l 14 653 l 154 653 l 299 261 "},"z":{"ha":639,"x_min":0,"x_max":0,"o":"m 63 653 l 583 653 l 583 528 l 211 125 l 576 125 l 576 0 l 56 0 l 56 125 l 424 528 l 63 528 "},"æ":{"ha":1182,"x_min":0,"x_max":0,"o":"m 681 0 l 556 0 l 542 56 l 535 63 l 528 56 b 361 -14 486 14 431 -14 b 42 326 181 -14 42 125 b 361 667 42 528 181 667 b 528 597 431 667 486 639 l 535 590 l 542 597 l 556 653 l 681 653 l 681 590 l 694 604 b 861 667 731 646 792 667 b 1153 333 1014 667 1160 542 l 1139 292 l 681 292 l 681 285 b 854 111 683 190 739 111 b 1010 208 938 111 989 153 l 1125 153 b 854 -14 1069 56 986 -14 b 694 49 785 -14 736 6 l 681 63 m 556 326 b 368 542 556 444 486 542 b 179 326 236 542 179 444 b 368 111 179 208 236 111 b 556 326 486 111 556 208 m 854 542 b 681 414 750 542 701 479 l 1008 414 b 854 542 1008 486 938 542 "},"œ":{"ha":1203,"x_min":0,"x_max":0,"o":"m 563 56 b 368 -14 510 13 444 -14 b 42 326 201 -14 42 125 b 368 667 42 528 201 667 b 563 597 444 667 510 640 l 622 524 l 681 597 b 875 667 733 640 799 667 b 1167 333 1021 667 1174 542 l 1153 292 l 694 292 b 868 111 694 194 758 111 b 1032 208 951 111 1008 153 l 1147 153 b 868 -14 1092 56 1000 -14 b 681 56 792 -14 733 13 l 622 128 m 179 326 b 368 111 179 208 250 111 b 556 326 493 111 556 208 b 368 542 556 444 493 542 b 179 326 249 542 179 444 m 868 543 b 694 414 764 543 715 479 l 1024 414 b 868 543 1021 493 953 543 "},"ß":{"ha":792,"x_min":0,"x_max":0,"o":"m 389 111 b 597 299 514 111 597 194 b 403 486 597 403 521 486 l 221 486 l 221 0 l 83 0 l 83 778 b 389 1069 83 965 221 1069 b 694 785 542 1069 694 958 b 554 563 694 674 625 597 b 736 299 653 521 736 431 b 403 -14 736 118 597 -14 l 319 83 l 319 111 m 368 611 b 556 778 472 611 556 681 b 389 944 556 882 486 944 b 221 778 292 944 221 882 l 221 611 "},"ŋ":{"ha":722,"x_min":0,"x_max":0,"o":"m 453 -183 b 514 -114 494 -183 514 -156 l 514 403 b 375 542 510 492 467 542 b 222 394 293 542 225 475 l 222 0 l 83 0 l 83 653 l 208 653 l 222 597 l 229 590 l 236 597 b 389 667 264 639 333 667 b 653 403 556 667 653 556 l 653 -100 b 446 -308 653 -225 585 -308 l 376 -294 l 376 -169 "},"ð":{"ha":778,"x_min":0,"x_max":0,"o":"m 597 1056 l 681 979 l 607 901 b 715 625 669 826 706 729 b 715 319 725 522 725 444 b 382 -14 700 125 558 -14 b 42 326 208 -14 42 125 b 375 667 42 528 194 667 b 583 576 458 667 549 618 l 590 569 l 597 576 b 524 813 597 681 571 757 l 438 722 l 354 799 l 438 886 b 181 931 369 924 283 942 l 250 1056 b 524 978 354 1061 447 1031 m 583 326 b 382 542 583 444 500 542 b 181 326 257 542 181 444 b 382 111 181 208 257 111 b 583 326 493 111 583 194 "},"þ":{"ha":764,"x_min":0,"x_max":0,"o":"m 83 1056 l 221 1056 l 221 597 l 229 590 l 236 597 b 417 667 278 639 349 667 b 750 326 597 667 750 528 b 417 -14 750 125 597 -14 b 236 56 347 -14 278 14 l 229 63 l 221 56 l 221 -294 l 83 -294 m 208 326 b 410 111 208 208 292 111 b 611 326 542 111 611 208 b 410 542 611 444 542 542 b 208 326 292 542 208 444 "},"ı":{"ha":306,"x_min":0,"x_max":0,"o":"m 85 653 l 221 653 l 221 0 l 85 0 "},"ﬁ":{"ha":667,"x_min":0,"x_max":0,"o":"m 14 653 l 111 653 l 111 847 b 319 1056 111 972 181 1056 l 403 1042 l 403 917 l 313 931 b 250 861 271 931 250 903 l 250 653 l 583 653 l 583 0 l 446 0 l 446 528 l 250 528 l 250 0 l 111 0 l 111 528 l 14 528 m 444 1028 l 583 1028 l 583 889 l 444 889 "},"ﬂ":{"ha":667,"x_min":0,"x_max":0,"o":"m 14 653 l 111 653 l 111 847 b 319 1056 111 972 181 1056 l 403 1042 l 403 917 l 313 931 b 250 861 271 931 250 903 l 250 653 l 319 653 l 319 528 l 250 528 l 250 0 l 111 0 l 111 528 l 14 528 m 583 125 l 597 0 l 458 0 l 444 125 l 444 1042 l 583 1042 "},"ﬀ":{"ha":722,"x_min":0,"x_max":0,"o":"m 646 931 b 583 861 604 931 583 903 l 583 653 l 681 653 l 681 528 l 583 528 l 583 0 l 444 0 l 444 528 l 250 528 l 250 0 l 111 0 l 111 528 l 14 528 l 14 653 l 111 653 l 111 847 b 319 1056 111 972 181 1056 l 417 1042 l 417 917 l 313 931 b 250 861 271 931 250 903 l 250 653 l 444 653 l 444 847 b 653 1056 444 972 514 1056 l 722 1042 l 722 917 "},"ﬄ":{"ha":1000,"x_min":0,"x_max":0,"o":"m 646 931 b 583 861 604 931 583 903 l 583 653 l 653 653 l 653 528 l 583 528 l 583 0 l 444 0 l 444 528 l 250 528 l 250 0 l 111 0 l 111 528 l 14 528 l 14 653 l 111 653 l 111 847 b 319 1056 111 972 181 1056 l 417 1042 l 417 917 l 313 931 b 250 861 271 931 250 903 l 250 653 l 444 653 l 444 847 b 653 1056 444 972 514 1056 l 736 1042 l 736 917 m 917 125 l 931 0 l 792 0 l 778 125 l 778 1042 l 917 1042 "},"ﬃ":{"ha":1000,"x_min":0,"x_max":0,"o":"m 646 931 b 583 861 604 931 583 903 l 583 653 l 917 653 l 917 0 l 778 0 l 778 528 l 583 528 l 583 0 l 444 0 l 444 528 l 250 528 l 250 0 l 111 0 l 111 528 l 14 528 l 14 653 l 111 653 l 111 847 b 319 1056 111 972 181 1056 l 417 1042 l 417 917 l 313 931 b 250 861 271 931 250 903 l 250 653 l 444 653 l 444 847 b 653 1056 444 972 514 1056 l 736 1042 l 736 917 m 778 1028 l 917 1028 l 917 889 l 778 889 "},"Æ":{"ha":1111,"x_min":0,"x_max":0,"o":"m 333 1014 l 1042 1014 l 1042 875 l 528 875 l 615 583 l 1028 583 l 1028 444 l 657 444 l 750 139 l 1042 139 l 1042 0 l 646 0 l 564 278 l 254 278 l 174 0 l 28 0 m 296 417 l 524 417 l 410 806 "},"Œ":{"ha":1333,"x_min":0,"x_max":0,"o":"m 764 0 b 583 -28 710 -18 644 -28 b 56 507 285 -28 56 208 b 583 1042 56 806 285 1042 b 764 1014 644 1042 710 1032 l 1264 1014 l 1264 875 l 910 875 l 910 583 l 1250 583 l 1250 444 l 910 444 l 910 139 l 1264 139 l 1264 0 m 764 868 b 590 903 713 892 654 903 b 201 506 361 903 201 736 b 590 111 201 278 361 111 b 764 147 654 111 713 124 "},"Ŋ":{"ha":958,"x_min":0,"x_max":0,"o":"m 613 -281 l 613 -156 l 640 -156 b 703 -100 676 -156 703 -135 l 703 0 l 256 764 l 256 0 l 111 0 l 111 1014 l 271 1014 l 703 264 l 703 1014 l 847 1014 l 847 -86 b 640 -294 847 -211 765 -294 "},"Ð":{"ha":917,"x_min":0,"x_max":0,"o":"m 14 569 l 139 569 l 139 1014 l 340 1014 b 861 507 639 1014 861 806 b 340 0 861 208 639 0 l 139 0 l 139 444 l 14 444 m 285 875 l 285 569 l 431 569 l 431 444 l 285 444 l 285 139 l 347 139 b 715 507 576 139 715 278 b 347 875 715 736 576 875 "},"Þ":{"ha":819,"x_min":0,"x_max":0,"o":"m 111 1014 l 257 1014 l 257 806 l 479 806 b 792 514 660 806 792 688 b 479 222 792 340 660 222 l 257 222 l 257 0 l 111 0 m 486 361 b 646 514 569 361 646 410 b 486 667 646 618 569 667 l 257 667 l 257 361 "},"&":{"ha":1028,"x_min":0,"x_max":0,"o":"m 431 1028 b 681 792 569 1028 681 931 b 507 546 681 694 608 600 l 506 544 l 657 386 l 736 514 b 972 653 796 611 861 653 l 1014 653 l 1014 528 l 972 528 b 847 444 903 528 872 485 l 746 278 l 903 0 l 750 0 l 667 149 b 374 -14 597 47 500 -14 b 69 271 193 -14 69 106 b 292 571 69 410 174 507 l 296 574 b 181 792 242 633 181 713 b 431 1028 181 931 292 1028 m 375 111 b 585 269 485 111 540 193 l 385 481 b 208 271 278 424 208 354 b 375 111 208 174 292 111 m 319 785 b 417 639 319 729 389 668 b 542 785 499 683 542 729 b 431 892 542 853 493 892 b 319 785 368 892 319 854 "},",":{"ha":339,"x_min":0,"x_max":0,"o":"m 165 -139 l 19 -139 l 19 -111 l 165 215 l 297 153 "},";":{"ha":381,"x_min":0,"x_max":0,"o":"m 310 181 l 179 243 l 19 -111 l 19 -139 l 165 -139 m 131 653 l 297 653 l 297 486 l 131 486 "},":":{"ha":333,"x_min":0,"x_max":0,"o":"m 83 653 l 250 653 l 250 486 l 83 486 m 83 222 l 250 222 l 250 56 l 83 56 "},".":{"ha":250,"x_min":0,"x_max":0,"o":"m 42 181 l 208 181 l 208 0 l 42 0 "},"…":{"ha":1014,"x_min":0,"x_max":0,"o":"m 42 181 l 221 181 l 221 0 l 42 0 m 444 181 l 611 181 l 611 0 l 444 0 m 819 181 l 972 181 l 972 0 l 819 0 "},"-":{"ha":444,"x_min":0,"x_max":0,"o":"m 403 472 l 403 319 l 42 319 l 42 472 "},"!":{"ha":333,"x_min":0,"x_max":0,"o":"m 97 653 l 83 1014 l 250 1014 l 236 653 l 181 236 l 153 236 m 83 167 l 250 167 l 250 0 l 83 0 "},"¡":{"ha":333,"x_min":0,"x_max":0,"o":"m 153 778 l 181 778 l 236 361 l 250 0 l 83 0 l 97 361 m 83 1014 l 250 1014 l 250 847 l 83 847 "},"?":{"ha":668,"x_min":0,"x_max":0,"o":"m 238 167 l 404 167 l 404 0 l 238 0 m 43 722 b 343 1014 43 875 182 1014 b 626 736 494 1014 626 889 b 390 236 626 458 293 458 l 251 236 b 488 729 168 528 488 528 b 335 879 488 819 425 879 b 182 722 244 879 182 813 l 182 694 "},"¿":{"ha":667,"x_min":0,"x_max":0,"o":"m 431 847 l 264 847 l 264 1014 l 431 1014 m 486 319 l 486 292 b 333 135 486 201 424 135 b 181 285 243 135 181 194 b 417 778 181 486 500 486 l 278 778 b 42 278 375 556 42 556 b 325 0 42 125 174 0 b 625 292 486 0 625 139 "},"‽":{"ha":667,"x_min":0,"x_max":0,"o":"m 111 653 l 28 1014 l 194 1014 l 204 961 b 347 1014 236 993 299 1014 b 625 750 500 1014 625 917 b 375 236 625 472 269 458 l 236 236 m 486 736 b 333 882 486 826 424 882 b 228 839 290 882 250 864 l 264 653 l 264 451 b 486 736 338 557 486 606 m 222 167 l 389 167 l 389 0 l 222 0 "},"‘":{"ha":328,"x_min":0,"x_max":0,"o":"m 160 1014 l 285 958 l 160 653 l 14 653 "},"’":{"ha":326,"x_min":0,"x_max":0,"o":"m 158 653 l 35 708 l 160 1014 l 306 1014 "},"“":{"ha":543,"x_min":0,"x_max":0,"o":"m 375 1014 l 500 958 l 375 653 l 229 653 m 160 1014 l 283 958 l 160 653 l 14 653 "},"”":{"ha":543,"x_min":0,"x_max":0,"o":"m 160 653 l 35 708 l 160 1014 l 304 1014 m 376 653 l 250 708 l 375 1014 l 521 1014 "},"‚":{"ha":328,"x_min":0,"x_max":0,"o":"m 160 222 l 285 167 l 160 -139 l 14 -139 "},"„":{"ha":543,"x_min":0,"x_max":0,"o":"m 375 222 l 500 167 l 375 -139 l 229 -139 m 160 222 l 283 167 l 160 -139 l 14 -139 "},"‹":{"ha":444,"x_min":0,"x_max":0,"o":"m 26 410 l 389 731 l 389 583 l 194 410 l 389 236 l 389 89 "},"›":{"ha":444,"x_min":0,"x_max":0,"o":"m 417 410 l 56 89 l 56 236 l 250 410 l 56 583 l 56 731 "},"«":{"ha":569,"x_min":0,"x_max":0,"o":"m 514 736 l 514 576 l 382 410 l 514 243 l 514 83 l 250 410 m 28 410 l 292 736 l 292 576 l 160 410 l 292 243 l 292 83 "},"»":{"ha":569,"x_min":0,"x_max":0,"o":"m 318 410 l 54 83 l 54 243 l 186 410 l 54 576 l 54 736 m 278 83 l 278 243 l 410 410 l 278 576 l 278 736 l 542 410 "},"/":{"ha":708,"x_min":0,"x_max":0,"o":"m 97 -56 l 0 -56 l 611 1056 l 708 1056 "},"|":{"ha":319,"x_min":0,"x_max":0,"o":"m 208 -139 l 111 -139 l 111 1069 l 208 1069 "},"–":{"ha":847,"x_min":0,"x_max":0,"o":"m 806 472 l 806 347 l 42 347 l 42 472 "},"—":{"ha":1250,"x_min":0,"x_max":0,"o":"m 1208 472 l 1208 347 l 42 347 l 42 472 "},"•":{"ha":750,"x_min":0,"x_max":0,"o":"m 69 472 b 375 778 69 640 207 778 b 681 472 543 778 681 640 b 375 167 681 304 543 167 b 69 472 207 167 69 304 m 194 625 b 222 597 194 610 207 597 b 249 625 238 597 249 610 b 222 653 249 640 238 653 b 194 625 207 653 194 640 "},"·":{"ha":250,"x_min":0,"x_max":0,"o":"m 42 500 l 208 500 l 208 319 l 42 319 "},"(":{"ha":472,"x_min":0,"x_max":0,"o":"m 63 514 b 417 1153 63 847 250 1056 l 472 1069 b 167 514 319 986 167 792 b 472 -42 167 235 319 42 l 417 -125 b 63 514 250 -28 63 181 "},")":{"ha":472,"x_min":0,"x_max":0,"o":"m 410 514 b 56 -125 410 181 222 -28 l 0 -42 b 306 514 153 42 306 235 b 0 1069 306 792 153 986 l 56 1153 b 410 514 222 1056 410 847 "},"[":{"ha":458,"x_min":0,"x_max":0,"o":"m 167 1167 l 181 1181 l 458 1181 l 458 1097 l 264 1097 l 264 -83 l 458 -83 l 458 -167 l 181 -167 l 167 -153 "},"]":{"ha":458,"x_min":0,"x_max":0,"o":"m 292 -153 l 278 -167 l 0 -167 l 0 -83 l 194 -83 l 194 1097 l 0 1097 l 0 1181 l 278 1181 l 292 1167 "},"{":{"ha":472,"x_min":0,"x_max":0,"o":"m 56 569 b 222 722 167 556 222 611 l 222 972 b 403 1153 222 1083 292 1153 l 472 1139 l 472 1056 l 403 1056 b 319 972 347 1056 319 1028 l 319 708 b 181 521 319 597 264 542 b 319 333 264 500 319 444 l 319 69 b 403 -14 319 14 347 -14 l 472 -14 l 472 -97 l 403 -111 b 222 69 292 -111 222 -42 l 222 319 b 56 472 222 431 167 486 "},"}":{"ha":472,"x_min":0,"x_max":0,"o":"m 417 472 b 250 319 306 486 250 431 l 250 69 b 69 -111 250 -42 181 -111 l 0 -97 l 0 -14 l 69 -14 b 153 69 125 -14 153 14 l 153 333 b 292 521 153 444 208 500 b 153 708 208 542 153 597 l 153 972 b 69 1056 153 1028 125 1056 l 0 1056 l 0 1139 l 69 1153 b 250 972 181 1153 250 1083 l 250 722 b 417 569 250 611 306 556 "},"*":{"ha":625,"x_min":0,"x_max":0,"o":"m 469 969 l 539 900 l 431 792 l 583 792 l 583 694 l 361 694 l 361 472 l 264 472 l 264 625 l 156 517 l 86 586 l 194 694 l 42 694 l 42 792 l 264 792 l 264 1014 l 361 1014 l 361 861 "},"†":{"ha":625,"x_min":0,"x_max":0,"o":"m 583 847 l 583 750 l 361 750 l 361 0 l 264 0 l 264 750 l 42 750 l 42 847 l 264 847 l 264 1014 l 361 1014 l 361 847 "},"‡":{"ha":625,"x_min":0,"x_max":0,"o":"m 264 167 l 42 167 l 42 264 l 264 264 l 264 750 l 42 750 l 42 847 l 264 847 l 264 1014 l 361 1014 l 361 847 l 583 847 l 583 750 l 361 750 l 361 264 l 583 264 l 583 167 l 361 167 l 361 0 l 264 0 "},"§":{"ha":750,"x_min":0,"x_max":0,"o":"m 69 401 b 208 571 69 472 121 539 b 104 771 139 621 104 688 b 375 1014 104 910 214 1014 b 646 750 535 1014 646 903 l 507 750 b 368 883 507 833 451 883 b 243 771 292 883 243 833 b 326 651 243 722 271 678 b 514 574 376 628 458 594 b 681 368 618 533 681 472 b 540 199 681 297 628 229 b 646 -1 611 147 646 81 b 375 -243 646 -140 535 -243 b 104 19 214 -243 104 -133 l 243 19 b 382 -114 243 -64 299 -114 b 507 -1 458 -114 507 -64 b 424 118 507 47 479 92 b 236 196 374 142 292 175 b 69 401 132 236 69 297 m 549 347 b 465 451 549 396 521 431 b 318 513 424 467 367 490 b 201 422 236 513 201 471 b 285 318 201 374 229 339 b 431 257 325 303 382 278 b 549 347 514 257 549 299 "},"¶":{"ha":583,"x_min":0,"x_max":0,"o":"m 472 1014 l 472 -229 l 375 -229 l 375 1014 m 0 806 b 208 1014 0 931 83 1014 l 306 1014 l 306 -229 l 208 -229 l 208 597 b 0 806 83 597 0 681 "},"^":{"ha":750,"x_min":0,"x_max":0,"o":"m 681 347 l 569 347 l 375 882 l 179 347 l 69 347 l 319 1014 l 431 1014 "},"~":{"ha":750,"x_min":0,"x_max":0,"o":"m 500 375 b 243 306 417 375 361 306 b 69 493 133 306 56 368 l 194 493 b 250 431 188 451 217 431 b 507 500 333 431 403 500 b 681 313 617 500 694 438 l 556 313 b 500 375 563 354 533 375 "},"¦":{"ha":319,"x_min":0,"x_max":0,"o":"m 208 653 l 111 653 l 111 1069 l 208 1069 m 208 -139 l 111 -139 l 111 278 l 208 278 "},"\\":{"ha":708,"x_min":0,"x_max":0,"o":"m 0 1056 l 97 1056 l 708 -56 l 611 -56 "},"_":{"ha":597,"x_min":0,"x_max":0,"o":"m 597 0 l 597 -97 l 0 -97 l 0 0 "},"'":{"ha":472,"x_min":0,"x_max":0,"o":"m 375 1014 l 375 653 l 97 653 l 97 1014 "},"\"":{"ha":472,"x_min":0,"x_max":0,"o":"m 194 653 l 97 653 l 97 1014 l 194 1014 m 375 653 l 276 653 l 276 1014 l 375 1014 "},"@":{"ha":1278,"x_min":0,"x_max":0,"o":"m 458 285 b 618 111 468 160 528 111 b 772 278 708 111 767 179 b 772 361 774 306 774 333 b 618 528 767 465 708 528 b 458 354 528 528 467 465 b 458 285 457 335 457 303 m 799 104 l 792 97 b 603 0 750 33 686 0 b 333 285 458 0 347 97 b 333 354 332 303 332 335 b 603 639 346 535 465 639 b 779 556 672 639 736 611 l 806 625 l 889 625 l 889 181 b 965 104 889 132 924 104 b 1104 340 1069 104 1104 201 b 639 819 1104 618 931 819 b 153 319 347 819 153 611 b 639 -181 153 28 347 -181 b 846 -49 771 -181 847 -125 l 936 -104 b 639 -285 924 -222 792 -285 b 42 319 292 -285 42 -28 b 639 924 42 667 306 924 b 1215 340 972 924 1215 681 b 965 0 1215 157 1139 0 b 806 97 896 0 833 35 "},"©":{"ha":1181,"x_min":0,"x_max":0,"o":"m 83 507 b 590 1014 83 792 319 1014 b 1097 507 861 1014 1097 792 b 590 0 1097 222 858 0 b 83 507 319 0 83 222 m 176 507 b 590 92 176 268 360 92 b 1004 507 821 92 1004 268 b 590 922 1004 744 822 922 b 176 507 358 922 176 744 m 601 199 b 315 507 429 199 315 332 b 601 815 315 682 429 815 b 846 669 719 815 801 751 l 750 613 b 607 710 732 664 679 710 b 426 507 482 710 426 619 b 607 304 426 394 482 304 b 750 401 679 304 732 349 l 846 344 b 601 199 801 263 719 199 "},"®":{"ha":1181,"x_min":0,"x_max":0,"o":"m 83 507 b 590 1014 83 792 319 1014 b 1097 507 861 1014 1097 792 b 590 0 1097 222 858 0 b 83 507 319 0 83 222 m 176 507 b 590 92 176 268 360 92 b 1004 507 821 92 1004 268 b 590 922 1004 744 822 922 b 176 507 358 922 176 744 m 397 814 l 638 814 b 840 629 750 814 840 740 b 640 446 840 521 746 453 l 828 239 l 808 213 l 711 213 l 508 446 l 504 446 l 504 213 l 397 213 m 633 544 b 732 629 688 544 732 571 b 633 714 732 689 688 714 l 504 714 l 504 544 "},"™":{"ha":1181,"x_min":0,"x_max":0,"o":"m 1097 410 l 990 410 l 990 875 l 851 583 l 732 583 l 593 875 l 593 410 l 486 410 l 486 1014 l 639 1014 l 792 704 l 944 1014 l 1097 1014 m 14 1014 l 431 1014 l 431 903 l 285 903 l 285 410 l 174 410 l 174 903 l 14 903 "},"¤":{"ha":750,"x_min":0,"x_max":0,"o":"m 167 403 b 375 194 167 288 260 194 b 583 403 490 194 583 288 b 375 611 583 518 490 611 b 167 403 260 611 167 518 m 69 403 b 124 576 69 467 89 526 l 61 639 l 139 717 l 201 654 b 375 708 250 688 310 708 b 549 654 439 708 499 688 l 611 717 l 689 639 l 626 576 b 681 403 660 526 681 467 b 626 229 681 338 660 278 l 689 167 l 611 89 l 549 151 b 375 97 499 117 439 97 b 201 151 310 97 250 117 l 139 89 l 61 167 l 124 229 b 69 403 89 278 69 338 "},"€":{"ha":903,"x_min":0,"x_max":0,"o":"m 142 750 b 521 1028 210 922 353 1028 b 889 750 715 1028 847 903 l 750 750 b 521 903 726 819 660 903 b 274 724 407 903 321 838 l 569 667 l 549 549 l 243 607 b 236 507 238 576 236 542 b 244 392 236 465 239 428 l 549 451 l 569 333 l 279 276 b 521 111 328 171 411 111 b 751 264 660 111 726 194 l 889 264 b 521 -14 847 111 715 -14 b 147 250 357 -14 218 86 l 35 229 l 14 347 l 111 365 b 97 507 101 410 97 457 b 108 633 97 551 101 593 l 14 653 l 35 771 "},"$":{"ha":736,"x_min":0,"x_max":0,"o":"m 308 -56 l 308 6 b 69 292 157 33 69 168 l 207 292 b 308 142 204 226 244 165 l 308 292 l 428 292 l 428 138 b 528 271 496 156 528 210 b 410 414 528 344 475 389 b 257 483 360 433 310 456 b 69 743 154 538 69 604 b 308 1008 69 867 157 983 l 308 1069 l 428 1069 l 428 1008 b 667 722 579 979 667 846 l 529 722 b 428 872 531 786 490 847 l 428 722 l 308 722 l 308 876 b 208 743 239 857 208 804 b 306 610 208 681 257 636 b 460 539 354 583 401 563 b 667 271 588 488 667 403 b 428 4 667 147 579 29 l 428 -56 "},"¢":{"ha":736,"x_min":0,"x_max":0,"o":"m 336 1069 l 457 1069 l 457 842 b 694 625 568 821 658 743 l 563 625 b 457 711 542 667 510 697 l 457 289 b 563 375 510 301 542 333 l 694 375 b 457 158 658 257 568 179 l 457 -56 l 336 -56 l 336 157 b 76 500 179 186 76 326 b 336 840 76 671 189 811 m 215 500 b 336 290 215 401 249 317 l 336 710 b 215 500 249 683 215 597 "},"£":{"ha":736,"x_min":0,"x_max":0,"o":"m 161 243 l 83 333 l 238 471 b 236 472 236 472 236 471 b 83 743 151 549 83 625 b 375 1014 83 875 194 1014 b 667 736 563 1014 667 875 l 528 736 b 375 878 528 811 465 878 b 229 743 278 878 229 813 b 319 576 229 688 263 625 b 338 561 325 571 331 565 l 486 694 l 564 604 l 424 479 b 486 333 461 436 486 392 b 389 138 486 269 458 193 l 708 138 l 708 0 l 83 0 l 83 138 l 167 138 b 347 292 272 138 347 208 b 318 383 347 326 336 356 "},"ƒ":{"ha":500,"x_min":0,"x_max":0,"o":"m 319 14 b 111 -194 319 -111 250 -194 l 14 -181 l 14 -56 l 118 -69 b 181 0 160 -69 181 -42 l 181 528 l 14 528 l 14 653 l 181 653 l 181 847 b 389 1056 181 972 250 1056 l 486 1042 l 486 917 l 382 931 b 319 861 340 931 319 903 l 319 653 l 486 653 l 486 528 l 319 528 "},"¥":{"ha":847,"x_min":0,"x_max":0,"o":"m 69 583 l 228 651 l 69 1014 l 221 1014 l 424 515 l 625 1014 l 778 1014 l 619 651 l 778 583 l 724 467 l 568 532 l 493 361 l 722 361 l 722 236 l 493 236 l 493 0 l 354 0 l 354 236 l 125 236 l 125 361 l 354 361 l 279 532 l 124 467 "},"ª":{"ha":611,"x_min":0,"x_max":0,"o":"m 556 507 l 461 507 l 450 550 l 444 554 l 440 550 b 297 496 408 518 350 496 b 42 760 160 496 42 603 b 297 1025 42 917 160 1025 b 440 971 350 1025 408 1003 l 444 965 l 450 971 l 461 1014 l 556 1014 m 461 760 b 304 931 461 850 393 931 b 146 760 204 931 146 850 b 304 590 146 669 204 590 b 461 760 393 590 461 669 "},"º":{"ha":611,"x_min":0,"x_max":0,"o":"m 42 760 b 306 1025 42 922 174 1025 b 569 760 438 1025 569 922 b 306 496 569 597 438 496 b 42 760 174 496 42 597 m 146 760 b 306 590 146 669 203 590 b 465 760 408 590 465 669 b 306 931 465 850 408 931 b 146 760 203 931 146 850 "},"#":{"ha":1000,"x_min":0,"x_max":0,"o":"m 42 264 l 42 361 l 228 361 l 318 653 l 153 653 l 153 750 l 349 750 l 431 1014 l 528 1014 l 528 986 l 454 750 l 696 750 l 778 1014 l 875 1014 l 875 986 l 801 750 l 958 750 l 958 653 l 771 653 l 681 361 l 847 361 l 847 264 l 651 264 l 569 0 l 472 0 l 472 28 l 544 264 l 304 264 l 222 0 l 125 0 l 125 28 l 197 264 m 333 361 l 575 361 l 665 653 l 424 653 "},"⁰":{"ha":472,"x_min":0,"x_max":0,"o":"m 236 750 b 49 1011 118 750 49 860 b 236 1271 49 1163 117 1271 b 424 1011 356 1271 424 1163 b 236 750 424 860 354 750 m 236 1181 b 146 1011 174 1181 146 1113 b 236 840 146 908 174 840 b 326 1011 299 840 326 908 b 236 1181 326 1113 299 1181 "},"¹":{"ha":472,"x_min":0,"x_max":0,"o":"m 182 1264 l 314 1264 l 314 757 l 219 757 l 219 1167 l 163 1083 l 64 1083 l 64 1097 "},"²":{"ha":472,"x_min":0,"x_max":0,"o":"m 65 1104 b 232 1271 65 1215 149 1271 b 399 1111 329 1271 399 1208 b 324 972 399 1049 356 1001 b 183 847 267 918 183 882 l 406 847 l 406 757 l 65 757 l 65 813 b 246 1021 69 911 178 953 b 301 1111 269 1044 301 1076 b 232 1181 301 1153 274 1181 b 163 1111 190 1181 163 1153 l 163 1090 l 65 1090 "},"³":{"ha":472,"x_min":0,"x_max":0,"o":"m 410 1174 l 271 1082 b 417 924 356 1072 417 1013 b 235 750 417 833 340 750 b 56 917 125 750 56 833 l 153 917 b 235 840 153 875 188 840 b 319 917 285 840 319 875 b 228 1000 319 965 285 1000 l 139 1000 l 139 1076 l 267 1174 l 69 1174 l 69 1264 l 410 1264 "},"⁴":{"ha":472,"x_min":0,"x_max":0,"o":"m 361 1264 l 361 979 l 431 979 l 431 889 l 361 889 l 361 757 l 264 757 l 264 889 l 28 889 l 28 979 l 236 1264 m 264 979 l 264 1154 l 136 979 "},"⁵":{"ha":472,"x_min":0,"x_max":0,"o":"m 417 931 b 236 750 417 833 342 750 b 56 917 125 750 56 833 l 153 917 b 236 840 153 875 189 840 b 319 925 286 840 319 876 b 218 1014 319 986 274 1014 b 107 1004 172 1014 139 1010 l 69 1076 l 135 1264 l 396 1264 l 396 1174 l 194 1174 l 164 1092 b 232 1104 182 1100 211 1104 b 417 931 343 1104 417 1035 "},"⁶":{"ha":472,"x_min":0,"x_max":0,"o":"m 246 840 b 321 917 290 840 321 874 b 243 996 321 963 290 996 b 167 917 200 996 167 963 b 246 840 167 874 199 840 m 56 1007 b 253 1271 57 1140 118 1271 b 406 1118 336 1271 406 1215 l 313 1118 b 246 1185 313 1163 283 1185 b 150 1044 176 1185 154 1108 b 253 1082 174 1068 213 1082 b 419 917 357 1082 419 1007 b 246 750 419 826 350 750 b 100 826 183 750 131 781 b 56 1007 68 874 56 938 "},"⁷":{"ha":472,"x_min":0,"x_max":0,"o":"m 63 1174 l 63 1264 l 424 1264 l 424 1181 b 243 757 424 1181 335 1014 l 146 757 l 146 778 b 319 1174 215 963 289 1108 "},"⁸":{"ha":472,"x_min":0,"x_max":0,"o":"m 69 1125 b 236 1271 69 1215 146 1271 b 403 1125 326 1271 403 1215 b 347 1021 403 1083 382 1044 b 417 903 389 1000 417 956 b 236 750 417 819 347 750 b 56 903 125 750 56 819 b 125 1021 56 957 83 1000 b 69 1125 90 1046 69 1083 m 153 906 b 236 840 153 867 188 840 b 319 906 286 840 319 867 b 236 976 319 951 282 976 b 153 906 193 976 153 951 m 167 1119 b 236 1063 167 1090 192 1063 b 306 1119 282 1063 306 1090 b 236 1181 306 1154 278 1181 b 167 1119 194 1181 167 1154 "},"⁹":{"ha":472,"x_min":0,"x_max":0,"o":"m 226 1181 b 151 1104 182 1181 151 1147 b 229 1025 151 1058 182 1025 b 306 1104 272 1025 306 1058 b 226 1181 306 1147 274 1181 m 417 1014 b 219 750 415 881 354 750 b 67 903 136 750 67 806 l 160 903 b 226 836 160 858 189 836 b 322 976 296 836 318 913 b 219 939 299 953 260 939 b 53 1104 115 939 53 1014 b 226 1271 53 1194 122 1271 b 372 1194 289 1271 342 1240 b 417 1014 404 1147 417 1083 "},"₀":{"ha":472,"x_min":0,"x_max":0,"o":"m 236 -257 b 49 4 118 -257 49 -147 b 236 264 49 156 117 264 b 424 4 356 264 424 156 b 236 -257 424 -147 354 -257 m 236 174 b 146 4 174 174 146 106 b 236 -167 146 -99 174 -167 b 326 4 299 -167 326 -99 b 236 174 326 106 299 174 "},"₁":{"ha":472,"x_min":0,"x_max":0,"o":"m 182 257 l 314 257 l 314 -250 l 219 -250 l 219 160 l 163 76 l 64 76 l 64 90 "},"₂":{"ha":472,"x_min":0,"x_max":0,"o":"m 65 97 b 232 264 65 208 149 264 b 399 104 329 264 399 201 b 324 -35 399 42 356 -6 b 183 -160 267 -89 183 -125 l 406 -160 l 406 -250 l 65 -250 l 65 -194 b 246 14 69 -96 178 -54 b 301 104 269 38 301 69 b 232 174 301 146 274 174 b 163 104 190 174 163 146 l 163 83 l 65 83 "},"₃":{"ha":472,"x_min":0,"x_max":0,"o":"m 410 167 l 271 75 b 417 -83 356 65 417 6 b 235 -257 417 -174 340 -257 b 56 -90 125 -257 56 -174 l 153 -90 b 235 -167 153 -132 188 -167 b 319 -90 285 -167 319 -132 b 228 -7 319 -42 285 -7 l 139 -7 l 139 69 l 267 167 l 69 167 l 69 257 l 410 257 "},"₄":{"ha":472,"x_min":0,"x_max":0,"o":"m 361 257 l 361 -28 l 431 -28 l 431 -118 l 361 -118 l 361 -250 l 264 -250 l 264 -118 l 28 -118 l 28 -28 l 236 257 m 264 -28 l 264 147 l 136 -28 "},"₅":{"ha":472,"x_min":0,"x_max":0,"o":"m 417 -76 b 236 -257 417 -174 342 -257 b 56 -90 125 -257 56 -174 l 153 -90 b 236 -167 153 -132 189 -167 b 319 -82 286 -167 319 -131 b 218 7 319 -21 274 7 b 107 -3 172 7 139 3 l 69 69 l 135 257 l 396 257 l 396 167 l 194 167 l 164 85 b 232 97 182 93 211 97 b 417 -76 343 97 417 28 "},"₆":{"ha":472,"x_min":0,"x_max":0,"o":"m 246 -167 b 321 -90 290 -167 321 -133 b 243 -11 321 -44 290 -11 b 167 -90 200 -11 167 -44 b 246 -167 167 -133 199 -167 m 56 0 b 253 264 57 133 118 264 b 406 111 336 264 406 208 l 313 111 b 246 178 313 156 283 178 b 150 38 176 178 154 101 b 253 75 174 61 213 75 b 419 -90 357 75 419 0 b 246 -257 419 -181 350 -257 b 100 -181 183 -257 131 -226 b 56 0 68 -133 56 -69 "},"₇":{"ha":472,"x_min":0,"x_max":0,"o":"m 63 167 l 63 257 l 424 257 l 424 174 b 243 -250 424 174 335 7 l 146 -250 l 146 -229 b 319 167 215 -44 289 101 "},"₈":{"ha":472,"x_min":0,"x_max":0,"o":"m 69 118 b 236 264 69 208 146 264 b 403 118 326 264 403 208 b 347 14 403 76 382 38 b 417 -104 389 -7 417 -51 b 236 -257 417 -187 347 -257 b 56 -104 125 -257 56 -187 b 125 14 56 -50 83 -7 b 69 118 90 39 69 76 m 153 -101 b 236 -167 153 -140 188 -167 b 319 -101 286 -167 319 -140 b 236 -31 319 -56 282 -31 b 153 -101 193 -31 153 -56 m 167 113 b 236 56 167 83 192 56 b 306 113 282 56 306 83 b 236 174 306 147 278 174 b 167 113 194 174 167 147 "},"₉":{"ha":472,"x_min":0,"x_max":0,"o":"m 226 174 b 151 97 182 174 151 140 b 229 18 151 51 182 18 b 306 97 272 18 306 51 b 226 174 306 140 274 174 m 417 7 b 219 -257 415 -126 354 -257 b 67 -104 136 -257 67 -201 l 160 -104 b 226 -171 160 -149 189 -171 b 322 -31 296 -171 318 -94 b 219 -68 299 -54 260 -68 b 53 97 115 -68 53 7 b 226 264 53 188 122 264 b 372 188 289 264 342 233 b 417 7 404 140 417 76 "},"⁄":{"ha":944,"x_min":0,"x_max":0,"o":"m 111 0 l 0 0 l 833 1014 l 944 1014 "},"¼":{"ha":806,"x_min":0,"x_max":0,"o":"m 431 347 b 597 514 431 458 514 514 b 764 354 694 514 764 451 b 689 215 764 292 721 244 b 549 90 632 161 549 125 l 767 90 l 767 0 l 431 0 l 431 56 b 611 264 435 154 543 196 b 667 354 635 288 667 319 b 597 424 667 396 639 424 b 528 354 556 424 528 396 l 528 333 l 431 333 m 146 1014 l 278 1014 l 278 507 l 183 507 l 183 917 l 126 833 l 28 833 l 28 847 m 221 250 l 125 250 l 597 764 l 694 764 "},"½":{"ha":806,"x_min":0,"x_max":0,"o":"m 319 222 l 583 507 l 694 507 l 694 222 l 750 222 l 750 132 l 694 132 l 694 0 l 597 0 l 597 132 l 319 132 m 146 1014 l 278 1014 l 278 507 l 183 507 l 183 917 l 126 833 l 28 833 l 28 847 m 221 250 l 125 250 l 597 764 l 694 764 m 597 222 l 597 397 l 438 222 "},"¾":{"ha":806,"x_min":0,"x_max":0,"o":"m 583 507 l 694 507 l 694 222 l 750 222 l 750 132 l 694 132 l 694 0 l 597 0 l 597 132 l 319 132 l 319 222 m 382 924 l 243 832 b 389 674 328 822 389 763 b 207 500 389 583 313 500 b 28 667 97 500 28 583 l 125 667 b 207 590 125 625 160 590 b 292 667 257 590 292 625 b 200 750 292 715 257 750 l 111 750 l 111 826 l 239 924 l 42 924 l 42 1014 l 382 1014 m 221 250 l 125 250 l 597 764 l 694 764 m 597 222 l 597 397 l 438 222 "},"%":{"ha":944,"x_min":0,"x_max":0,"o":"m 139 0 l 28 0 l 806 1014 l 917 1014 m 42 813 b 257 1028 42 931 125 1028 b 472 813 389 1028 472 931 b 257 597 472 694 389 597 b 42 813 125 597 42 694 m 139 813 b 257 689 139 736 194 689 b 375 813 319 689 375 736 b 257 936 375 889 319 936 b 139 813 194 936 139 889 m 472 201 b 688 417 472 319 556 417 b 903 201 819 417 903 319 b 688 -14 903 83 819 -14 b 472 201 556 -14 472 83 m 569 201 b 688 78 569 125 625 78 b 806 201 750 78 806 125 b 688 325 806 278 750 325 b 569 201 625 325 569 278 "},"‰":{"ha":1160,"x_min":0,"x_max":0,"o":"m 660 479 b 875 694 660 597 743 694 b 1090 479 1007 694 1090 597 b 881 264 1090 363 1008 267 b 889 201 886 244 889 222 b 674 -14 889 83 806 -14 b 458 201 542 -14 458 83 b 668 417 458 318 539 414 b 660 479 663 436 660 457 m 69 813 b 285 1028 69 931 153 1028 b 500 813 417 1028 500 931 b 285 597 500 694 417 597 b 69 813 153 597 69 694 m 167 0 l 56 0 l 792 1014 l 903 1014 m 556 201 b 674 78 556 125 611 78 b 792 201 736 78 792 125 b 674 325 792 278 736 325 b 556 201 611 325 556 278 m 757 479 b 875 356 757 403 813 356 b 993 479 938 356 993 403 b 875 603 993 556 938 603 b 757 479 813 603 757 556 m 167 813 b 285 689 167 736 222 689 b 403 813 347 689 403 736 b 285 936 403 889 347 936 b 167 813 222 936 167 889 "},"+":{"ha":750,"x_min":0,"x_max":0,"o":"m 319 69 l 319 347 l 42 347 l 42 458 l 319 458 l 319 736 l 431 736 l 431 458 l 708 458 l 708 347 l 431 347 l 431 69 "},"−":{"ha":750,"x_min":0,"x_max":0,"o":"m 42 347 l 42 458 l 708 458 l 708 347 "},"±":{"ha":750,"x_min":0,"x_max":0,"o":"m 319 264 l 319 542 l 42 542 l 42 653 l 319 653 l 319 931 l 431 931 l 431 653 l 708 653 l 708 542 l 431 542 l 431 264 m 42 0 l 42 111 l 708 111 l 708 0 "},"×":{"ha":750,"x_min":0,"x_max":0,"o":"m 611 89 l 375 324 l 139 89 l 61 167 l 296 403 l 61 639 l 139 717 l 375 482 l 611 717 l 689 639 l 454 403 l 689 167 "},"÷":{"ha":750,"x_min":0,"x_max":0,"o":"m 42 347 l 42 458 l 708 458 l 708 347 m 292 569 l 292 736 l 458 736 l 458 569 m 292 69 l 292 236 l 458 236 l 458 69 "},"=":{"ha":750,"x_min":0,"x_max":0,"o":"m 708 583 l 708 472 l 42 472 l 42 583 m 708 333 l 708 222 l 42 222 l 42 333 "},"≠":{"ha":750,"x_min":0,"x_max":0,"o":"m 708 333 l 708 222 l 292 222 l 125 0 l 42 0 l 42 28 l 188 222 l 42 222 l 42 333 l 271 333 l 375 472 l 42 472 l 42 583 l 458 583 l 625 806 l 708 806 l 708 778 l 563 583 l 708 583 l 708 472 l 479 472 l 375 333 "},"≈":{"ha":750,"x_min":0,"x_max":0,"o":"m 500 493 b 243 424 417 493 361 424 b 69 611 133 424 56 486 l 194 611 b 250 549 188 569 217 549 b 507 618 333 549 403 618 b 681 431 617 618 694 556 l 556 431 b 500 493 563 472 533 493 m 500 243 b 243 174 417 243 361 174 b 69 361 133 174 56 236 l 194 361 b 250 299 188 319 217 299 b 507 368 333 299 403 368 b 681 181 617 368 694 306 l 556 181 b 500 243 563 222 533 243 "},"<":{"ha":750,"x_min":0,"x_max":0,"o":"m 694 708 l 694 599 l 183 403 l 694 208 l 694 97 l 56 347 l 56 458 "},">":{"ha":750,"x_min":0,"x_max":0,"o":"m 694 458 l 694 347 l 56 97 l 56 208 l 565 403 l 56 599 l 56 708 "},"≤":{"ha":750,"x_min":0,"x_max":0,"o":"m 56 0 l 56 108 l 583 108 l 56 347 l 56 458 l 694 764 l 694 653 l 171 403 l 694 167 l 694 0 "},"≥":{"ha":750,"x_min":0,"x_max":0,"o":"m 56 0 l 56 167 l 579 403 l 56 653 l 56 764 l 694 458 l 694 347 l 165 108 l 694 108 l 694 0 "},"¬":{"ha":750,"x_min":0,"x_max":0,"o":"m 597 542 l 42 542 l 42 653 l 708 653 l 708 222 l 597 222 "},"Δ":{"ha":625,"x_min":0,"x_max":0,"o":"m 611 97 l 611 0 l 14 0 l 14 97 l 264 1014 l 361 1014 m 313 865 l 111 97 l 514 97 "},"Ω":{"ha":764,"x_min":0,"x_max":0,"o":"m 382 1014 b 724 639 571 1014 713 868 b 724 556 725 611 725 583 b 499 186 715 375 631 235 l 499 94 l 667 94 l 667 0 l 403 0 l 403 264 b 626 556 514 264 617 361 b 626 639 628 583 628 611 b 382 919 618 819 522 919 b 139 639 243 919 147 819 b 139 556 138 611 138 583 b 361 264 149 361 250 264 l 361 0 l 97 0 l 97 94 l 265 94 l 265 186 b 42 556 135 235 50 375 b 42 639 40 583 40 611 b 382 1014 53 868 194 1014 "},"µ":{"ha":722,"x_min":0,"x_max":0,"o":"m 207 -294 l 69 -294 l 69 653 l 208 653 l 208 264 b 347 111 208 167 250 111 b 500 264 431 111 500 181 l 500 653 l 639 653 l 639 0 l 514 0 l 500 56 l 493 63 l 486 56 b 333 -14 458 14 389 -14 b 207 14 283 -14 240 -3 "},"π":{"ha":625,"x_min":0,"x_max":0,"o":"m 42 653 l 611 653 l 611 556 l 556 556 l 500 146 b 542 97 496 117 514 97 l 556 97 l 556 0 l 542 0 b 403 153 457 0 389 49 l 458 556 l 207 556 l 207 0 l 111 0 l 111 556 l 28 556 "},"°":{"ha":500,"x_min":0,"x_max":0,"o":"m 42 806 b 250 1014 42 924 133 1014 b 458 806 367 1014 458 924 b 250 597 458 688 367 597 b 42 806 133 597 42 688 m 139 806 b 250 694 139 743 188 694 b 361 806 313 694 361 743 b 250 917 361 868 313 917 b 139 806 188 917 139 868 "},"∞":{"ha":750,"x_min":0,"x_max":0,"o":"m 14 403 b 188 583 14 514 83 583 b 374 482 265 583 322 544 b 563 583 428 547 489 583 b 736 403 667 583 736 514 b 563 222 736 292 667 222 b 374 324 489 222 428 258 b 188 222 322 261 265 222 b 14 403 83 222 14 292 m 107 403 b 188 319 107 361 132 319 b 318 403 235 319 278 346 b 188 486 278 458 235 486 b 107 403 132 486 107 444 m 563 486 b 432 403 514 486 474 457 b 563 319 474 349 514 319 b 643 403 618 319 643 361 b 563 486 643 444 618 486 "},"∂":{"ha":625,"x_min":0,"x_max":0,"o":"m 585 389 b 257 -14 574 188 458 -14 b 28 243 118 -14 28 83 b 347 653 28 417 139 653 b 489 578 411 653 465 619 b 250 921 472 833 354 921 b 126 764 153 921 111 861 l 36 764 b 250 1014 14 931 118 1014 b 585 389 403 1014 613 882 m 346 557 b 125 243 193 557 125 381 b 257 83 125 146 174 83 b 486 389 410 83 486 250 b 346 557 486 490 432 557 "},"∫":{"ha":625,"x_min":0,"x_max":0,"o":"m 382 -86 b 174 -294 382 -211 313 -294 l 56 -294 l 56 -194 l 194 -194 b 257 -125 236 -194 257 -167 l 243 458 l 243 847 b 451 1056 243 972 313 1056 l 569 1056 l 569 958 l 431 958 b 368 889 389 958 368 931 l 382 458 "},"√":{"ha":625,"x_min":0,"x_max":0,"o":"m 528 1014 l 625 1014 l 375 -294 l 278 -294 l 97 556 l 0 556 l 0 653 l 181 653 l 326 -56 "},"∑":{"ha":625,"x_min":0,"x_max":0,"o":"m 597 -294 l 14 -294 l 14 -197 l 486 347 l 14 917 l 14 1014 l 597 1014 l 597 917 l 146 917 l 583 403 l 583 306 l 146 -197 l 597 -197 "},"∏":{"ha":625,"x_min":0,"x_max":0,"o":"m 583 778 l 556 778 l 556 -294 l 458 -294 l 458 778 l 167 778 l 167 -294 l 69 -294 l 69 778 l 42 778 l 42 875 l 583 875 "},"◊":{"ha":583,"x_min":0,"x_max":0,"o":"m 236 1014 l 347 1014 l 542 507 l 347 0 l 236 0 l 42 507 m 292 125 l 431 507 l 292 889 l 153 507 "},"ˇ":{"ha":458,"x_min":0,"x_max":0,"o":"m 299 729 l 160 729 l 33 876 l 115 951 l 229 818 l 343 951 l 425 876 "},"ˆ":{"ha":458,"x_min":0,"x_max":0,"o":"m 425 804 l 343 729 l 229 863 l 115 729 l 33 804 l 160 951 l 299 951 "},"´":{"ha":458,"x_min":0,"x_max":0,"o":"m 419 921 l 282 729 l 146 729 l 319 993 "},"`":{"ha":458,"x_min":0,"x_max":0,"o":"m 149 993 l 322 729 l 186 729 l 49 921 "},"¯":{"ha":458,"x_min":0,"x_max":0,"o":"m 42 861 l 417 861 l 417 757 l 42 757 "},"˘":{"ha":458,"x_min":0,"x_max":0,"o":"m 229 726 b 42 893 111 726 42 810 l 42 901 l 154 901 l 154 899 b 229 828 154 864 179 828 b 304 899 279 828 304 864 l 304 901 l 417 901 l 417 893 b 229 726 417 810 347 726 "},"˚":{"ha":458,"x_min":0,"x_max":0,"o":"m 76 854 b 229 1003 76 940 146 1003 b 382 854 313 1003 382 940 b 229 706 382 768 313 706 b 76 854 146 706 76 768 m 167 854 b 229 792 167 818 193 792 b 292 854 265 792 292 818 b 229 917 292 890 265 917 b 167 854 193 917 167 890 "},"˜":{"ha":472,"x_min":0,"x_max":0,"o":"m 311 903 b 436 736 401 903 447 844 l 333 736 b 306 790 336 772 331 790 b 154 731 271 790 231 731 b 33 868 72 731 28 785 l 136 901 b 165 844 135 865 138 844 b 311 903 207 844 242 903 "},"˙":{"ha":458,"x_min":0,"x_max":0,"o":"m 160 910 l 299 910 l 299 757 l 160 757 "},"˝":{"ha":458,"x_min":0,"x_max":0,"o":"m 261 913 l 157 715 l 28 715 l 149 967 m 476 894 l 353 715 l 218 715 l 379 964 "},"¨":{"ha":458,"x_min":0,"x_max":0,"o":"m 42 924 l 179 924 l 179 771 l 42 771 m 278 924 l 417 924 l 417 771 l 278 771 "},"¸":{"ha":458,"x_min":0,"x_max":0,"o":"m 138 -156 b 215 -187 138 -156 171 -187 b 264 -153 246 -187 264 -174 b 215 -118 264 -131 244 -118 l 183 -118 l 183 21 l 286 21 l 286 -32 b 385 -153 329 -39 385 -81 b 213 -299 385 -239 315 -299 b 81 -251 150 -299 103 -269 "},"˛":{"ha":458,"x_min":0,"x_max":0,"o":"m 304 0 l 265 -79 b 258 -111 260 -90 258 -101 b 324 -164 258 -143 289 -164 l 354 -164 l 324 -278 l 317 -278 b 126 -149 203 -278 126 -226 b 193 0 126 -118 133 -82 "},"à":{"ha":792,"x_min":0,"x_max":0,"o":"m 708 653 l 583 653 l 569 597 l 563 590 l 556 597 b 375 667 514 639 444 667 b 42 326 194 667 42 528 b 375 -14 42 125 194 -14 b 556 56 444 -14 514 14 l 563 63 l 569 56 l 583 0 l 708 0 m 583 326 b 382 111 583 208 500 111 b 179 326 250 111 179 208 b 382 542 179 444 250 542 b 583 326 500 542 583 444 m 275 993 l 449 729 l 313 729 l 175 921 "},"á":{"ha":792,"x_min":0,"x_max":0,"o":"m 708 653 l 583 653 l 569 597 l 563 590 l 556 597 b 375 667 514 639 444 667 b 42 326 194 667 42 528 b 375 -14 42 125 194 -14 b 556 56 444 -14 514 14 l 563 63 l 569 56 l 583 0 l 708 0 m 583 326 b 382 111 583 208 500 111 b 179 326 250 111 179 208 b 382 542 179 444 250 542 b 583 326 500 542 583 444 m 574 921 l 436 729 l 300 729 l 474 993 "},"â":{"ha":792,"x_min":0,"x_max":0,"o":"m 708 0 l 583 0 l 569 56 l 563 63 l 556 56 b 375 -14 514 14 444 -14 b 42 326 194 -14 42 125 b 375 667 42 528 194 667 b 556 597 444 667 514 639 l 563 590 l 569 597 l 583 653 l 708 653 m 583 326 b 382 542 583 444 500 542 b 179 326 250 542 179 444 b 382 111 179 208 250 111 b 583 326 500 111 583 208 m 578 804 l 496 729 l 382 863 l 268 729 l 186 804 l 313 951 l 451 951 "},"ã":{"ha":792,"x_min":0,"x_max":0,"o":"m 708 653 l 583 653 l 569 597 l 563 590 l 556 597 b 375 667 514 639 444 667 b 42 326 194 667 42 528 b 375 -14 42 125 194 -14 b 556 56 444 -14 514 14 l 563 63 l 569 56 l 583 0 l 708 0 m 583 326 b 382 111 583 208 500 111 b 179 326 250 111 179 208 b 382 542 179 444 250 542 b 583 326 500 542 583 444 m 469 903 b 594 736 560 903 606 844 l 492 736 b 464 790 494 772 489 790 b 313 731 429 790 389 731 b 192 868 231 731 186 785 l 294 901 b 324 844 293 865 296 844 b 469 903 365 844 400 903 "},"ä":{"ha":792,"x_min":0,"x_max":0,"o":"m 708 653 l 583 653 l 569 597 l 563 590 l 556 597 b 375 667 514 639 444 667 b 42 326 194 667 42 528 b 375 -14 42 125 194 -14 b 556 56 444 -14 514 14 l 563 63 l 569 56 l 583 0 l 708 0 m 583 326 b 382 111 583 208 500 111 b 179 326 250 111 179 208 b 382 542 179 444 250 542 b 583 326 500 542 583 444 m 200 924 l 338 924 l 338 771 l 200 771 m 436 924 l 575 924 l 575 771 l 436 771 "},"ā":{"ha":792,"x_min":0,"x_max":0,"o":"m 708 653 l 583 653 l 569 597 l 563 590 l 556 597 b 375 667 514 639 444 667 b 42 326 194 667 42 528 b 375 -14 42 125 194 -14 b 556 56 444 -14 514 14 l 563 63 l 569 56 l 583 0 l 708 0 m 583 326 b 382 111 583 208 500 111 b 179 326 250 111 179 208 b 382 542 179 444 250 542 b 583 326 500 542 583 444 m 196 861 l 571 861 l 571 757 l 196 757 "},"ă":{"ha":792,"x_min":0,"x_max":0,"o":"m 708 653 l 583 653 l 569 597 l 563 590 l 556 597 b 375 667 514 639 444 667 b 42 326 194 667 42 528 b 375 -14 42 125 194 -14 b 556 56 444 -14 514 14 l 563 63 l 569 56 l 583 0 l 708 0 m 583 326 b 382 111 583 208 500 111 b 179 326 250 111 179 208 b 382 542 179 444 250 542 b 583 326 500 542 583 444 m 388 726 b 200 893 269 726 200 810 l 200 901 l 313 901 l 313 899 b 388 828 313 864 338 828 b 463 899 438 828 463 864 l 463 901 l 575 901 l 575 893 b 388 726 575 810 506 726 "},"å":{"ha":792,"x_min":0,"x_max":0,"o":"m 708 0 l 583 0 l 569 56 l 563 63 l 556 56 b 375 -14 514 14 444 -14 b 42 326 194 -14 42 125 b 375 667 42 528 194 667 b 556 597 444 667 514 639 l 563 590 l 569 597 l 583 653 l 708 653 m 583 326 b 382 542 583 444 500 542 b 179 326 250 542 179 444 b 382 111 179 208 250 111 b 583 326 500 111 583 208 m 225 854 b 378 1003 225 940 294 1003 b 531 854 461 1003 531 940 b 378 706 531 768 461 706 b 225 854 294 706 225 768 m 315 854 b 378 792 315 818 342 792 b 440 854 414 792 440 818 b 378 917 440 890 414 917 b 315 854 342 917 315 890 "},"ǻ":{"ha":792,"x_min":0,"x_max":0,"o":"m 708 653 l 583 653 l 569 597 l 563 590 l 556 597 b 375 667 514 639 444 667 b 42 326 194 667 42 528 b 375 -14 42 125 194 -14 b 556 56 444 -14 514 14 l 563 63 l 569 56 l 583 0 l 708 0 m 583 326 b 382 111 583 208 500 111 b 179 326 250 111 179 208 b 382 542 179 444 250 542 b 583 326 500 542 583 444 m 236 854 b 389 706 236 768 306 706 b 542 854 472 706 542 768 b 389 1003 542 940 472 1003 b 236 854 306 1003 236 940 m 326 854 b 389 917 326 890 353 917 b 451 854 425 917 451 890 b 389 792 451 818 425 792 b 326 854 353 792 326 818 m 601 1231 l 464 1039 l 328 1039 l 501 1303 "},"ą":{"ha":792,"x_min":0,"x_max":0,"o":"m 708 0 l 669 -79 b 663 -111 664 -90 663 -101 b 728 -164 663 -143 693 -164 l 758 -164 l 728 -278 l 721 -278 b 531 -149 607 -278 531 -226 b 597 0 531 -118 538 -82 l 583 0 l 569 56 l 563 63 l 556 56 b 375 -14 514 14 444 -14 b 42 326 194 -14 42 125 b 375 667 42 528 194 667 b 556 597 444 667 514 639 l 563 590 l 569 597 l 583 653 l 708 653 m 583 326 b 382 542 583 444 500 542 b 179 326 250 542 179 444 b 382 111 179 208 250 111 b 583 326 500 111 583 208 "},"ǽ":{"ha":1182,"x_min":0,"x_max":0,"o":"m 681 63 l 694 49 b 854 -14 736 6 785 -14 b 1125 153 986 -14 1069 56 l 1010 208 b 854 111 989 153 938 111 b 681 285 739 111 683 190 l 681 292 l 1139 292 l 1153 333 b 861 667 1160 542 1014 667 b 694 604 792 667 731 646 l 681 590 l 681 653 l 556 653 l 542 597 l 535 590 l 528 597 b 361 667 486 639 431 667 b 42 326 181 667 42 528 b 361 -14 42 125 181 -14 b 528 56 431 -14 486 14 l 535 63 l 542 56 l 556 0 l 681 0 m 556 326 b 368 111 556 208 486 111 b 179 326 236 111 179 208 b 368 542 179 444 236 542 b 556 326 486 542 556 444 m 854 542 b 1008 414 938 542 1008 486 l 681 414 b 854 542 701 479 750 542 m 826 921 l 689 729 l 553 729 l 726 993 "},"ć":{"ha":681,"x_min":0,"x_max":0,"o":"m 178 326 b 382 111 178 208 250 111 b 551 222 465 111 529 167 l 660 153 b 375 -14 606 56 507 -14 b 42 326 200 -14 42 125 b 375 667 42 528 200 667 b 658 500 507 667 604 597 l 550 431 b 382 542 528 486 465 542 b 178 326 250 542 178 444 m 586 921 l 449 729 l 313 729 l 486 993 "},"ĉ":{"ha":681,"x_min":0,"x_max":0,"o":"m 178 326 b 382 111 178 208 250 111 b 551 222 465 111 529 167 l 660 153 b 375 -14 606 56 507 -14 b 42 326 200 -14 42 125 b 375 667 42 528 200 667 b 658 500 507 667 604 597 l 550 431 b 382 542 528 486 465 542 b 178 326 250 542 178 444 m 572 804 l 490 729 l 376 863 l 263 729 l 181 804 l 307 951 l 446 951 "},"č":{"ha":681,"x_min":0,"x_max":0,"o":"m 178 326 b 382 111 178 208 250 111 b 551 222 465 111 529 167 l 660 153 b 375 -14 606 56 507 -14 b 42 326 200 -14 42 125 b 375 667 42 528 200 667 b 658 500 507 667 604 597 l 550 431 b 382 542 528 486 465 542 b 178 326 250 542 178 444 m 443 729 l 304 729 l 178 876 l 260 951 l 374 818 l 488 951 l 569 876 "},"ċ":{"ha":681,"x_min":0,"x_max":0,"o":"m 178 326 b 382 111 178 208 250 111 b 551 222 465 111 529 167 l 660 153 b 375 -14 606 56 507 -14 b 42 326 200 -14 42 125 b 375 667 42 528 200 667 b 658 500 507 667 604 597 l 550 431 b 382 542 528 486 465 542 b 178 326 250 542 178 444 m 306 910 l 444 910 l 444 757 l 306 757 "},"ç":{"ha":681,"x_min":0,"x_max":0,"o":"m 263 -156 b 340 -187 263 -156 296 -187 b 389 -153 371 -187 389 -174 b 340 -118 389 -131 369 -118 l 308 -118 l 308 -7 b 42 326 161 22 42 150 b 375 667 42 528 200 667 b 658 500 507 667 604 597 l 550 431 b 382 542 528 486 465 542 b 178 326 250 542 178 444 b 382 111 178 208 250 111 b 551 222 465 111 529 167 l 660 153 b 411 -11 610 64 525 0 l 411 -32 b 510 -153 454 -39 510 -81 b 338 -299 510 -239 440 -299 b 206 -251 275 -299 228 -269 "},"ď":{"ha":917,"x_min":0,"x_max":0,"o":"m 708 0 l 583 0 l 569 56 l 563 63 l 556 56 b 375 -14 514 14 444 -14 b 42 326 194 -14 42 125 b 375 667 42 528 194 667 b 556 597 443 667 514 639 l 563 590 l 569 597 l 569 1056 l 708 1056 m 583 326 b 382 542 583 444 500 542 b 179 326 250 542 179 444 b 382 111 179 208 250 111 b 583 326 500 111 583 208 m 865 763 l 750 800 l 831 1056 l 960 1056 "},"đ":{"ha":792,"x_min":0,"x_max":0,"o":"m 708 875 l 792 875 l 792 771 l 708 771 l 708 0 l 583 0 l 569 56 l 563 63 l 556 56 b 375 -14 514 14 444 -14 b 42 326 194 -14 42 125 b 375 667 42 528 194 667 b 556 597 443 667 514 639 l 563 590 l 569 597 l 569 771 l 361 771 l 361 875 l 569 875 l 569 1056 l 708 1056 m 583 326 b 382 542 583 444 500 542 b 179 326 250 542 179 444 b 382 111 179 208 250 111 b 583 326 500 111 583 208 "},"è":{"ha":701,"x_min":0,"x_max":0,"o":"m 181 292 b 368 111 181 194 250 111 b 529 208 451 111 508 153 l 646 153 b 361 -14 590 56 493 -14 b 42 326 188 -14 42 125 b 361 667 42 528 181 667 b 667 333 528 667 667 535 l 653 292 m 361 542 b 188 414 264 542 208 486 l 521 414 b 361 542 514 486 444 542 m 272 993 l 446 729 l 310 729 l 172 921 "},"é":{"ha":701,"x_min":0,"x_max":0,"o":"m 181 292 b 368 111 181 194 250 111 b 529 208 451 111 508 153 l 646 153 b 361 -14 590 56 493 -14 b 42 326 188 -14 42 125 b 361 667 42 528 181 667 b 667 333 528 667 667 535 l 653 292 m 361 542 b 188 414 264 542 208 486 l 521 414 b 361 542 514 486 444 542 m 567 921 l 429 729 l 293 729 l 467 993 "},"ê":{"ha":701,"x_min":0,"x_max":0,"o":"m 181 292 b 368 111 181 194 250 111 b 529 208 451 111 508 153 l 646 153 b 361 -14 590 56 493 -14 b 42 326 188 -14 42 125 b 361 667 42 528 181 667 b 667 333 528 667 667 535 l 653 292 m 361 542 b 188 414 264 542 208 486 l 521 414 b 361 542 514 486 444 542 m 550 804 l 468 729 l 354 863 l 240 729 l 158 804 l 285 951 l 424 951 "},"ě":{"ha":701,"x_min":0,"x_max":0,"o":"m 181 292 b 368 111 181 194 250 111 b 529 208 451 111 508 153 l 646 153 b 361 -14 590 56 493 -14 b 42 326 188 -14 42 125 b 361 667 42 528 181 667 b 667 333 528 667 667 535 l 653 292 m 361 542 b 188 414 264 542 208 486 l 521 414 b 361 542 514 486 444 542 m 426 729 l 288 729 l 161 876 l 243 951 l 357 818 l 471 951 l 553 876 "},"ë":{"ha":701,"x_min":0,"x_max":0,"o":"m 181 292 b 368 111 181 194 250 111 b 529 208 451 111 508 153 l 646 153 b 361 -14 590 56 493 -14 b 42 326 188 -14 42 125 b 361 667 42 528 181 667 b 667 333 528 667 667 535 l 653 292 m 361 542 b 188 414 264 542 208 486 l 521 414 b 361 542 514 486 444 542 m 175 924 l 313 924 l 313 771 l 175 771 m 411 924 l 550 924 l 550 771 l 411 771 "},"ē":{"ha":701,"x_min":0,"x_max":0,"o":"m 181 292 b 368 111 181 194 250 111 b 529 208 451 111 508 153 l 646 153 b 361 -14 590 56 493 -14 b 42 326 188 -14 42 125 b 361 667 42 528 181 667 b 667 333 528 667 667 535 l 653 292 m 361 542 b 188 414 264 542 208 486 l 521 414 b 361 542 514 486 444 542 m 172 861 l 547 861 l 547 757 l 172 757 "},"ĕ":{"ha":701,"x_min":0,"x_max":0,"o":"m 181 292 b 368 111 181 194 250 111 b 529 208 451 111 508 153 l 646 153 b 361 -14 590 56 493 -14 b 42 326 188 -14 42 125 b 361 667 42 528 181 667 b 667 333 528 667 667 535 l 653 292 m 361 542 b 188 414 264 542 208 486 l 521 414 b 361 542 514 486 444 542 m 363 726 b 175 893 244 726 175 810 l 175 901 l 288 901 l 288 899 b 363 828 288 864 313 828 b 438 899 413 828 438 864 l 438 901 l 550 901 l 550 893 b 363 726 550 810 481 726 "},"ė":{"ha":701,"x_min":0,"x_max":0,"o":"m 181 292 b 368 111 181 194 250 111 b 529 208 451 111 508 153 l 646 153 b 361 -14 590 56 493 -14 b 42 326 188 -14 42 125 b 361 667 42 528 181 667 b 667 333 528 667 667 535 l 653 292 m 361 542 b 188 414 264 542 208 486 l 521 414 b 361 542 514 486 444 542 m 281 910 l 419 910 l 419 757 l 281 757 "},"ę":{"ha":701,"x_min":0,"x_max":0,"o":"m 181 292 b 368 111 181 194 250 111 b 529 208 451 111 508 153 l 646 153 b 546 -106 574 4 546 -49 b 608 -164 546 -149 572 -164 l 639 -164 l 608 -278 b 421 -146 490 -283 421 -222 b 476 6 421 -86 451 -32 b 361 -14 442 -7 403 -14 b 42 326 188 -14 42 125 b 361 667 42 528 181 667 b 667 333 528 667 667 535 l 653 292 m 361 542 b 188 414 264 542 208 486 l 521 414 b 361 542 514 486 444 542 "},"ĝ":{"ha":674,"x_min":0,"x_max":0,"o":"m 42 -43 b 167 160 42 50 93 121 b 42 382 92 204 42 282 b 326 667 42 542 167 667 b 486 597 389 667 458 639 l 493 590 l 500 597 l 514 653 l 611 653 l 611 382 b 486 160 611 282 561 204 b 611 -43 561 121 611 50 b 326 -290 611 -199 472 -290 b 42 -43 181 -290 42 -199 m 174 382 b 326 222 174 292 236 222 b 479 382 417 222 479 292 b 326 542 479 472 417 542 b 174 382 236 542 174 472 m 174 -42 b 326 -171 174 -118 236 -171 b 479 -42 417 -171 479 -118 b 326 90 479 35 417 90 b 174 -42 236 90 174 35 m 528 804 l 446 729 l 332 863 l 218 729 l 136 804 l 263 951 l 401 951 "},"ğ":{"ha":674,"x_min":0,"x_max":0,"o":"m 42 -43 b 326 -290 42 -199 181 -290 b 611 -43 472 -290 611 -199 b 486 160 611 50 561 121 b 611 382 561 204 611 282 l 611 653 l 514 653 l 500 597 l 493 590 l 486 597 b 326 667 458 639 389 667 b 42 382 167 667 42 542 b 167 160 42 282 92 204 b 42 -43 93 121 42 50 m 174 382 b 326 542 174 472 236 542 b 479 382 417 542 479 472 b 326 222 479 292 417 222 b 174 382 236 222 174 292 m 174 -42 b 326 90 174 35 236 90 b 479 -42 417 90 479 35 b 326 -171 479 -118 417 -171 b 174 -42 236 -171 174 -118 m 331 726 b 143 893 213 726 143 810 l 143 901 l 256 901 l 256 899 b 331 828 256 864 281 828 b 406 899 381 828 406 864 l 406 901 l 518 901 l 518 893 b 331 726 518 810 449 726 "},"ġ":{"ha":674,"x_min":0,"x_max":0,"o":"m 42 -43 b 326 -290 42 -199 181 -290 b 611 -43 472 -290 611 -199 b 486 160 611 50 561 121 b 611 382 561 204 611 282 l 611 653 l 514 653 l 500 597 l 493 590 l 486 597 b 326 667 458 639 389 667 b 42 382 167 667 42 542 b 167 160 42 282 92 204 b 42 -43 93 121 42 50 m 174 382 b 326 542 174 472 236 542 b 479 382 417 542 479 472 b 326 222 479 292 417 222 b 174 382 236 222 174 292 m 174 -42 b 326 90 174 35 236 90 b 479 -42 417 90 479 35 b 326 -171 479 -118 417 -171 b 174 -42 236 -171 174 -118 m 257 910 l 396 910 l 396 757 l 257 757 "},"ģ":{"ha":674,"x_min":0,"x_max":0,"o":"m 42 -43 b 326 -290 42 -199 181 -290 b 611 -43 472 -290 611 -199 b 486 160 611 50 561 121 b 611 382 561 204 611 282 l 611 653 l 514 653 l 500 597 l 493 590 l 486 597 b 326 667 458 639 389 667 b 42 382 167 667 42 542 b 167 160 42 282 92 204 b 42 -43 93 121 42 50 m 174 382 b 326 542 174 472 236 542 b 479 382 417 542 479 472 b 326 222 479 292 417 222 b 174 382 236 222 174 292 m 174 -42 b 326 90 174 35 236 90 b 479 -42 417 90 479 35 b 326 -171 479 -118 417 -171 b 174 -42 236 -171 174 -118 m 344 992 l 464 953 l 390 729 l 257 729 "},"ĥ":{"ha":722,"x_min":0,"x_max":0,"o":"m 501 1186 l 419 1111 l 306 1231 l 192 1111 l 110 1186 l 236 1319 l 375 1319 m 83 1056 l 222 1056 l 222 597 l 229 590 l 236 597 b 389 667 264 639 333 667 b 653 403 556 667 653 556 l 653 0 l 514 0 l 514 403 b 375 542 510 492 467 542 b 222 394 293 542 225 475 l 222 0 l 83 0 "},"ħ":{"ha":722,"x_min":0,"x_max":0,"o":"m 0 875 l 83 875 l 83 1056 l 222 1056 l 222 875 l 431 875 l 431 771 l 222 771 l 222 597 l 229 590 l 236 597 b 389 667 264 639 333 667 b 653 403 556 667 653 556 l 653 0 l 514 0 l 514 403 b 375 542 510 492 467 542 b 222 394 293 542 225 475 l 222 0 l 83 0 l 83 771 l 0 771 "},"ì":{"ha":306,"x_min":0,"x_max":0,"o":"m 85 653 l 221 653 l 221 0 l 85 0 m 46 993 l 219 729 l 83 729 l -54 921 "},"í":{"ha":306,"x_min":0,"x_max":0,"o":"m 85 653 l 221 653 l 221 0 l 85 0 m 360 921 l 222 729 l 86 729 l 260 993 "},"î":{"ha":306,"x_min":0,"x_max":0,"o":"m 85 653 l 221 653 l 221 0 l 85 0 m 349 804 l 267 729 l 153 863 l 39 729 l -43 804 l 83 951 l 222 951 "},"ĩ":{"ha":306,"x_min":0,"x_max":0,"o":"m 85 653 l 221 653 l 221 0 l 85 0 m 232 903 b 357 736 322 903 368 844 l 254 736 b 226 790 257 772 251 790 b 75 731 192 790 151 731 b -46 868 -7 731 -51 785 l 57 901 b 86 844 56 865 58 844 b 232 903 128 844 163 903 "},"ï":{"ha":306,"x_min":0,"x_max":0,"o":"m 85 653 l 221 653 l 221 0 l 85 0 m -35 924 l 103 924 l 103 771 l -35 771 m 201 924 l 340 924 l 340 771 l 201 771 "},"ī":{"ha":306,"x_min":0,"x_max":0,"o":"m 85 653 l 221 653 l 221 0 l 85 0 m -35 861 l 340 861 l 340 757 l -35 757 "},"ĭ":{"ha":306,"x_min":0,"x_max":0,"o":"m 85 653 l 221 653 l 221 0 l 85 0 m 153 726 b -35 893 35 726 -35 810 l -35 901 l 78 901 l 78 899 b 153 828 78 864 103 828 b 228 899 203 828 228 864 l 228 901 l 340 901 l 340 893 b 153 726 340 810 271 726 "},"į":{"ha":306,"x_min":0,"x_max":0,"o":"m 85 653 l 221 653 l 221 0 l 85 0 m 83 931 l 222 931 l 222 778 l 83 778 m 110 0 b 43 -149 50 -82 43 -118 b 233 -278 43 -226 119 -278 l 240 -278 l 271 -164 l 240 -164 b 175 -111 206 -164 175 -143 b 182 -79 175 -101 176 -90 l 221 0 "},"ĵ":{"ha":318,"x_min":0,"x_max":0,"o":"m 35 -183 b 97 -114 76 -183 97 -156 l 97 653 l 235 653 l 235 -100 b 28 -308 235 -225 167 -308 l -42 -294 l -42 -169 m 356 804 l 274 729 l 160 863 l 46 729 l -36 804 l 90 951 l 229 951 "},"ķ":{"ha":667,"x_min":0,"x_max":0,"o":"m 486 653 l 667 653 l 353 339 l 681 0 l 500 0 l 222 278 l 222 0 l 83 0 l 83 1056 l 222 1056 l 222 389 m 349 -319 l 229 -281 l 303 -57 l 436 -57 "},"ĺ":{"ha":306,"x_min":0,"x_max":0,"o":"m 344 1246 l 225 1113 l 83 1113 l 264 1319 m 222 1056 l 83 1056 l 83 125 l 97 0 l 236 0 l 222 125 "},"ľ":{"ha":431,"x_min":0,"x_max":0,"o":"m 222 125 l 236 0 l 97 0 l 83 125 l 83 1056 l 222 1056 m 379 763 l 264 800 l 344 1056 l 474 1056 "},"ļ":{"ha":306,"x_min":0,"x_max":0,"o":"m 222 125 l 236 0 l 97 0 l 83 125 l 83 1056 l 222 1056 m 154 -319 l 35 -281 l 108 -57 l 242 -57 "},"ŀ":{"ha":556,"x_min":0,"x_max":0,"o":"m 222 125 l 236 0 l 97 0 l 83 125 l 83 1056 l 222 1056 m 347 500 l 514 500 l 514 319 l 347 319 "},"ł":{"ha":306,"x_min":0,"x_max":0,"o":"m 222 125 l 236 0 l 97 0 l 83 125 l 83 394 l 0 319 l 0 458 l 83 533 l 83 1056 l 222 1056 l 222 660 l 306 736 l 306 597 l 222 521 "},"ń":{"ha":722,"x_min":0,"x_max":0,"o":"m 83 0 l 222 0 l 222 394 b 375 542 225 475 293 542 b 514 403 467 542 510 492 l 514 0 l 653 0 l 653 403 b 389 667 653 556 556 667 b 236 597 333 667 264 639 l 229 590 l 222 597 l 208 653 l 83 653 m 571 921 l 433 729 l 297 729 l 471 993 "},"ň":{"ha":722,"x_min":0,"x_max":0,"o":"m 83 653 l 208 653 l 222 597 l 229 590 l 236 597 b 389 667 264 639 333 667 b 653 403 556 667 653 556 l 653 0 l 514 0 l 514 403 b 375 542 510 492 467 542 b 222 394 293 542 225 475 l 222 0 l 83 0 m 443 729 l 304 729 l 178 876 l 260 951 l 374 818 l 488 951 l 569 876 "},"ñ":{"ha":722,"x_min":0,"x_max":0,"o":"m 83 0 l 222 0 l 222 394 b 375 542 225 475 293 542 b 514 403 467 542 510 492 l 514 0 l 653 0 l 653 403 b 389 667 653 556 556 667 b 236 597 333 667 264 639 l 229 590 l 222 597 l 208 653 l 83 653 m 447 903 b 572 736 538 903 583 844 l 469 736 b 442 790 472 772 467 790 b 290 731 407 790 367 731 b 169 868 208 731 164 785 l 272 901 b 301 844 271 865 274 844 b 447 903 343 844 378 903 "},"ņ":{"ha":722,"x_min":0,"x_max":0,"o":"m 83 653 l 208 653 l 222 597 l 229 590 l 236 597 b 389 667 264 639 333 667 b 653 403 556 667 653 556 l 653 0 l 514 0 l 514 403 b 375 542 510 492 467 542 b 222 394 293 542 225 475 l 222 0 l 83 0 m 365 -319 l 246 -281 l 319 -57 l 453 -57 "},"ò":{"ha":764,"x_min":0,"x_max":0,"o":"m 42 326 b 382 667 42 528 201 667 b 722 326 563 667 722 528 b 382 -14 722 125 563 -14 b 42 326 201 -14 42 125 m 181 326 b 382 111 181 208 250 111 b 583 326 514 111 583 208 b 382 542 583 444 514 542 b 181 326 250 542 181 444 m 289 993 l 463 729 l 326 729 l 189 921 "},"ó":{"ha":764,"x_min":0,"x_max":0,"o":"m 42 326 b 382 667 42 528 201 667 b 722 326 563 667 722 528 b 382 -14 722 125 563 -14 b 42 326 201 -14 42 125 m 181 326 b 382 111 181 208 250 111 b 583 326 514 111 583 208 b 382 542 583 444 514 542 b 181 326 250 542 181 444 m 588 921 l 450 729 l 314 729 l 488 993 "},"ô":{"ha":764,"x_min":0,"x_max":0,"o":"m 42 326 b 382 667 42 528 201 667 b 722 326 563 667 722 528 b 382 -14 722 125 563 -14 b 42 326 201 -14 42 125 m 181 326 b 382 111 181 208 250 111 b 583 326 514 111 583 208 b 382 542 583 444 514 542 b 181 326 250 542 181 444 m 575 804 l 493 729 l 379 863 l 265 729 l 183 804 l 310 951 l 449 951 "},"õ":{"ha":764,"x_min":0,"x_max":0,"o":"m 42 326 b 382 667 42 528 201 667 b 722 326 563 667 722 528 b 382 -14 722 125 563 -14 b 42 326 201 -14 42 125 m 181 326 b 382 111 181 208 250 111 b 583 326 514 111 583 208 b 382 542 583 444 514 542 b 181 326 250 542 181 444 m 456 903 b 581 736 546 903 592 844 l 478 736 b 450 790 481 772 475 790 b 299 731 415 790 375 731 b 178 868 217 731 172 785 l 281 901 b 310 844 279 865 282 844 b 456 903 351 844 386 903 "},"ö":{"ha":764,"x_min":0,"x_max":0,"o":"m 42 326 b 382 667 42 528 201 667 b 722 326 563 667 722 528 b 382 -14 722 125 563 -14 b 42 326 201 -14 42 125 m 181 326 b 382 111 181 208 250 111 b 583 326 514 111 583 208 b 382 542 583 444 514 542 b 181 326 250 542 181 444 m 194 924 l 332 924 l 332 771 l 194 771 m 431 924 l 569 924 l 569 771 l 431 771 "},"ō":{"ha":764,"x_min":0,"x_max":0,"o":"m 42 326 b 382 667 42 528 201 667 b 722 326 563 667 722 528 b 382 -14 722 125 563 -14 b 42 326 201 -14 42 125 m 181 326 b 382 111 181 208 250 111 b 583 326 514 111 583 208 b 382 542 583 444 514 542 b 181 326 250 542 181 444 m 194 861 l 569 861 l 569 757 l 194 757 "},"ŏ":{"ha":764,"x_min":0,"x_max":0,"o":"m 42 326 b 382 667 42 528 201 667 b 722 326 563 667 722 528 b 382 -14 722 125 563 -14 b 42 326 201 -14 42 125 m 181 326 b 382 111 181 208 250 111 b 583 326 514 111 583 208 b 382 542 583 444 514 542 b 181 326 250 542 181 444 m 382 726 b 194 893 264 726 194 810 l 194 901 l 307 901 l 307 899 b 382 828 307 864 332 828 b 457 899 432 828 457 864 l 457 901 l 569 901 l 569 893 b 382 726 569 810 500 726 "},"ő":{"ha":764,"x_min":0,"x_max":0,"o":"m 42 326 b 382 667 42 528 201 667 b 722 326 563 667 722 528 b 382 -14 722 125 563 -14 b 42 326 201 -14 42 125 m 181 326 b 382 111 181 208 250 111 b 583 326 514 111 583 208 b 382 542 583 444 514 542 b 181 326 250 542 181 444 m 460 913 l 356 715 l 226 715 l 347 967 m 675 894 l 551 715 l 417 715 l 578 964 "},"ø":{"ha":764,"x_min":0,"x_max":0,"o":"m 764 653 l 653 533 b 722 326 696 478 722 407 b 382 -14 722 125 556 -14 b 193 43 315 -14 249 7 l 153 0 l 0 0 l 111 118 b 42 326 68 174 42 246 b 382 667 42 528 208 667 b 569 608 449 667 514 646 l 611 653 m 382 108 b 586 326 514 108 586 208 b 561 436 586 367 578 404 l 278 133 b 382 108 307 118 342 108 m 178 326 b 201 215 178 286 186 249 l 485 518 b 382 544 457 535 422 544 b 178 326 250 544 178 444 "},"ǿ":{"ha":764,"x_min":0,"x_max":0,"o":"m 611 653 l 569 608 b 382 667 514 646 449 667 b 42 326 208 667 42 528 b 111 118 42 246 68 174 l 0 0 l 153 0 l 193 43 b 382 -14 249 7 315 -14 b 722 326 556 -14 722 125 b 653 533 722 407 696 478 l 764 653 m 382 108 b 278 133 342 108 307 118 l 561 436 b 586 326 578 404 586 367 b 382 108 586 208 514 108 m 178 326 b 382 544 178 444 250 544 b 485 518 422 544 457 535 l 201 215 b 178 326 186 249 178 286 m 586 921 l 449 729 l 313 729 l 486 993 "},"ŕ":{"ha":472,"x_min":0,"x_max":0,"o":"m 83 0 l 222 0 l 222 381 b 375 528 225 461 293 528 l 458 528 l 458 653 b 389 667 431 667 417 667 b 236 583 333 667 278 639 l 229 576 l 222 583 l 208 653 l 83 653 m 474 921 l 336 729 l 200 729 l 374 993 "},"ŗ":{"ha":472,"x_min":0,"x_max":0,"o":"m 83 653 l 208 653 l 222 583 l 229 576 l 236 583 b 389 667 278 639 333 667 b 458 653 417 667 431 667 l 458 528 l 375 528 b 222 381 293 528 225 461 l 222 0 l 83 0 m 135 -319 l 15 -281 l 89 -57 l 222 -57 "},"ř":{"ha":472,"x_min":0,"x_max":0,"o":"m 83 653 l 208 653 l 222 583 l 229 576 l 236 583 b 389 667 278 639 333 667 b 458 653 417 667 431 667 l 458 528 l 375 528 b 222 381 293 528 225 461 l 222 0 l 83 0 m 342 729 l 203 729 l 76 876 l 158 951 l 272 818 l 386 951 l 468 876 "},"ś":{"ha":563,"x_min":0,"x_max":0,"o":"m 285 -14 b 28 181 153 -14 56 63 l 153 229 b 285 108 160 160 215 108 b 389 188 354 108 389 146 b 306 258 389 228 361 249 b 236 274 282 263 258 268 b 49 472 125 301 49 368 b 278 667 49 597 167 667 b 514 472 396 667 500 590 l 375 472 b 278 544 375 514 333 544 b 181 472 222 544 181 514 b 264 397 181 431 214 407 l 333 383 b 521 188 442 360 521 299 b 285 -14 521 76 417 -14 m 476 921 l 339 729 l 203 729 l 376 993 "},"ŝ":{"ha":563,"x_min":0,"x_max":0,"o":"m 285 -14 b 28 181 153 -14 56 63 l 153 229 b 285 108 160 160 215 108 b 389 188 354 108 389 146 b 306 258 389 228 361 249 b 236 274 282 263 258 268 b 49 472 125 301 49 368 b 278 667 49 597 167 667 b 514 472 396 667 500 590 l 375 472 b 278 544 375 514 333 544 b 181 472 222 544 181 514 b 264 397 181 431 214 407 l 333 383 b 521 188 442 360 521 299 b 285 -14 521 76 417 -14 m 479 804 l 397 729 l 283 863 l 169 729 l 88 804 l 214 951 l 353 951 "},"š":{"ha":563,"x_min":0,"x_max":0,"o":"m 285 -14 b 28 181 153 -14 56 63 l 153 229 b 285 108 160 160 215 108 b 389 188 354 108 389 146 b 306 258 389 228 361 249 b 236 274 282 263 258 268 b 49 472 125 301 49 368 b 278 667 49 597 167 667 b 514 472 396 667 500 590 l 375 472 b 278 544 375 514 333 544 b 181 472 222 544 181 514 b 264 397 181 431 214 407 l 333 383 b 521 188 442 360 521 299 b 285 -14 521 76 417 -14 m 347 729 l 208 729 l 82 876 l 164 951 l 278 818 l 392 951 l 474 876 "},"ş":{"ha":563,"x_min":0,"x_max":0,"o":"m 175 -156 b 253 -187 175 -156 208 -187 b 301 -153 283 -187 301 -174 b 253 -118 301 -131 282 -118 l 221 -118 l 221 -7 b 28 181 121 13 50 82 l 153 229 b 285 108 160 160 215 108 b 389 188 354 108 389 146 b 306 258 389 228 361 249 b 236 274 282 263 258 268 b 49 472 125 301 49 368 b 278 667 49 597 167 667 b 514 472 396 667 500 590 l 375 472 b 278 544 375 514 333 544 b 181 472 222 544 181 514 b 264 397 181 431 214 407 l 333 383 b 521 188 442 360 521 299 b 324 -11 521 88 436 4 l 324 -32 b 422 -153 367 -39 422 -81 b 250 -299 422 -239 353 -299 b 118 -251 188 -299 140 -269 "},"ș":{"ha":563,"x_min":0,"x_max":0,"o":"m 285 -14 b 28 181 153 -14 56 63 l 153 229 b 285 108 160 160 215 108 b 389 188 354 108 389 146 b 306 258 389 228 361 249 b 236 274 282 263 258 268 b 49 472 125 301 49 368 b 278 667 49 597 167 667 b 514 472 396 667 500 590 l 375 472 b 278 544 375 514 333 544 b 181 472 222 544 181 514 b 264 397 181 431 214 407 l 333 383 b 521 188 442 360 521 299 b 285 -14 521 76 417 -14 m 279 -319 l 160 -281 l 233 -57 l 367 -57 "},"ť":{"ha":519,"x_min":0,"x_max":0,"o":"m 14 653 l 140 653 l 140 792 l 250 931 l 276 931 l 276 653 l 417 653 l 417 528 l 276 528 l 276 194 b 347 125 276 153 306 125 l 431 139 l 431 14 l 354 0 b 140 194 215 0 140 69 l 140 528 l 14 528 m 447 763 l 332 800 l 413 1056 l 542 1056 "},"ț":{"ha":472,"x_min":0,"x_max":0,"o":"m 14 653 l 140 653 l 140 792 l 250 931 l 276 931 l 276 653 l 417 653 l 417 528 l 276 528 l 276 194 b 347 125 276 153 306 125 l 431 139 l 431 14 l 354 0 b 140 194 215 0 140 69 l 140 528 l 14 528 m 282 -319 l 163 -281 l 236 -57 l 369 -57 "},"ţ":{"ha":472,"x_min":0,"x_max":0,"o":"m 206 -156 b 283 -187 206 -156 239 -187 b 332 -153 314 -187 332 -174 b 283 -118 332 -131 313 -118 l 251 -118 l 251 15 b 140 194 178 43 140 104 l 140 528 l 14 528 l 14 653 l 140 653 l 140 792 l 250 931 l 276 931 l 276 653 l 417 653 l 417 528 l 276 528 l 276 194 b 347 125 276 153 306 125 l 431 139 l 431 14 l 354 0 l 354 -32 b 453 -153 397 -39 453 -81 b 281 -299 453 -239 383 -299 b 149 -251 218 -299 171 -269 "},"ŧ":{"ha":472,"x_min":0,"x_max":0,"o":"m 14 653 l 140 653 l 140 792 l 250 931 l 276 931 l 276 653 l 417 653 l 417 528 l 276 528 l 276 431 l 417 431 l 417 306 l 276 306 l 276 194 b 347 125 276 153 306 125 l 431 139 l 431 14 l 354 0 b 140 194 215 0 140 69 l 140 306 l 14 306 l 14 431 l 140 431 l 140 528 l 14 528 "},"ù":{"ha":722,"x_min":0,"x_max":0,"o":"m 639 653 l 500 653 l 500 257 b 347 111 496 176 428 111 b 208 250 254 111 211 161 l 208 653 l 69 653 l 69 250 b 333 -14 69 97 167 -14 b 486 56 389 -14 458 14 l 493 63 l 500 56 l 514 0 l 639 0 m 268 993 l 442 729 l 306 729 l 168 921 "},"ú":{"ha":722,"x_min":0,"x_max":0,"o":"m 639 653 l 500 653 l 500 257 b 347 111 496 176 428 111 b 208 250 254 111 211 161 l 208 653 l 69 653 l 69 250 b 333 -14 69 97 167 -14 b 486 56 389 -14 458 14 l 493 63 l 500 56 l 514 0 l 639 0 m 553 921 l 415 729 l 279 729 l 453 993 "},"û":{"ha":722,"x_min":0,"x_max":0,"o":"m 639 0 l 514 0 l 500 56 l 493 63 l 486 56 b 333 -14 458 14 389 -14 b 69 250 167 -14 69 97 l 69 653 l 208 653 l 208 250 b 347 111 211 161 254 111 b 500 257 428 111 496 176 l 500 653 l 639 653 m 549 804 l 467 729 l 353 863 l 239 729 l 157 804 l 283 951 l 422 951 "},"ũ":{"ha":722,"x_min":0,"x_max":0,"o":"m 639 653 l 500 653 l 500 257 b 347 111 496 176 428 111 b 208 250 254 111 211 161 l 208 653 l 69 653 l 69 250 b 333 -14 69 97 167 -14 b 486 56 389 -14 458 14 l 493 63 l 500 56 l 514 0 l 639 0 m 442 903 b 567 736 532 903 578 844 l 464 736 b 436 790 467 772 461 790 b 285 731 401 790 361 731 b 164 868 203 731 158 785 l 267 901 b 296 844 265 865 268 844 b 442 903 338 844 372 903 "},"ü":{"ha":722,"x_min":0,"x_max":0,"o":"m 639 653 l 500 653 l 500 257 b 347 111 496 176 428 111 b 208 250 254 111 211 161 l 208 653 l 69 653 l 69 250 b 333 -14 69 97 167 -14 b 486 56 389 -14 458 14 l 493 63 l 500 56 l 514 0 l 639 0 m 168 924 l 306 924 l 306 771 l 168 771 m 404 924 l 543 924 l 543 771 l 404 771 "},"ū":{"ha":722,"x_min":0,"x_max":0,"o":"m 639 653 l 500 653 l 500 257 b 347 111 496 176 428 111 b 208 250 254 111 211 161 l 208 653 l 69 653 l 69 250 b 333 -14 69 97 167 -14 b 486 56 389 -14 458 14 l 493 63 l 500 56 l 514 0 l 639 0 m 167 861 l 542 861 l 542 757 l 167 757 "},"ŭ":{"ha":722,"x_min":0,"x_max":0,"o":"m 639 653 l 500 653 l 500 257 b 347 111 496 176 428 111 b 208 250 254 111 211 161 l 208 653 l 69 653 l 69 250 b 333 -14 69 97 167 -14 b 486 56 389 -14 458 14 l 493 63 l 500 56 l 514 0 l 639 0 m 358 726 b 171 893 240 726 171 810 l 171 901 l 283 901 l 283 899 b 358 828 283 864 308 828 b 433 899 408 828 433 864 l 433 901 l 546 901 l 546 893 b 358 726 546 810 476 726 "},"ů":{"ha":722,"x_min":0,"x_max":0,"o":"m 639 0 l 514 0 l 500 56 l 493 63 l 486 56 b 333 -14 458 14 389 -14 b 69 250 167 -14 69 97 l 69 653 l 208 653 l 208 250 b 347 111 211 161 254 111 b 500 257 428 111 496 176 l 500 653 l 639 653 m 203 854 b 356 1003 203 940 272 1003 b 508 854 439 1003 508 940 b 356 706 508 768 439 706 b 203 854 272 706 203 768 m 293 854 b 356 792 293 818 319 792 b 418 854 392 792 418 818 b 356 917 418 890 392 917 b 293 854 319 917 293 890 "},"ű":{"ha":722,"x_min":0,"x_max":0,"o":"m 639 653 l 500 653 l 500 257 b 347 111 496 176 428 111 b 208 250 254 111 211 161 l 208 653 l 69 653 l 69 250 b 333 -14 69 97 167 -14 b 486 56 389 -14 458 14 l 493 63 l 500 56 l 514 0 l 639 0 m 411 913 l 307 715 l 178 715 l 299 967 m 626 894 l 503 715 l 368 715 l 529 964 "},"ų":{"ha":722,"x_min":0,"x_max":0,"o":"m 639 0 l 600 -79 b 593 -111 594 -90 593 -101 b 658 -164 593 -143 624 -164 l 689 -164 l 658 -278 l 651 -278 b 461 -149 538 -278 461 -226 b 528 0 461 -118 468 -82 l 514 0 l 500 56 l 493 63 l 486 56 b 333 -14 458 14 389 -14 b 69 250 167 -14 69 97 l 69 653 l 208 653 l 208 250 b 347 111 211 161 254 111 b 500 257 428 111 496 176 l 500 653 l 639 653 "},"ẁ":{"ha":917,"x_min":0,"x_max":0,"o":"m 264 188 l 151 653 l 14 653 l 194 0 l 326 0 l 458 376 l 590 0 l 722 0 l 903 653 l 765 653 l 653 188 l 528 556 l 389 556 m 353 993 l 526 729 l 390 729 l 253 921 "},"ẃ":{"ha":917,"x_min":0,"x_max":0,"o":"m 264 188 l 151 653 l 14 653 l 194 0 l 326 0 l 458 376 l 590 0 l 722 0 l 903 653 l 765 653 l 653 188 l 528 556 l 389 556 m 675 921 l 538 729 l 401 729 l 575 993 "},"ŵ":{"ha":917,"x_min":0,"x_max":0,"o":"m 389 556 l 528 556 l 653 188 l 765 653 l 903 653 l 722 0 l 590 0 l 458 376 l 326 0 l 194 0 l 14 653 l 151 653 l 264 188 m 654 804 l 572 729 l 458 863 l 344 729 l 263 804 l 389 951 l 528 951 "},"ẅ":{"ha":917,"x_min":0,"x_max":0,"o":"m 264 188 l 151 653 l 14 653 l 194 0 l 326 0 l 458 376 l 590 0 l 722 0 l 903 653 l 765 653 l 653 188 l 528 556 l 389 556 m 271 924 l 408 924 l 408 771 l 271 771 m 507 924 l 646 924 l 646 771 l 507 771 "},"ỳ":{"ha":597,"x_min":0,"x_max":0,"o":"m 299 261 l 154 653 l 14 653 l 233 86 l 97 -278 l 236 -278 l 583 653 l 444 653 m 219 993 l 393 729 l 257 729 l 119 921 "},"ý":{"ha":597,"x_min":0,"x_max":0,"o":"m 299 261 l 154 653 l 14 653 l 233 86 l 97 -278 l 236 -278 l 583 653 l 444 653 m 504 921 l 367 729 l 231 729 l 404 993 "},"ŷ":{"ha":597,"x_min":0,"x_max":0,"o":"m 444 653 l 583 653 l 236 -278 l 97 -278 l 233 86 l 14 653 l 154 653 l 299 261 m 494 804 l 413 729 l 299 863 l 185 729 l 103 804 l 229 951 l 368 951 "},"ÿ":{"ha":597,"x_min":0,"x_max":0,"o":"m 299 261 l 154 653 l 14 653 l 233 86 l 97 -278 l 236 -278 l 583 653 l 444 653 m 111 924 l 249 924 l 249 771 l 111 771 m 347 924 l 486 924 l 486 771 l 347 771 "},"ź":{"ha":639,"x_min":0,"x_max":0,"o":"m 63 528 l 424 528 l 56 125 l 56 0 l 576 0 l 576 125 l 211 125 l 583 528 l 583 653 l 63 653 m 525 921 l 388 729 l 251 729 l 425 993 "},"ž":{"ha":639,"x_min":0,"x_max":0,"o":"m 63 653 l 583 653 l 583 528 l 211 125 l 576 125 l 576 0 l 56 0 l 56 125 l 424 528 l 63 528 m 417 729 l 278 729 l 151 876 l 233 951 l 347 818 l 461 951 l 543 876 "},"ż":{"ha":639,"x_min":0,"x_max":0,"o":"m 63 528 l 424 528 l 56 125 l 56 0 l 576 0 l 576 125 l 211 125 l 583 528 l 583 653 l 63 653 m 274 910 l 413 910 l 413 757 l 274 757 "},"À":{"ha":903,"x_min":0,"x_max":0,"o":"m 375 1014 l 528 1014 l 875 0 l 729 0 l 639 264 l 263 264 l 174 0 l 28 0 m 310 403 l 592 403 l 451 819 m 329 1319 l 529 1090 l 369 1090 l 236 1232 "},"Á":{"ha":903,"x_min":0,"x_max":0,"o":"m 28 0 l 174 0 l 263 264 l 639 264 l 729 0 l 875 0 l 528 1014 l 375 1014 m 451 819 l 592 403 l 310 403 m 678 1232 l 544 1090 l 385 1090 l 585 1319 "},"Â":{"ha":903,"x_min":0,"x_max":0,"o":"m 375 1014 l 528 1014 l 875 0 l 729 0 l 639 264 l 263 264 l 174 0 l 28 0 m 310 403 l 592 403 l 451 819 m 657 1179 l 569 1090 l 451 1204 l 333 1090 l 246 1179 l 390 1315 l 513 1315 "},"Ã":{"ha":903,"x_min":0,"x_max":0,"o":"m 28 0 l 174 0 l 263 264 l 639 264 l 729 0 l 875 0 l 528 1014 l 375 1014 m 451 819 l 592 403 l 310 403 m 547 1279 b 682 1104 638 1279 693 1215 l 568 1104 b 539 1158 572 1132 567 1158 b 372 1104 504 1158 449 1104 b 244 1250 289 1104 238 1157 l 360 1281 b 390 1226 356 1246 367 1226 b 547 1279 432 1226 478 1279 "},"Ä":{"ha":903,"x_min":0,"x_max":0,"o":"m 28 0 l 174 0 l 263 264 l 639 264 l 729 0 l 875 0 l 528 1014 l 375 1014 m 451 819 l 592 403 l 310 403 m 257 1260 l 408 1260 l 408 1107 l 257 1107 m 493 1260 l 646 1260 l 646 1107 l 493 1107 "},"Ā":{"ha":903,"x_min":0,"x_max":0,"o":"m 28 0 l 174 0 l 263 264 l 639 264 l 729 0 l 875 0 l 528 1014 l 375 1014 m 451 819 l 592 403 l 310 403 m 264 1243 l 639 1243 l 639 1132 l 264 1132 "},"Ă":{"ha":903,"x_min":0,"x_max":0,"o":"m 28 0 l 174 0 l 263 264 l 639 264 l 729 0 l 875 0 l 528 1014 l 375 1014 m 451 819 l 592 403 l 310 403 m 451 1090 b 264 1261 326 1090 264 1182 l 264 1271 l 382 1271 l 382 1269 b 451 1200 382 1239 401 1200 b 521 1269 501 1200 521 1239 l 521 1271 l 639 1271 l 639 1261 b 451 1090 639 1182 576 1090 "},"Å":{"ha":903,"x_min":0,"x_max":0,"o":"m 375 1014 l 528 1014 l 875 0 l 729 0 l 639 264 l 263 264 l 174 0 l 28 0 m 310 403 l 592 403 l 451 819 m 297 1211 b 451 1363 297 1300 367 1363 b 606 1211 536 1363 606 1300 b 451 1060 606 1122 536 1060 b 297 1211 367 1060 297 1122 m 392 1211 b 451 1151 392 1176 417 1151 b 511 1211 486 1151 511 1176 b 451 1271 511 1246 486 1271 b 392 1211 417 1271 392 1246 "},"Ǻ":{"ha":903,"x_min":0,"x_max":0,"o":"m 636 1528 l 532 1386 l 396 1386 l 536 1600 m 28 0 l 174 0 l 263 264 l 639 264 l 729 0 l 875 0 l 528 1014 l 375 1014 m 451 819 l 592 403 l 310 403 m 299 1201 b 451 1053 299 1115 368 1053 b 604 1201 535 1053 604 1115 b 451 1350 604 1288 535 1350 b 299 1201 368 1350 299 1288 m 389 1201 b 451 1264 389 1238 415 1264 b 514 1201 488 1264 514 1238 b 451 1139 514 1165 488 1139 b 389 1201 415 1139 389 1165 "},"Ą":{"ha":903,"x_min":0,"x_max":0,"o":"m 875 0 l 836 -79 b 829 -111 831 -90 829 -101 b 894 -164 829 -143 860 -164 l 925 -164 l 894 -278 l 888 -278 b 697 -149 774 -278 697 -226 b 764 0 697 -118 704 -82 l 729 0 l 639 264 l 263 264 l 174 0 l 28 0 l 375 1014 l 528 1014 m 310 403 l 592 403 l 451 819 "},"Ǽ":{"ha":1111,"x_min":0,"x_max":0,"o":"m 28 0 l 174 0 l 254 278 l 564 278 l 646 0 l 1042 0 l 1042 139 l 750 139 l 657 444 l 1028 444 l 1028 583 l 615 583 l 528 875 l 1042 875 l 1042 1014 l 333 1014 m 410 806 l 524 417 l 296 417 m 869 1232 l 736 1090 l 576 1090 l 776 1319 "},"Ć":{"ha":1028,"x_min":0,"x_max":0,"o":"m 56 506 b 576 1042 56 804 278 1042 b 979 847 729 1042 882 972 l 882 750 b 583 904 813 847 715 904 b 203 507 347 904 203 731 b 590 110 203 283 347 110 b 889 264 722 110 819 167 l 986 167 b 583 -28 889 42 736 -28 b 56 506 278 -28 56 208 m 800 1232 l 667 1090 l 507 1090 l 707 1319 "},"Ĉ":{"ha":1028,"x_min":0,"x_max":0,"o":"m 56 506 b 576 1042 56 804 278 1042 b 979 847 729 1042 882 972 l 882 750 b 583 904 813 847 715 904 b 203 507 347 904 203 731 b 590 110 203 283 347 110 b 889 264 722 110 819 167 l 986 167 b 583 -28 889 42 736 -28 b 56 506 278 -28 56 208 m 789 1179 l 701 1090 l 583 1204 l 465 1090 l 378 1179 l 522 1315 l 644 1315 "},"Č":{"ha":1028,"x_min":0,"x_max":0,"o":"m 56 506 b 576 1042 56 804 278 1042 b 979 847 729 1042 882 972 l 882 750 b 583 904 813 847 715 904 b 203 507 347 904 203 731 b 590 110 203 283 347 110 b 889 264 722 110 819 167 l 986 167 b 583 -28 889 42 736 -28 b 56 506 278 -28 56 208 m 631 1090 l 508 1090 l 364 1226 l 451 1315 l 569 1201 l 688 1315 l 775 1226 "},"Ċ":{"ha":1028,"x_min":0,"x_max":0,"o":"m 56 506 b 576 1042 56 804 278 1042 b 979 847 729 1042 882 972 l 882 750 b 583 904 813 847 715 904 b 203 507 347 904 203 731 b 590 110 203 283 347 110 b 889 264 722 110 819 167 l 986 167 b 583 -28 889 42 736 -28 b 56 506 278 -28 56 208 m 500 1260 l 653 1260 l 653 1107 l 500 1107 "},"Ç":{"ha":1028,"x_min":0,"x_max":0,"o":"m 478 -176 b 556 -208 478 -176 511 -208 b 604 -174 586 -208 604 -194 b 556 -139 604 -151 585 -139 l 524 -139 l 524 -24 b 56 506 249 4 56 228 b 576 1042 56 804 278 1042 b 979 847 729 1042 882 972 l 882 750 b 583 904 813 847 715 904 b 203 507 347 904 203 731 b 590 110 203 283 347 110 b 889 264 722 110 819 167 l 986 167 b 626 -25 897 53 764 -14 l 626 -53 b 725 -174 669 -60 725 -101 b 553 -319 725 -260 656 -319 b 421 -272 490 -319 443 -290 "},"Ď":{"ha":917,"x_min":0,"x_max":0,"o":"m 111 1014 l 340 1014 b 861 507 639 1014 861 806 b 340 0 861 208 639 0 l 111 0 m 257 875 l 257 139 l 347 139 b 715 507 576 139 715 278 b 347 875 715 736 576 875 m 464 1090 l 342 1090 l 197 1226 l 285 1315 l 403 1201 l 521 1315 l 608 1226 "},"Đ":{"ha":917,"x_min":0,"x_max":0,"o":"m 14 569 l 139 569 l 139 1014 l 340 1014 b 861 507 639 1014 861 806 b 340 0 861 208 639 0 l 139 0 l 139 444 l 14 444 m 285 875 l 285 569 l 431 569 l 431 444 l 285 444 l 285 139 l 347 139 b 715 507 576 139 715 278 b 347 875 715 736 576 875 "},"È":{"ha":792,"x_min":0,"x_max":0,"o":"m 111 1014 l 722 1014 l 722 875 l 257 875 l 257 583 l 708 583 l 708 444 l 257 444 l 257 139 l 722 139 l 722 0 l 111 0 m 299 1319 l 499 1090 l 339 1090 l 206 1232 "},"É":{"ha":792,"x_min":0,"x_max":0,"o":"m 111 0 l 722 0 l 722 139 l 257 139 l 257 444 l 708 444 l 708 583 l 257 583 l 257 875 l 722 875 l 722 1014 l 111 1014 m 626 1232 l 493 1090 l 333 1090 l 533 1319 "},"Ê":{"ha":792,"x_min":0,"x_max":0,"o":"m 111 1014 l 722 1014 l 722 875 l 257 875 l 257 583 l 708 583 l 708 444 l 257 444 l 257 139 l 722 139 l 722 0 l 111 0 m 631 1179 l 543 1090 l 425 1204 l 307 1090 l 219 1179 l 364 1315 l 486 1315 "},"Ě":{"ha":792,"x_min":0,"x_max":0,"o":"m 111 1014 l 722 1014 l 722 875 l 257 875 l 257 583 l 708 583 l 708 444 l 257 444 l 257 139 l 722 139 l 722 0 l 111 0 m 476 1090 l 354 1090 l 210 1226 l 297 1315 l 415 1201 l 533 1315 l 621 1226 "},"Ë":{"ha":792,"x_min":0,"x_max":0,"o":"m 111 0 l 722 0 l 722 139 l 257 139 l 257 444 l 708 444 l 708 583 l 257 583 l 257 875 l 722 875 l 722 1014 l 111 1014 m 222 1260 l 374 1260 l 374 1107 l 222 1107 m 458 1260 l 611 1260 l 611 1107 l 458 1107 "},"Ē":{"ha":792,"x_min":0,"x_max":0,"o":"m 111 0 l 722 0 l 722 139 l 257 139 l 257 444 l 708 444 l 708 583 l 257 583 l 257 875 l 722 875 l 722 1014 l 111 1014 m 231 1243 l 606 1243 l 606 1132 l 231 1132 "},"Ĕ":{"ha":792,"x_min":0,"x_max":0,"o":"m 111 0 l 722 0 l 722 139 l 257 139 l 257 444 l 708 444 l 708 583 l 257 583 l 257 875 l 722 875 l 722 1014 l 111 1014 m 419 1090 b 232 1261 294 1090 232 1182 l 232 1271 l 350 1271 l 350 1269 b 419 1200 350 1239 369 1200 b 489 1269 469 1200 489 1239 l 489 1271 l 607 1271 l 607 1261 b 419 1090 607 1182 544 1090 "},"Ė":{"ha":792,"x_min":0,"x_max":0,"o":"m 111 0 l 722 0 l 722 139 l 257 139 l 257 444 l 708 444 l 708 583 l 257 583 l 257 875 l 722 875 l 722 1014 l 111 1014 m 343 1260 l 496 1260 l 496 1107 l 343 1107 "},"Ę":{"ha":792,"x_min":0,"x_max":0,"o":"m 672 0 l 633 -79 b 626 -111 628 -90 626 -101 b 692 -164 626 -143 657 -164 l 722 -164 l 692 -278 l 685 -278 b 494 -149 571 -278 494 -226 b 561 0 494 -118 501 -82 l 111 0 l 111 1014 l 722 1014 l 722 875 l 257 875 l 257 583 l 708 583 l 708 444 l 257 444 l 257 139 l 722 139 l 722 0 "},"Ĝ":{"ha":1118,"x_min":0,"x_max":0,"o":"m 888 749 b 576 903 821 844 713 903 b 203 506 347 903 203 736 b 576 111 203 278 347 111 b 947 431 779 111 933 243 l 431 431 l 431 569 l 958 569 l 1090 438 b 576 -28 1076 188 854 -28 b 56 507 278 -28 56 208 b 583 1042 56 806 278 1042 b 988 849 750 1042 890 967 m 779 1179 l 692 1090 l 574 1204 l 456 1090 l 368 1179 l 513 1315 l 635 1315 "},"Ğ":{"ha":1118,"x_min":0,"x_max":0,"o":"m 988 849 b 583 1042 890 967 750 1042 b 56 507 278 1042 56 806 b 576 -28 56 208 278 -28 b 1090 438 854 -28 1076 188 l 958 569 l 431 569 l 431 431 l 947 431 b 576 111 933 243 779 111 b 203 506 347 111 203 278 b 576 903 203 736 347 903 b 888 749 713 903 821 844 m 582 1090 b 394 1261 457 1090 394 1182 l 394 1271 l 513 1271 l 513 1269 b 582 1200 513 1239 532 1200 b 651 1269 632 1200 651 1239 l 651 1271 l 769 1271 l 769 1261 b 582 1090 769 1182 707 1090 "},"Ġ":{"ha":1118,"x_min":0,"x_max":0,"o":"m 988 849 b 583 1042 890 967 750 1042 b 56 507 278 1042 56 806 b 576 -28 56 208 278 -28 b 1090 438 854 -28 1076 188 l 958 569 l 431 569 l 431 431 l 947 431 b 576 111 933 243 779 111 b 203 506 347 111 203 278 b 576 903 203 736 347 903 b 888 749 713 903 821 844 m 508 1260 l 661 1260 l 661 1107 l 508 1107 "},"Ģ":{"ha":1118,"x_min":0,"x_max":0,"o":"m 888 749 b 576 903 821 844 713 903 b 203 506 347 903 203 736 b 576 111 203 278 347 111 b 947 431 779 111 933 243 l 431 431 l 431 569 l 958 569 l 1090 438 b 576 -28 1076 188 854 -28 b 56 507 278 -28 56 208 b 583 1042 56 806 278 1042 b 988 849 750 1042 890 967 m 564 -333 l 444 -294 l 518 -71 l 651 -71 "},"Ĥ":{"ha":903,"x_min":0,"x_max":0,"o":"m 646 1014 l 792 1014 l 792 0 l 646 0 l 646 444 l 257 444 l 257 0 l 111 0 l 111 1014 l 257 1014 l 257 583 l 646 583 m 657 1179 l 569 1090 l 451 1204 l 333 1090 l 246 1179 l 390 1315 l 513 1315 "},"Ħ":{"ha":903,"x_min":0,"x_max":0,"o":"m 35 861 l 111 861 l 111 1014 l 257 1014 l 257 861 l 646 861 l 646 1014 l 792 1014 l 792 861 l 868 861 l 868 722 l 792 722 l 792 0 l 646 0 l 646 444 l 257 444 l 257 0 l 111 0 l 111 722 l 35 722 m 646 583 l 646 722 l 257 722 l 257 583 "},"Ì":{"ha":403,"x_min":0,"x_max":0,"o":"m 104 139 l 128 139 l 128 875 l 104 875 l 104 1014 l 299 1014 l 299 875 l 275 875 l 275 139 l 299 139 l 299 0 l 104 0 m 82 1319 l 282 1090 l 122 1090 l -11 1232 "},"Í":{"ha":403,"x_min":0,"x_max":0,"o":"m 104 0 l 299 0 l 299 139 l 275 139 l 275 875 l 299 875 l 299 1014 l 104 1014 l 104 875 l 128 875 l 128 139 l 104 139 m 414 1232 l 281 1090 l 121 1090 l 321 1319 "},"Î":{"ha":403,"x_min":0,"x_max":0,"o":"m 104 139 l 128 139 l 128 875 l 104 875 l 104 1014 l 299 1014 l 299 875 l 275 875 l 275 139 l 299 139 l 299 0 l 104 0 m 407 1179 l 319 1090 l 201 1204 l 83 1090 l -4 1179 l 140 1315 l 263 1315 "},"Ĩ":{"ha":403,"x_min":0,"x_max":0,"o":"m 104 0 l 299 0 l 299 139 l 275 139 l 275 875 l 299 875 l 299 1014 l 104 1014 l 104 875 l 128 875 l 128 139 l 104 139 m 289 1279 b 424 1104 379 1279 435 1215 l 310 1104 b 281 1158 314 1132 308 1158 b 114 1104 246 1158 190 1104 b -14 1250 31 1104 -21 1157 l 101 1281 b 132 1226 97 1246 108 1226 b 289 1279 174 1226 219 1279 "},"Ï":{"ha":403,"x_min":0,"x_max":0,"o":"m 104 0 l 299 0 l 299 139 l 275 139 l 275 875 l 299 875 l 299 1014 l 104 1014 l 104 875 l 128 875 l 128 139 l 104 139 m 7 1260 l 158 1260 l 158 1107 l 7 1107 m 243 1260 l 396 1260 l 396 1107 l 243 1107 "},"Ī":{"ha":403,"x_min":0,"x_max":0,"o":"m 104 0 l 299 0 l 299 139 l 275 139 l 275 875 l 299 875 l 299 1014 l 104 1014 l 104 875 l 128 875 l 128 139 l 104 139 m 14 1243 l 389 1243 l 389 1132 l 14 1132 "},"Ĭ":{"ha":403,"x_min":0,"x_max":0,"o":"m 104 0 l 299 0 l 299 139 l 275 139 l 275 875 l 299 875 l 299 1014 l 104 1014 l 104 875 l 128 875 l 128 139 l 104 139 m 201 1090 b 14 1261 76 1090 14 1182 l 14 1271 l 132 1271 l 132 1269 b 201 1200 132 1239 151 1200 b 271 1269 251 1200 271 1239 l 271 1271 l 389 1271 l 389 1261 b 201 1090 389 1182 326 1090 "},"İ":{"ha":403,"x_min":0,"x_max":0,"o":"m 104 0 l 299 0 l 299 139 l 275 139 l 275 875 l 299 875 l 299 1014 l 104 1014 l 104 875 l 128 875 l 128 139 l 104 139 m 125 1260 l 278 1260 l 278 1107 l 125 1107 "},"Į":{"ha":403,"x_min":0,"x_max":0,"o":"m 256 0 l 217 -79 b 210 -111 211 -90 210 -101 b 275 -164 210 -143 240 -164 l 306 -164 l 275 -278 l 268 -278 b 78 -149 154 -278 78 -226 b 144 0 78 -118 85 -82 l 104 0 l 104 139 l 128 139 l 128 875 l 104 875 l 104 1014 l 299 1014 l 299 875 l 275 875 l 275 139 l 299 139 l 299 0 "},"Ĵ":{"ha":389,"x_min":0,"x_max":0,"o":"m 42 -125 l 42 0 l 69 0 b 132 56 106 0 132 21 l 132 1014 l 278 1014 l 278 69 b 69 -139 278 -56 194 -139 m 408 1179 l 321 1090 l 203 1204 l 85 1090 l -3 1179 l 142 1315 l 264 1315 "},"Ķ":{"ha":819,"x_min":0,"x_max":0,"o":"m 806 1014 l 368 515 l 819 0 l 633 0 l 257 431 l 257 0 l 111 0 l 111 1014 l 257 1014 l 257 597 l 632 1014 m 414 -319 l 294 -281 l 368 -57 l 501 -57 "},"Ĺ":{"ha":736,"x_min":0,"x_max":0,"o":"m 111 0 l 681 0 l 681 139 l 257 139 l 257 1014 l 111 1014 m 404 1232 l 271 1090 l 111 1090 l 311 1319 "},"Ľ":{"ha":736,"x_min":0,"x_max":0,"o":"m 111 0 l 681 0 l 681 139 l 257 139 l 257 1014 l 111 1014 m 444 790 l 329 828 l 410 1083 l 539 1083 "},"Ļ":{"ha":736,"x_min":0,"x_max":0,"o":"m 111 1014 l 257 1014 l 257 139 l 681 139 l 681 0 l 111 0 m 386 -319 l 267 -281 l 340 -57 l 474 -57 "},"Ŀ":{"ha":736,"x_min":0,"x_max":0,"o":"m 111 1014 l 257 1014 l 257 139 l 681 139 l 681 0 l 111 0 m 376 514 l 543 514 l 543 333 l 376 333 "},"Ł":{"ha":736,"x_min":0,"x_max":0,"o":"m 42 389 l 111 426 l 111 1014 l 257 1014 l 257 507 l 472 625 l 472 486 l 257 368 l 257 139 l 681 139 l 681 0 l 111 0 l 111 288 l 42 250 "},"Ń":{"ha":958,"x_min":0,"x_max":0,"o":"m 703 264 l 271 1014 l 111 1014 l 111 0 l 256 0 l 256 764 l 688 0 l 847 0 l 847 1014 l 703 1014 m 696 1232 l 563 1090 l 403 1090 l 603 1319 "},"Ň":{"ha":958,"x_min":0,"x_max":0,"o":"m 703 1014 l 847 1014 l 847 0 l 688 0 l 256 764 l 256 0 l 111 0 l 111 1014 l 271 1014 l 703 264 m 540 1090 l 418 1090 l 274 1226 l 361 1315 l 479 1201 l 597 1315 l 685 1226 "},"Ñ":{"ha":958,"x_min":0,"x_max":0,"o":"m 703 264 l 271 1014 l 111 1014 l 111 0 l 256 0 l 256 764 l 688 0 l 847 0 l 847 1014 l 703 1014 m 575 1279 b 710 1104 665 1279 721 1215 l 596 1104 b 567 1158 600 1132 594 1158 b 400 1104 532 1158 476 1104 b 272 1250 317 1104 265 1157 l 388 1281 b 418 1226 383 1246 394 1226 b 575 1279 460 1226 506 1279 "},"Ņ":{"ha":958,"x_min":0,"x_max":0,"o":"m 703 1014 l 847 1014 l 847 0 l 688 0 l 256 764 l 256 0 l 111 0 l 111 1014 l 271 1014 l 703 264 m 483 -319 l 364 -281 l 438 -57 l 571 -57 "},"Ò":{"ha":1181,"x_min":0,"x_max":0,"o":"m 56 507 b 590 1042 56 803 294 1042 b 1125 507 886 1042 1125 803 b 590 -28 1125 211 886 -28 b 56 507 294 -28 56 211 m 201 506 b 590 111 201 278 361 111 b 978 506 819 111 978 278 b 590 903 978 736 819 903 b 201 506 361 903 201 736 m 479 1319 l 679 1090 l 519 1090 l 386 1232 "},"Ó":{"ha":1181,"x_min":0,"x_max":0,"o":"m 56 507 b 590 -28 56 211 294 -28 b 1125 507 886 -28 1125 211 b 590 1042 1125 803 886 1042 b 56 507 294 1042 56 803 m 201 506 b 590 903 201 736 361 903 b 978 506 819 903 978 736 b 590 111 978 278 819 111 b 201 506 361 111 201 278 m 807 1232 l 674 1090 l 514 1090 l 714 1319 "},"Ô":{"ha":1181,"x_min":0,"x_max":0,"o":"m 56 507 b 590 1042 56 803 294 1042 b 1125 507 886 1042 1125 803 b 590 -28 1125 211 886 -28 b 56 507 294 -28 56 211 m 201 506 b 590 111 201 278 361 111 b 978 506 819 111 978 278 b 590 903 978 736 819 903 b 201 506 361 903 201 736 m 796 1179 l 708 1090 l 590 1204 l 472 1090 l 385 1179 l 529 1315 l 651 1315 "},"Õ":{"ha":1181,"x_min":0,"x_max":0,"o":"m 56 507 b 590 -28 56 211 294 -28 b 1125 507 886 -28 1125 211 b 590 1042 1125 803 886 1042 b 56 507 294 1042 56 803 m 201 506 b 590 903 201 736 361 903 b 978 506 819 903 978 736 b 590 111 978 278 819 111 b 201 506 361 111 201 278 m 686 1279 b 821 1104 776 1279 832 1215 l 707 1104 b 678 1158 711 1132 706 1158 b 511 1104 643 1158 588 1104 b 383 1250 428 1104 376 1157 l 499 1281 b 529 1226 494 1246 506 1226 b 686 1279 571 1226 617 1279 "},"Ö":{"ha":1181,"x_min":0,"x_max":0,"o":"m 56 507 b 590 -28 56 211 294 -28 b 1125 507 886 -28 1125 211 b 590 1042 1125 803 886 1042 b 56 507 294 1042 56 803 m 201 506 b 590 903 201 736 361 903 b 978 506 819 903 978 736 b 590 111 978 278 819 111 b 201 506 361 111 201 278 m 396 1260 l 547 1260 l 547 1107 l 396 1107 m 632 1260 l 785 1260 l 785 1107 l 632 1107 "},"Ō":{"ha":1181,"x_min":0,"x_max":0,"o":"m 56 507 b 590 -28 56 211 294 -28 b 1125 507 886 -28 1125 211 b 590 1042 1125 803 886 1042 b 56 507 294 1042 56 803 m 201 506 b 590 903 201 736 361 903 b 978 506 819 903 978 736 b 590 111 978 278 819 111 b 201 506 361 111 201 278 m 403 1243 l 778 1243 l 778 1132 l 403 1132 "},"Ŏ":{"ha":1181,"x_min":0,"x_max":0,"o":"m 56 507 b 590 -28 56 211 294 -28 b 1125 507 886 -28 1125 211 b 590 1042 1125 803 886 1042 b 56 507 294 1042 56 803 m 201 506 b 590 903 201 736 361 903 b 978 506 819 903 978 736 b 590 111 978 278 819 111 b 201 506 361 111 201 278 m 590 1090 b 403 1261 465 1090 403 1182 l 403 1271 l 521 1271 l 521 1269 b 590 1200 521 1239 540 1200 b 660 1269 640 1200 660 1239 l 660 1271 l 778 1271 l 778 1261 b 590 1090 778 1182 715 1090 "},"Ő":{"ha":1181,"x_min":0,"x_max":0,"o":"m 56 507 b 590 -28 56 211 294 -28 b 1125 507 886 -28 1125 211 b 590 1042 1125 803 886 1042 b 56 507 294 1042 56 803 m 201 506 b 590 903 201 736 361 903 b 978 506 819 903 978 736 b 590 111 978 278 819 111 b 201 506 361 111 201 278 m 660 1253 l 554 1089 l 421 1089 l 551 1318 m 899 1244 l 761 1089 l 618 1089 l 803 1324 "},"Ø":{"ha":1181,"x_min":0,"x_max":0,"o":"m 56 507 b 590 1042 56 803 294 1042 b 917 931 713 1042 826 1000 l 1000 1014 l 1181 1014 l 1008 840 b 1125 507 1082 749 1125 633 b 590 -28 1125 211 886 -28 b 263 83 467 -28 353 14 l 181 0 l 0 0 l 171 174 b 56 507 99 264 56 381 m 201 506 b 269 272 201 417 226 336 l 821 832 b 590 903 758 878 679 903 b 201 506 361 903 201 736 m 590 111 b 978 506 819 111 978 278 b 910 740 978 596 953 675 l 358 181 b 590 111 422 136 500 111 "},"Ǿ":{"ha":1181,"x_min":0,"x_max":0,"o":"m 56 507 b 171 174 56 381 99 264 l 0 0 l 181 0 l 263 83 b 590 -28 353 14 467 -28 b 1125 507 886 -28 1125 211 b 1008 840 1125 633 1082 749 l 1181 1014 l 1000 1014 l 917 931 b 590 1042 826 1000 713 1042 b 56 507 294 1042 56 803 m 201 506 b 590 903 201 736 361 903 b 821 832 679 903 758 878 l 269 272 b 201 506 226 336 201 417 m 590 111 b 358 181 500 111 422 136 l 910 740 b 978 506 953 675 978 596 b 590 111 978 278 819 111 m 807 1232 l 674 1090 l 514 1090 l 714 1319 "},"Ŕ":{"ha":847,"x_min":0,"x_max":0,"o":"m 463 444 b 785 729 629 444 785 556 b 472 1014 785 910 639 1014 l 111 1014 l 111 0 l 257 0 l 257 444 l 285 444 l 640 0 l 806 0 l 806 28 l 463 444 m 257 583 l 257 875 l 479 875 b 639 729 563 875 639 819 b 479 583 639 639 563 583 m 613 1232 l 479 1090 l 319 1090 l 519 1319 "},"Ř":{"ha":847,"x_min":0,"x_max":0,"o":"m 806 28 l 806 0 l 640 0 l 285 444 l 257 444 l 257 0 l 111 0 l 111 1014 l 472 1014 b 785 729 639 1014 785 910 b 463 444 785 556 629 444 m 479 583 b 639 729 563 583 639 639 b 479 875 639 819 563 875 l 257 875 l 257 583 m 471 1090 l 349 1090 l 204 1226 l 292 1315 l 410 1201 l 528 1315 l 615 1226 "},"Ŗ":{"ha":847,"x_min":0,"x_max":0,"o":"m 806 28 l 806 0 l 640 0 l 285 444 l 257 444 l 257 0 l 111 0 l 111 1014 l 472 1014 b 785 729 639 1014 785 910 b 463 444 785 556 629 444 m 479 583 b 639 729 563 583 639 639 b 479 875 639 819 563 875 l 257 875 l 257 583 m 428 -319 l 308 -281 l 382 -57 l 515 -57 "},"Ś":{"ha":819,"x_min":0,"x_max":0,"o":"m 569 750 b 396 903 569 833 493 903 b 229 757 293 903 229 840 b 389 597 229 681 278 626 b 500 571 426 588 464 579 b 750 278 639 538 750 451 b 410 -25 750 125 625 -25 b 56 278 221 -25 58 122 l 201 333 b 410 115 199 196 306 115 b 604 278 528 115 604 181 b 444 431 604 382 514 417 b 333 460 411 438 368 449 b 83 764 201 500 83 590 b 396 1039 83 924 221 1039 b 722 750 576 1039 722 917 m 613 1232 l 479 1090 l 319 1090 l 519 1319 "},"Ŝ":{"ha":819,"x_min":0,"x_max":0,"o":"m 569 750 b 396 903 569 833 493 903 b 229 757 293 903 229 840 b 389 597 229 681 278 626 b 500 571 426 588 464 579 b 750 278 639 538 750 451 b 410 -25 750 125 625 -25 b 56 278 221 -25 58 122 l 201 333 b 410 115 199 196 306 115 b 604 278 528 115 604 181 b 444 431 604 382 514 417 b 333 460 411 438 368 449 b 83 764 201 500 83 590 b 396 1039 83 924 221 1039 b 722 750 576 1039 722 917 m 613 1179 l 525 1090 l 407 1204 l 289 1090 l 201 1179 l 346 1315 l 468 1315 "},"Š":{"ha":819,"x_min":0,"x_max":0,"o":"m 569 750 b 396 903 569 833 493 903 b 229 757 293 903 229 840 b 389 597 229 681 278 626 b 500 571 426 588 464 579 b 750 278 639 538 750 451 b 410 -25 750 125 625 -25 b 56 278 221 -25 58 122 l 201 333 b 410 115 199 196 306 115 b 604 278 528 115 604 181 b 444 431 604 382 514 417 b 333 460 411 438 368 449 b 83 764 201 500 83 590 b 396 1039 83 924 221 1039 b 722 750 576 1039 722 917 m 465 1090 l 343 1090 l 199 1226 l 286 1315 l 404 1201 l 522 1315 l 610 1226 "},"Ş":{"ha":819,"x_min":0,"x_max":0,"o":"m 318 -176 b 396 -208 318 -176 351 -208 b 444 -174 426 -208 444 -194 b 396 -139 444 -151 425 -139 l 364 -139 l 364 -22 b 56 278 194 0 58 135 l 201 333 b 410 115 199 196 306 115 b 604 278 528 115 604 181 b 444 431 604 382 514 417 b 333 460 411 438 368 449 b 83 764 201 500 83 590 b 396 1039 83 924 221 1039 b 722 750 576 1039 722 917 l 569 750 b 396 903 569 833 493 903 b 229 757 293 903 229 840 b 389 597 229 681 278 626 b 500 571 426 588 464 579 b 750 278 639 538 750 451 b 467 -21 750 139 647 1 l 467 -53 b 565 -174 510 -60 565 -101 b 393 -319 565 -260 496 -319 b 261 -272 331 -319 283 -290 "},"Ș":{"ha":819,"x_min":0,"x_max":0,"o":"m 569 750 b 396 903 569 833 493 903 b 229 757 293 903 229 840 b 389 597 229 681 278 626 b 500 571 426 588 464 579 b 750 278 639 538 750 451 b 410 -25 750 125 625 -25 b 56 278 221 -25 58 122 l 201 333 b 410 115 199 196 306 115 b 604 278 528 115 604 181 b 444 431 604 382 514 417 b 333 460 411 438 368 449 b 83 764 201 500 83 590 b 396 1039 83 924 221 1039 b 722 750 576 1039 722 917 m 406 -319 l 286 -281 l 360 -57 l 493 -57 "},"Ť":{"ha":736,"x_min":0,"x_max":0,"o":"m 442 0 l 294 0 l 294 875 l 14 875 l 14 1014 l 722 1014 l 722 875 l 442 875 m 429 1090 l 307 1090 l 163 1226 l 250 1315 l 368 1201 l 486 1315 l 574 1226 "},"Ț":{"ha":736,"x_min":0,"x_max":0,"o":"m 442 0 l 294 0 l 294 875 l 14 875 l 14 1014 l 722 1014 l 722 875 l 442 875 m 351 -319 l 232 -281 l 306 -57 l 439 -57 "},"Ţ":{"ha":736,"x_min":0,"x_max":0,"o":"m 272 -156 b 350 -187 272 -156 306 -187 b 399 -153 381 -187 399 -174 b 350 -118 399 -131 379 -118 l 318 -118 l 318 0 l 294 0 l 294 875 l 14 875 l 14 1014 l 722 1014 l 722 875 l 442 875 l 442 0 l 421 0 l 421 -32 b 519 -153 464 -39 519 -81 b 347 -299 519 -239 450 -299 b 215 -251 285 -299 238 -269 "},"Ŧ":{"ha":736,"x_min":0,"x_max":0,"o":"m 442 569 l 633 569 l 633 431 l 442 431 l 442 0 l 294 0 l 294 431 l 106 431 l 106 569 l 294 569 l 294 875 l 14 875 l 14 1014 l 722 1014 l 722 875 l 442 875 "},"Ù":{"ha":910,"x_min":0,"x_max":0,"o":"m 653 1014 l 799 1014 l 799 0 l 688 0 l 667 56 l 660 63 l 653 56 b 424 -28 611 7 500 -28 b 104 306 229 -28 104 111 l 104 1014 l 250 1014 l 250 299 b 444 111 250 194 319 111 b 653 299 563 111 653 194 m 368 1319 l 568 1090 l 408 1090 l 275 1232 "},"Ú":{"ha":910,"x_min":0,"x_max":0,"o":"m 653 299 b 444 111 653 194 563 111 b 250 299 319 111 250 194 l 250 1014 l 104 1014 l 104 306 b 424 -28 104 111 229 -28 b 653 56 500 -28 611 7 l 660 63 l 667 56 l 688 0 l 799 0 l 799 1014 l 653 1014 m 647 1232 l 514 1090 l 354 1090 l 554 1319 "},"Û":{"ha":910,"x_min":0,"x_max":0,"o":"m 653 1014 l 799 1014 l 799 0 l 688 0 l 667 56 l 660 63 l 653 56 b 424 -28 611 7 500 -28 b 104 306 229 -28 104 111 l 104 1014 l 250 1014 l 250 299 b 444 111 250 194 319 111 b 653 299 563 111 653 194 m 664 1179 l 576 1090 l 458 1204 l 340 1090 l 253 1179 l 397 1315 l 519 1315 "},"Ũ":{"ha":910,"x_min":0,"x_max":0,"o":"m 653 299 b 444 111 653 194 563 111 b 250 299 319 111 250 194 l 250 1014 l 104 1014 l 104 306 b 424 -28 104 111 229 -28 b 653 56 500 -28 611 7 l 660 63 l 667 56 l 688 0 l 799 0 l 799 1014 l 653 1014 m 561 1279 b 696 1104 651 1279 707 1215 l 582 1104 b 553 1158 586 1132 581 1158 b 386 1104 518 1158 463 1104 b 258 1250 303 1104 251 1157 l 374 1281 b 404 1226 369 1246 381 1226 b 561 1279 446 1226 492 1279 "},"Ü":{"ha":910,"x_min":0,"x_max":0,"o":"m 653 299 b 444 111 653 194 563 111 b 250 299 319 111 250 194 l 250 1014 l 104 1014 l 104 306 b 424 -28 104 111 229 -28 b 653 56 500 -28 611 7 l 660 63 l 667 56 l 688 0 l 799 0 l 799 1014 l 653 1014 m 271 1260 l 422 1260 l 422 1107 l 271 1107 m 507 1260 l 660 1260 l 660 1107 l 507 1107 "},"Ū":{"ha":910,"x_min":0,"x_max":0,"o":"m 653 299 b 444 111 653 194 563 111 b 250 299 319 111 250 194 l 250 1014 l 104 1014 l 104 306 b 424 -28 104 111 229 -28 b 653 56 500 -28 611 7 l 660 63 l 667 56 l 688 0 l 799 0 l 799 1014 l 653 1014 m 267 1243 l 642 1243 l 642 1132 l 267 1132 "},"Ŭ":{"ha":910,"x_min":0,"x_max":0,"o":"m 653 299 b 444 111 653 194 563 111 b 250 299 319 111 250 194 l 250 1014 l 104 1014 l 104 306 b 424 -28 104 111 229 -28 b 653 56 500 -28 611 7 l 660 63 l 667 56 l 688 0 l 799 0 l 799 1014 l 653 1014 m 457 1090 b 269 1261 332 1090 269 1182 l 269 1271 l 388 1271 l 388 1269 b 457 1200 388 1239 407 1200 b 526 1269 507 1200 526 1239 l 526 1271 l 644 1271 l 644 1261 b 457 1090 644 1182 582 1090 "},"Ů":{"ha":910,"x_min":0,"x_max":0,"o":"m 653 1014 l 799 1014 l 799 0 l 688 0 l 667 56 l 660 63 l 653 56 b 424 -28 611 7 500 -28 b 104 306 229 -28 104 111 l 104 1014 l 250 1014 l 250 299 b 444 111 250 194 319 111 b 653 299 563 111 653 194 m 311 1197 b 465 1349 311 1286 381 1349 b 619 1197 550 1349 619 1286 b 465 1046 619 1108 550 1046 b 311 1197 381 1046 311 1108 m 406 1197 b 465 1138 406 1163 431 1138 b 525 1197 500 1138 525 1163 b 465 1257 525 1232 500 1257 b 406 1197 431 1257 406 1232 "},"Ű":{"ha":910,"x_min":0,"x_max":0,"o":"m 653 299 b 444 111 653 194 563 111 b 250 299 319 111 250 194 l 250 1014 l 104 1014 l 104 306 b 424 -28 104 111 229 -28 b 653 56 500 -28 611 7 l 660 63 l 667 56 l 688 0 l 799 0 l 799 1014 l 653 1014 m 517 1253 l 411 1089 l 278 1089 l 408 1318 m 756 1244 l 618 1089 l 475 1089 l 660 1324 "},"Ų":{"ha":910,"x_min":0,"x_max":0,"o":"m 799 0 l 760 -79 b 753 -111 754 -90 753 -101 b 818 -164 753 -143 783 -164 l 849 -164 l 818 -278 l 811 -278 b 621 -149 697 -278 621 -226 b 688 0 621 -118 628 -82 l 667 56 l 660 63 l 653 56 b 424 -28 611 7 500 -28 b 104 306 229 -28 104 111 l 104 1014 l 250 1014 l 250 299 b 444 111 250 194 319 111 b 653 299 563 111 653 194 l 653 1014 l 799 1014 "},"Ẁ":{"ha":1210,"x_min":0,"x_max":0,"o":"m 682 806 l 868 253 l 1033 1014 l 1181 1014 l 958 0 l 813 0 l 604 588 l 396 0 l 250 0 l 28 1014 l 175 1014 l 340 251 l 528 806 m 522 1319 l 722 1090 l 563 1090 l 429 1232 "},"Ẃ":{"ha":1210,"x_min":0,"x_max":0,"o":"m 682 806 l 868 253 l 1033 1014 l 1181 1014 l 958 0 l 813 0 l 604 588 l 396 0 l 250 0 l 28 1014 l 175 1014 l 340 251 l 528 806 m 836 1232 l 703 1090 l 543 1090 l 743 1319 "},"Ŵ":{"ha":1210,"x_min":0,"x_max":0,"o":"m 682 806 l 868 253 l 1033 1014 l 1181 1014 l 958 0 l 813 0 l 604 588 l 396 0 l 250 0 l 28 1014 l 175 1014 l 340 251 l 528 806 m 810 1179 l 722 1090 l 604 1204 l 486 1090 l 399 1179 l 543 1315 l 665 1315 "},"Ẅ":{"ha":1210,"x_min":0,"x_max":0,"o":"m 682 806 l 868 253 l 1033 1014 l 1181 1014 l 958 0 l 813 0 l 604 588 l 396 0 l 250 0 l 28 1014 l 175 1014 l 340 251 l 528 806 m 410 1260 l 561 1260 l 561 1107 l 410 1107 m 646 1260 l 799 1260 l 799 1107 l 646 1107 "},"Ỳ":{"ha":764,"x_min":0,"x_max":0,"o":"m 174 1014 l 382 651 l 589 1014 l 750 1014 l 456 500 l 456 0 l 308 0 l 308 500 l 14 1014 m 289 1319 l 489 1090 l 329 1090 l 196 1232 "},"Ý":{"ha":764,"x_min":0,"x_max":0,"o":"m 14 1014 l 308 500 l 308 0 l 456 0 l 456 500 l 750 1014 l 589 1014 l 382 651 l 174 1014 m 588 1232 l 454 1090 l 294 1090 l 494 1319 "},"Ŷ":{"ha":764,"x_min":0,"x_max":0,"o":"m 174 1014 l 382 651 l 589 1014 l 750 1014 l 456 500 l 456 0 l 308 0 l 308 500 l 14 1014 m 588 1179 l 500 1090 l 382 1204 l 264 1090 l 176 1179 l 321 1315 l 443 1315 "},"Ÿ":{"ha":764,"x_min":0,"x_max":0,"o":"m 14 1014 l 308 500 l 308 0 l 456 0 l 456 500 l 750 1014 l 589 1014 l 382 651 l 174 1014 m 188 1260 l 339 1260 l 339 1107 l 188 1107 m 424 1260 l 576 1260 l 576 1107 l 424 1107 "},"Ź":{"ha":778,"x_min":0,"x_max":0,"o":"m 69 875 l 574 875 l 42 139 l 42 0 l 722 0 l 722 139 l 204 139 l 736 875 l 736 1014 l 69 1014 m 592 1232 l 458 1090 l 299 1090 l 499 1319 "},"Ž":{"ha":778,"x_min":0,"x_max":0,"o":"m 69 1014 l 736 1014 l 736 875 l 204 139 l 722 139 l 722 0 l 42 0 l 42 139 l 574 875 l 69 875 m 468 1090 l 346 1090 l 201 1226 l 289 1315 l 407 1201 l 525 1315 l 613 1226 "},"Ż":{"ha":778,"x_min":0,"x_max":0,"o":"m 69 875 l 574 875 l 42 139 l 42 0 l 722 0 l 722 139 l 204 139 l 736 875 l 736 1014 l 69 1014 m 329 1260 l 482 1260 l 482 1107 l 329 1107 "},"А":{"ha":903,"x_min":0,"x_max":0,"o":"m 375 1014 l 528 1014 l 875 0 l 729 0 l 639 264 l 263 264 l 174 0 l 28 0 m 310 403 l 592 403 l 451 819 "},"Б":{"ha":861,"x_min":0,"x_max":0,"o":"m 111 1014 l 750 1014 l 750 875 l 257 875 l 257 583 l 493 583 b 806 292 674 583 806 465 b 493 0 806 118 674 0 l 111 0 m 500 139 b 660 292 583 139 660 188 b 500 444 660 396 583 444 l 257 444 l 257 139 "},"В":{"ha":875,"x_min":0,"x_max":0,"o":"m 111 1014 l 472 1014 b 792 736 653 1014 792 903 b 668 519 792 643 743 565 b 806 285 751 476 806 396 b 486 0 806 111 667 0 l 111 0 m 493 139 b 660 292 576 139 660 194 b 493 444 660 403 576 444 l 257 444 l 257 139 m 479 583 b 646 729 563 583 646 625 b 479 875 646 833 563 875 l 257 875 l 257 583 "},"Г":{"ha":764,"x_min":0,"x_max":0,"o":"m 111 1014 l 750 1014 l 750 875 l 257 875 l 257 0 l 111 0 "},"Д":{"ha":972,"x_min":0,"x_max":0,"o":"m 194 1014 l 833 1014 l 833 139 l 944 139 l 944 -208 l 799 -208 l 799 0 l 160 0 l 160 -208 l 14 -208 l 14 139 l 81 139 b 194 264 150 143 194 185 m 688 139 l 688 875 l 333 875 l 333 278 b 279 139 333 224 313 175 "},"Е":{"ha":792,"x_min":0,"x_max":0,"o":"m 111 1014 l 722 1014 l 722 875 l 257 875 l 257 583 l 708 583 l 708 444 l 257 444 l 257 139 l 722 139 l 722 0 l 111 0 "},"Ж":{"ha":1264,"x_min":0,"x_max":0,"o":"m 201 1014 l 560 597 l 560 1014 l 706 1014 l 706 597 l 1063 1014 l 1236 1014 l 813 514 l 1250 0 l 1064 0 l 706 431 l 706 0 l 560 0 l 560 431 l 200 0 l 14 0 l 451 514 l 28 1014 "},"З":{"ha":833,"x_min":0,"x_max":0,"o":"m 249 583 l 403 583 b 583 743 500 583 583 644 b 396 903 583 854 486 903 b 208 764 306 903 208 861 l 63 764 b 396 1042 63 917 208 1042 b 729 750 569 1042 729 924 b 603 524 729 651 675 574 b 764 278 697 481 764 400 b 403 -28 764 97 611 -28 b 42 250 215 -28 69 83 l 188 292 b 403 111 194 181 285 111 b 618 285 514 111 618 167 b 417 444 618 403 521 444 l 249 444 "},"И":{"ha":958,"x_min":0,"x_max":0,"o":"m 256 264 l 688 1014 l 847 1014 l 847 0 l 703 0 l 703 764 l 271 0 l 111 0 l 111 1014 l 256 1014 "},"Й":{"ha":958,"x_min":0,"x_max":0,"o":"m 256 264 l 688 1014 l 847 1014 l 847 0 l 703 0 l 703 764 l 271 0 l 111 0 l 111 1014 l 256 1014 m 489 1090 b 301 1261 364 1090 301 1182 l 301 1271 l 419 1271 l 419 1269 b 489 1200 419 1239 439 1200 b 558 1269 539 1200 558 1239 l 558 1271 l 676 1271 l 676 1261 b 489 1090 676 1182 614 1090 "},"К":{"ha":819,"x_min":0,"x_max":0,"o":"m 806 1014 l 368 515 l 819 0 l 633 0 l 257 431 l 257 0 l 111 0 l 111 1014 l 257 1014 l 257 597 l 632 1014 "},"Л":{"ha":931,"x_min":0,"x_max":0,"o":"m 153 1014 l 806 1014 l 806 0 l 660 0 l 660 875 l 299 875 l 299 238 b 42 -14 299 106 208 -14 l 14 0 l 14 125 l 42 125 b 153 236 111 125 153 167 "},"М":{"ha":1250,"x_min":0,"x_max":0,"o":"m 931 1014 l 1139 1014 l 1139 0 l 994 0 l 994 818 l 708 222 l 542 222 l 256 818 l 256 0 l 111 0 l 111 1014 l 319 1014 l 625 367 "},"Н":{"ha":903,"x_min":0,"x_max":0,"o":"m 646 1014 l 792 1014 l 792 0 l 646 0 l 646 444 l 257 444 l 257 0 l 111 0 l 111 1014 l 257 1014 l 257 583 l 646 583 "},"О":{"ha":1181,"x_min":0,"x_max":0,"o":"m 56 507 b 590 1042 56 803 294 1042 b 1125 507 886 1042 1125 803 b 590 -28 1125 211 886 -28 b 56 507 294 -28 56 211 m 201 506 b 590 111 201 278 361 111 b 978 506 819 111 978 278 b 590 903 978 736 819 903 b 201 506 361 903 201 736 "},"П":{"ha":903,"x_min":0,"x_max":0,"o":"m 111 1014 l 792 1014 l 792 0 l 646 0 l 646 875 l 257 875 l 257 0 l 111 0 "},"Р":{"ha":819,"x_min":0,"x_max":0,"o":"m 111 1014 l 479 1014 b 792 722 660 1014 792 896 b 479 431 792 549 660 431 l 257 431 l 257 0 l 111 0 m 486 569 b 646 722 569 569 646 618 b 486 875 646 826 569 875 l 257 875 l 257 569 "},"С":{"ha":1028,"x_min":0,"x_max":0,"o":"m 56 506 b 576 1042 56 804 278 1042 b 979 847 729 1042 882 972 l 882 750 b 583 904 813 847 715 904 b 203 507 347 904 203 731 b 590 110 203 283 347 110 b 889 264 722 110 819 167 l 986 167 b 583 -28 889 42 736 -28 b 56 506 278 -28 56 208 "},"Т":{"ha":736,"x_min":0,"x_max":0,"o":"m 14 1014 l 722 1014 l 722 875 l 442 875 l 442 0 l 294 0 l 294 875 l 14 875 "},"У":{"ha":764,"x_min":0,"x_max":0,"o":"m 188 1014 l 393 542 l 604 1014 l 764 1014 l 306 0 l 150 0 l 315 369 l 28 1014 "},"Ф":{"ha":1125,"x_min":0,"x_max":0,"o":"m 490 1014 l 635 1014 l 635 861 l 722 861 b 1097 521 944 861 1097 715 b 722 181 1097 326 944 181 l 635 181 l 635 0 l 490 0 l 490 181 l 403 181 b 28 521 181 181 28 326 b 403 861 28 715 181 861 l 490 861 m 729 317 b 951 521 868 317 951 410 b 729 725 951 632 868 725 l 635 725 l 635 317 m 174 521 b 396 317 174 410 257 317 l 490 317 l 490 725 l 396 725 b 174 521 257 725 174 632 "},"Х":{"ha":806,"x_min":0,"x_max":0,"o":"m 188 1014 l 401 653 l 617 1014 l 778 1014 l 482 518 l 792 0 l 631 0 l 403 383 l 175 0 l 14 0 l 322 518 l 28 1014 "},"Ц":{"ha":958,"x_min":0,"x_max":0,"o":"m 111 1014 l 257 1014 l 257 139 l 674 139 l 674 1014 l 819 1014 l 819 139 l 931 139 l 931 -208 l 785 -208 l 785 0 l 111 0 "},"Ч":{"ha":875,"x_min":0,"x_max":0,"o":"m 618 1014 l 764 1014 l 764 0 l 618 0 l 618 458 l 611 465 l 604 458 b 403 375 563 410 486 375 b 97 708 208 375 97 514 l 97 1014 l 243 1014 l 243 701 b 417 514 243 597 292 514 b 618 701 535 514 618 597 "},"Ш":{"ha":1388,"x_min":0,"x_max":0,"o":"m 621 1014 l 767 1014 l 767 139 l 1132 139 l 1132 1014 l 1278 1014 l 1278 0 l 111 0 l 111 1014 l 257 1014 l 257 139 l 621 139 "},"Щ":{"ha":1417,"x_min":0,"x_max":0,"o":"m 257 139 l 621 139 l 621 1014 l 767 1014 l 767 139 l 1132 139 l 1132 1014 l 1278 1014 l 1278 139 l 1389 139 l 1389 -208 l 1243 -208 l 1243 0 l 111 0 l 111 1014 l 257 1014 "},"Ъ":{"ha":958,"x_min":0,"x_max":0,"o":"m 14 1014 l 354 1014 l 354 583 l 604 583 b 917 292 785 583 917 465 b 604 0 917 118 785 0 l 208 0 l 208 875 l 14 875 m 611 139 b 771 292 694 139 771 188 b 611 444 771 396 694 444 l 354 444 l 354 139 "},"Ы":{"ha":1197,"x_min":0,"x_max":0,"o":"m 111 1014 l 257 1014 l 257 583 l 507 583 b 819 292 688 583 819 465 b 507 0 819 118 688 0 l 111 0 m 913 139 l 936 139 l 936 875 l 913 875 l 913 1014 l 1107 1014 l 1107 875 l 1083 875 l 1083 139 l 1107 139 l 1107 0 l 913 0 m 514 139 b 674 292 597 139 674 188 b 514 444 674 396 597 444 l 257 444 l 257 139 "},"Ь":{"ha":861,"x_min":0,"x_max":0,"o":"m 111 1014 l 257 1014 l 257 583 l 507 583 b 819 292 688 583 819 465 b 507 0 819 118 688 0 l 111 0 m 514 139 b 674 292 597 139 674 188 b 514 444 674 396 597 444 l 257 444 l 257 139 "},"Э":{"ha":1028,"x_min":0,"x_max":0,"o":"m 236 583 l 818 583 b 444 903 789 768 653 903 b 146 750 313 903 215 847 l 49 847 b 451 1042 146 972 299 1042 b 972 506 750 1042 972 804 b 444 -28 972 208 750 -28 b 42 167 292 -28 139 42 l 139 264 b 444 111 208 167 313 111 b 821 444 664 111 797 251 l 236 444 "},"Ю":{"ha":1438,"x_min":0,"x_max":0,"o":"m 88 139 l 111 139 l 111 875 l 88 875 l 88 1014 l 282 1014 l 282 875 l 257 875 l 257 583 l 399 583 b 888 1042 431 844 628 1042 b 1382 507 1172 1042 1382 806 b 888 -28 1382 208 1172 -28 b 397 444 622 -28 425 176 l 257 444 l 257 139 l 282 139 l 282 0 l 88 0 m 540 506 b 888 111 540 292 672 111 b 1235 506 1103 111 1235 292 b 888 903 1235 722 1103 903 b 540 506 672 903 540 722 "},"Я":{"ha":847,"x_min":0,"x_max":0,"o":"m 385 444 b 63 729 218 444 63 556 b 375 1014 63 910 208 1014 l 736 1014 l 736 0 l 590 0 l 590 444 l 563 444 l 207 0 l 42 0 l 42 28 l 385 444 m 590 583 l 590 875 l 368 875 b 208 729 285 875 208 819 b 368 583 208 639 285 583 "},"Ѓ":{"ha":764,"x_min":0,"x_max":0,"o":"m 111 0 l 257 0 l 257 875 l 750 875 l 750 1014 l 111 1014 m 644 1232 l 511 1090 l 351 1090 l 551 1319 "},"Ґ":{"ha":736,"x_min":0,"x_max":0,"o":"m 576 1167 l 722 1167 l 722 1000 l 597 875 l 257 875 l 257 0 l 111 0 l 111 1014 l 576 1014 "},"Ђ":{"ha":847,"x_min":0,"x_max":0,"o":"m 618 132 b 681 194 660 132 681 153 l 681 431 b 583 542 681 507 639 542 b 442 400 503 542 447 478 l 442 0 l 294 0 l 294 875 l 14 875 l 14 1014 l 722 1014 l 722 875 l 442 875 l 442 597 l 449 589 l 457 597 b 611 667 492 639 556 667 b 819 438 743 667 819 590 l 819 194 b 611 -7 819 69 750 -7 l 542 7 l 542 146 "},"Є":{"ha":1028,"x_min":0,"x_max":0,"o":"m 792 444 l 206 444 b 583 111 229 251 363 111 b 889 264 715 111 819 167 l 986 167 b 583 -28 889 42 736 -28 b 56 506 278 -28 56 208 b 576 1042 56 804 278 1042 b 979 847 729 1042 882 972 l 882 750 b 583 904 813 847 715 904 b 208 583 375 904 238 768 l 792 583 "},"Ѕ":{"ha":819,"x_min":0,"x_max":0,"o":"m 569 750 b 396 903 569 833 493 903 b 229 757 293 903 229 840 b 389 597 229 681 278 626 b 500 571 426 588 464 579 b 750 278 639 538 750 451 b 410 -25 750 125 625 -25 b 56 278 221 -25 58 122 l 201 333 b 410 115 199 196 306 115 b 604 278 528 115 604 181 b 444 431 604 382 514 417 b 333 460 411 438 368 449 b 83 764 201 500 83 590 b 396 1039 83 924 221 1039 b 722 750 576 1039 722 917 "},"Ё":{"ha":792,"x_min":0,"x_max":0,"o":"m 111 0 l 722 0 l 722 139 l 257 139 l 257 444 l 708 444 l 708 583 l 257 583 l 257 875 l 722 875 l 722 1014 l 111 1014 m 228 1260 l 379 1260 l 379 1107 l 228 1107 m 464 1260 l 617 1260 l 617 1107 l 464 1107 "},"І":{"ha":403,"x_min":0,"x_max":0,"o":"m 104 139 l 128 139 l 128 875 l 104 875 l 104 1014 l 299 1014 l 299 875 l 275 875 l 275 139 l 299 139 l 299 0 l 104 0 "},"Ї":{"ha":403,"x_min":0,"x_max":0,"o":"m 104 0 l 299 0 l 299 139 l 275 139 l 275 875 l 299 875 l 299 1014 l 104 1014 l 104 875 l 128 875 l 128 139 l 104 139 m 7 1260 l 158 1260 l 158 1107 l 7 1107 m 243 1260 l 396 1260 l 396 1107 l 243 1107 "},"Ј":{"ha":389,"x_min":0,"x_max":0,"o":"m 42 -125 l 42 0 l 69 0 b 132 56 106 0 132 21 l 132 1014 l 278 1014 l 278 69 b 69 -139 278 -56 194 -139 "},"Ќ":{"ha":819,"x_min":0,"x_max":0,"o":"m 632 1014 l 257 597 l 257 1014 l 111 1014 l 111 0 l 257 0 l 257 431 l 633 0 l 819 0 l 368 515 l 806 1014 m 644 1232 l 511 1090 l 351 1090 l 551 1319 "},"Љ":{"ha":1139,"x_min":0,"x_max":0,"o":"m 153 1014 l 660 1014 l 660 583 l 799 583 b 1111 292 972 583 1111 465 b 799 0 1111 118 972 0 l 514 0 l 514 875 l 299 875 l 299 238 b 42 -14 299 106 208 -14 l 14 0 l 14 125 l 42 125 b 153 236 111 125 153 167 m 806 139 b 965 292 889 139 965 188 b 806 444 965 396 889 444 l 660 444 l 660 139 "},"Њ":{"ha":1139,"x_min":0,"x_max":0,"o":"m 88 139 l 111 139 l 111 875 l 88 875 l 88 1014 l 282 1014 l 282 875 l 257 875 l 257 583 l 514 583 l 514 1014 l 660 1014 l 660 583 l 799 583 b 1111 292 972 583 1111 465 b 799 0 1111 118 972 0 l 514 0 l 514 444 l 257 444 l 257 139 l 282 139 l 282 0 l 88 0 m 806 139 b 965 292 889 139 965 188 b 806 444 965 396 889 444 l 660 444 l 660 139 "},"Ћ":{"ha":889,"x_min":0,"x_max":0,"o":"m 442 597 l 449 589 l 457 597 b 611 667 492 639 556 667 b 819 438 743 667 819 590 l 819 0 l 681 0 l 681 431 b 583 542 681 507 639 542 b 442 400 503 542 447 478 l 442 0 l 294 0 l 294 875 l 14 875 l 14 1014 l 722 1014 l 722 875 l 442 875 "},"Ў":{"ha":778,"x_min":0,"x_max":0,"o":"m 188 1014 l 393 542 l 604 1014 l 764 1014 l 306 0 l 150 0 l 315 369 l 28 1014 m 404 1090 b 217 1261 279 1090 217 1182 l 217 1271 l 335 1271 l 335 1269 b 404 1200 335 1239 354 1200 b 474 1269 454 1200 474 1239 l 474 1271 l 592 1271 l 592 1261 b 404 1090 592 1182 529 1090 "},"Џ":{"ha":931,"x_min":0,"x_max":0,"o":"m 111 1014 l 257 1014 l 257 139 l 674 139 l 674 1014 l 819 1014 l 819 0 l 538 0 l 538 -208 l 392 -208 l 392 0 l 111 0 "},"а":{"ha":792,"x_min":0,"x_max":0,"o":"m 708 0 l 583 0 l 569 56 l 563 63 l 556 56 b 375 -14 514 14 444 -14 b 42 326 194 -14 42 125 b 375 667 42 528 194 667 b 556 597 444 667 514 639 l 563 590 l 569 597 l 583 653 l 708 653 m 583 326 b 382 542 583 444 500 542 b 179 326 250 542 179 444 b 382 111 179 208 250 111 b 583 326 500 111 583 208 "},"б":{"ha":778,"x_min":0,"x_max":0,"o":"m 542 972 b 611 1043 583 989 611 1008 l 611 1056 l 722 1056 l 736 1042 b 588 853 749 938 683 893 b 400 786 531 829 460 804 b 194 576 256 743 189 658 l 201 569 l 208 576 b 403 667 243 619 313 667 b 736 326 583 667 736 528 b 396 -14 736 125 569 -14 b 61 319 215 -14 76 125 b 361 906 29 721 169 839 b 542 972 426 928 478 947 m 194 326 b 396 111 194 201 285 111 b 599 326 521 111 599 208 b 396 542 599 444 521 542 b 194 326 271 542 194 444 "},"в":{"ha":667,"x_min":0,"x_max":0,"o":"m 83 653 l 361 653 b 597 465 514 653 597 576 b 519 333 597 414 569 365 b 611 194 578 301 611 251 b 368 0 611 76 521 0 l 83 0 m 382 119 b 472 194 438 119 472 153 b 382 271 472 250 431 271 l 219 271 l 219 119 m 368 389 b 458 458 417 389 458 410 b 368 533 458 507 424 533 l 219 533 l 219 389 "},"г":{"ha":569,"x_min":0,"x_max":0,"o":"m 83 653 l 556 653 l 556 528 l 222 528 l 222 0 l 83 0 "},"д":{"ha":764,"x_min":0,"x_max":0,"o":"m 14 125 l 57 125 b 139 222 107 128 139 163 l 139 653 l 653 653 l 653 125 l 736 125 l 736 -167 l 597 -167 l 597 0 l 153 0 l 153 -167 l 14 -167 m 514 125 l 514 528 l 278 528 l 278 236 b 228 125 278 186 258 150 "},"е":{"ha":701,"x_min":0,"x_max":0,"o":"m 181 292 b 368 111 181 194 250 111 b 529 208 451 111 508 153 l 646 153 b 361 -14 590 56 493 -14 b 42 326 188 -14 42 125 b 361 667 42 528 181 667 b 667 333 528 667 667 535 l 653 292 m 361 542 b 188 414 264 542 208 486 l 521 414 b 361 542 514 486 444 542 "},"ж":{"ha":1028,"x_min":0,"x_max":0,"o":"m 819 653 l 1000 653 l 701 335 l 1007 0 l 833 0 l 583 278 l 583 0 l 444 0 l 444 278 l 194 0 l 21 0 l 326 335 l 28 653 l 208 653 l 444 389 l 444 653 l 583 653 l 583 389 "},"з":{"ha":585,"x_min":0,"x_max":0,"o":"m 196 393 l 293 393 b 397 465 363 393 397 424 b 286 543 397 507 363 543 b 167 472 210 543 167 507 l 36 472 b 286 667 36 569 147 667 b 529 472 425 667 529 583 b 449 332 529 417 500 365 b 543 188 506 301 543 251 b 286 -14 543 83 453 -14 b 28 167 147 -14 57 69 l 154 208 b 286 110 161 160 203 110 b 411 194 376 110 411 153 b 286 271 411 243 363 271 l 196 271 "},"и":{"ha":722,"x_min":0,"x_max":0,"o":"m 83 653 l 219 653 l 219 208 l 479 653 l 639 653 l 639 0 l 503 0 l 503 444 l 243 0 l 83 0 "},"й":{"ha":722,"x_min":0,"x_max":0,"o":"m 83 0 l 243 0 l 503 444 l 503 0 l 639 0 l 639 653 l 479 653 l 219 208 l 219 653 l 83 653 m 372 726 b 185 893 254 726 185 810 l 185 901 l 297 901 l 297 899 b 372 828 297 864 322 828 b 447 899 422 828 447 864 l 447 901 l 560 901 l 560 893 b 372 726 560 810 490 726 "},"к":{"ha":667,"x_min":0,"x_max":0,"o":"m 486 653 l 667 653 l 353 339 l 681 0 l 500 0 l 222 278 l 222 0 l 83 0 l 83 653 l 222 653 l 222 389 "},"л":{"ha":708,"x_min":0,"x_max":0,"o":"m 111 653 l 625 653 l 625 0 l 486 0 l 486 528 l 250 528 l 250 188 b 35 -28 250 49 167 -28 l 14 -14 l 14 111 l 42 111 b 111 181 83 111 111 139 "},"м":{"ha":847,"x_min":0,"x_max":0,"o":"m 604 653 l 764 653 l 764 0 l 639 0 l 639 431 l 486 69 l 361 69 l 208 431 l 208 0 l 83 0 l 83 653 l 243 653 l 424 228 "},"н":{"ha":722,"x_min":0,"x_max":0,"o":"m 83 653 l 222 653 l 222 403 l 500 403 l 500 653 l 639 653 l 639 0 l 500 0 l 500 278 l 222 278 l 222 0 l 83 0 "},"о":{"ha":764,"x_min":0,"x_max":0,"o":"m 42 326 b 382 667 42 528 201 667 b 722 326 563 667 722 528 b 382 -14 722 125 563 -14 b 42 326 201 -14 42 125 m 181 326 b 382 111 181 208 250 111 b 583 326 514 111 583 208 b 382 542 583 444 514 542 b 181 326 250 542 181 444 "},"п":{"ha":722,"x_min":0,"x_max":0,"o":"m 83 653 l 639 653 l 639 0 l 500 0 l 500 528 l 222 528 l 222 0 l 83 0 "},"р":{"ha":792,"x_min":0,"x_max":0,"o":"m 83 653 l 208 653 l 221 597 l 229 590 l 236 597 b 417 667 278 639 347 667 b 750 326 597 667 750 528 b 417 -14 750 125 597 -14 b 236 56 349 -14 278 14 l 229 63 l 221 56 l 221 -294 l 83 -294 m 208 326 b 410 111 208 208 292 111 b 611 326 542 111 611 208 b 410 542 611 444 542 542 b 208 326 292 542 208 444 "},"с":{"ha":694,"x_min":0,"x_max":0,"o":"m 178 326 b 382 111 178 208 250 111 b 551 222 465 111 529 167 l 667 153 b 375 -14 613 56 507 -14 b 42 326 200 -14 42 125 b 375 667 42 528 200 667 b 665 500 507 667 611 597 l 550 431 b 382 542 528 486 465 542 b 178 326 250 542 178 444 "},"т":{"ha":611,"x_min":0,"x_max":0,"o":"m 28 653 l 583 653 l 583 528 l 375 528 l 375 0 l 236 0 l 236 528 l 28 528 "},"у":{"ha":597,"x_min":0,"x_max":0,"o":"m 444 653 l 583 653 l 236 -278 l 97 -278 l 233 86 l 14 653 l 154 653 l 299 261 "},"ф":{"ha":972,"x_min":0,"x_max":0,"o":"m 556 -294 l 417 -294 l 417 0 b 56 326 194 0 56 146 b 417 653 56 507 194 653 l 417 1056 l 556 1056 l 556 653 b 917 326 778 653 917 507 b 556 0 917 146 778 0 m 194 326 b 410 125 194 208 264 125 l 417 125 l 417 528 l 410 528 b 194 326 264 528 194 444 m 563 125 b 778 326 708 125 778 208 b 563 528 778 444 708 528 l 556 528 l 556 125 "},"х":{"ha":597,"x_min":0,"x_max":0,"o":"m 431 653 l 583 653 l 375 336 l 597 0 l 444 0 l 299 221 l 153 0 l 0 0 l 222 336 l 14 653 l 167 653 l 299 453 "},"ц":{"ha":736,"x_min":0,"x_max":0,"o":"m 83 653 l 222 653 l 222 125 l 500 125 l 500 653 l 639 653 l 639 125 l 722 125 l 722 -167 l 583 -167 l 583 0 l 83 0 "},"ч":{"ha":667,"x_min":0,"x_max":0,"o":"m 597 0 l 458 0 l 458 250 l 451 257 l 444 250 b 292 181 410 208 354 181 b 42 444 132 181 42 292 l 42 653 l 181 653 l 181 458 b 313 306 181 361 229 306 b 458 444 393 306 456 364 l 458 653 l 597 653 "},"ш":{"ha":1028,"x_min":0,"x_max":0,"o":"m 807 653 l 944 653 l 944 0 l 83 0 l 83 653 l 221 653 l 221 125 l 446 125 l 446 653 l 582 653 l 582 125 l 807 125 "},"щ":{"ha":1042,"x_min":0,"x_max":0,"o":"m 806 653 l 944 653 l 944 125 l 1028 125 l 1028 -167 l 889 -167 l 889 0 l 83 0 l 83 653 l 222 653 l 222 125 l 444 125 l 444 653 l 583 653 l 583 125 l 806 125 "},"ъ":{"ha":708,"x_min":0,"x_max":0,"o":"m 28 653 l 319 653 l 319 458 l 389 458 b 653 229 556 458 653 361 b 389 0 653 97 556 0 l 181 0 l 181 528 l 28 528 m 396 124 b 515 229 472 124 515 167 b 396 335 515 292 472 335 l 319 335 l 319 124 "},"ы":{"ha":861,"x_min":0,"x_max":0,"o":"m 83 653 l 222 653 l 222 458 l 319 458 b 583 229 486 458 583 361 b 319 0 583 97 486 0 l 83 0 m 639 653 l 778 653 l 778 0 l 639 0 m 326 125 b 444 229 403 125 444 167 b 326 333 444 292 403 333 l 222 333 l 222 125 "},"ь":{"ha":625,"x_min":0,"x_max":0,"o":"m 97 653 l 236 653 l 236 458 l 306 458 b 569 229 472 458 569 361 b 306 0 569 97 472 0 l 97 0 m 313 124 b 432 229 389 124 432 167 b 313 335 432 292 389 335 l 236 335 l 236 124 "},"э":{"ha":694,"x_min":0,"x_max":0,"o":"m 222 389 l 511 389 b 313 542 490 481 421 542 b 144 431 229 542 167 486 l 29 500 b 319 667 83 597 188 667 b 653 326 494 667 653 528 b 319 -14 653 125 494 -14 b 28 153 188 -14 82 56 l 143 222 b 313 111 165 167 229 111 b 511 267 422 111 492 174 l 222 267 "},"ю":{"ha":986,"x_min":0,"x_max":0,"o":"m 83 653 l 222 653 l 222 389 l 310 389 b 632 667 338 556 471 667 b 958 326 813 667 958 528 b 632 -14 958 125 813 -14 b 310 264 471 -14 338 97 l 222 264 l 222 0 l 83 0 m 444 326 b 632 111 444 201 514 111 b 819 326 750 111 819 201 b 632 542 819 451 750 542 b 444 326 514 542 444 451 "},"я":{"ha":667,"x_min":0,"x_max":0,"o":"m 56 0 l 56 14 l 272 267 b 63 453 139 278 63 368 b 299 653 63 571 139 653 l 569 653 l 569 0 l 442 0 l 442 267 l 417 267 l 201 0 m 194 458 b 294 375 194 408 235 375 l 444 375 l 444 542 l 288 542 b 194 458 228 542 194 507 "},"ѓ":{"ha":569,"x_min":0,"x_max":0,"o":"m 83 0 l 222 0 l 222 528 l 556 528 l 556 653 l 83 653 m 504 921 l 367 729 l 231 729 l 404 993 "},"ґ":{"ha":569,"x_min":0,"x_max":0,"o":"m 83 653 l 417 653 l 417 819 l 556 819 l 556 639 l 431 528 l 222 528 l 222 0 l 83 0 "},"ђ":{"ha":722,"x_min":0,"x_max":0,"o":"m 451 -169 b 514 -100 493 -169 514 -142 l 514 389 b 375 542 514 486 472 542 b 222 394 293 542 225 475 l 222 0 l 83 0 l 83 792 l 14 792 l 14 917 l 83 917 l 83 1056 l 222 1056 l 222 917 l 375 917 l 375 792 l 222 792 l 222 597 l 229 590 l 236 597 b 389 667 264 639 333 667 b 653 403 556 667 653 556 l 653 -86 b 444 -294 653 -211 583 -294 l 375 -281 l 375 -156 "},"є":{"ha":694,"x_min":0,"x_max":0,"o":"m 472 267 l 182 267 b 382 111 203 174 272 111 b 551 222 465 111 529 167 l 667 153 b 375 -14 613 56 507 -14 b 42 326 200 -14 42 125 b 375 667 42 528 200 667 b 665 500 507 667 611 597 l 550 431 b 382 542 528 486 465 542 b 183 389 274 542 204 481 l 472 389 "},"ѕ":{"ha":563,"x_min":0,"x_max":0,"o":"m 285 -14 b 28 181 153 -14 56 63 l 153 229 b 285 108 160 160 215 108 b 389 188 354 108 389 146 b 306 258 389 228 361 249 b 236 274 282 263 258 268 b 49 472 125 301 49 368 b 278 667 49 597 167 667 b 514 472 396 667 500 590 l 375 472 b 278 544 375 514 333 544 b 181 472 222 544 181 514 b 264 397 181 431 214 407 l 333 383 b 521 188 442 360 521 299 b 285 -14 521 76 417 -14 "},"ё":{"ha":701,"x_min":0,"x_max":0,"o":"m 181 292 b 368 111 181 194 250 111 b 529 208 451 111 508 153 l 646 153 b 361 -14 590 56 493 -14 b 42 326 188 -14 42 125 b 361 667 42 528 181 667 b 667 333 528 667 667 535 l 653 292 m 361 542 b 188 414 264 542 208 486 l 521 414 b 361 542 514 486 444 542 m 163 924 l 300 924 l 300 771 l 163 771 m 399 924 l 538 924 l 538 771 l 399 771 "},"і":{"ha":306,"x_min":0,"x_max":0,"o":"m 85 653 l 221 653 l 221 0 l 85 0 m 83 917 l 222 917 l 222 764 l 83 764 "},"ї":{"ha":306,"x_min":0,"x_max":0,"o":"m -35 924 l 103 924 l 103 771 l -35 771 m 201 924 l 340 924 l 340 771 l 201 771 m 85 653 l 221 653 l 221 0 l 85 0 "},"ј":{"ha":318,"x_min":0,"x_max":0,"o":"m -42 -169 l -42 -294 l 28 -308 b 235 -100 167 -308 235 -225 l 235 653 l 97 653 l 97 -114 b 35 -183 97 -156 76 -183 m 97 931 l 235 931 l 235 778 l 97 778 "},"ќ":{"ha":667,"x_min":0,"x_max":0,"o":"m 222 389 l 222 1056 l 83 1056 l 83 0 l 222 0 l 222 278 l 500 0 l 681 0 l 353 339 l 667 653 l 486 653 m 349 1239 l 229 1106 l 88 1106 l 268 1313 "},"љ":{"ha":861,"x_min":0,"x_max":0,"o":"m 111 653 l 500 653 l 500 458 l 556 458 b 819 229 722 458 819 361 b 556 0 819 97 722 0 l 361 0 l 361 528 l 250 528 l 250 201 b 35 -14 250 63 167 -14 l 14 0 l 14 125 l 42 125 b 111 194 83 125 111 153 m 563 125 b 681 229 639 125 681 167 b 563 333 681 292 639 333 l 500 333 l 500 125 "},"њ":{"ha":861,"x_min":0,"x_max":0,"o":"m 83 653 l 222 653 l 222 458 l 361 458 l 361 653 l 500 653 l 500 458 l 556 458 b 819 229 722 458 819 361 b 556 0 819 97 722 0 l 361 0 l 361 333 l 222 333 l 222 0 l 83 0 m 563 125 b 681 229 639 125 681 167 b 563 333 681 292 639 333 l 500 333 l 500 125 "},"ћ":{"ha":722,"x_min":0,"x_max":0,"o":"m 14 917 l 83 917 l 83 1056 l 222 1056 l 222 917 l 375 917 l 375 792 l 222 792 l 222 597 l 229 590 l 236 597 b 389 667 264 639 333 667 b 653 403 556 667 653 556 l 653 0 l 514 0 l 514 389 b 375 542 514 486 472 542 b 222 394 293 542 225 475 l 222 0 l 83 0 l 83 792 l 14 792 "},"ў":{"ha":597,"x_min":0,"x_max":0,"o":"m 299 261 l 154 653 l 14 653 l 233 86 l 97 -278 l 236 -278 l 583 653 l 444 653 m 299 726 b 111 893 181 726 111 810 l 111 901 l 224 901 l 224 899 b 299 828 224 864 249 828 b 374 899 349 828 374 864 l 374 901 l 486 901 l 486 893 b 299 726 486 810 417 726 "},"џ":{"ha":722,"x_min":0,"x_max":0,"o":"m 83 653 l 221 653 l 221 125 l 501 125 l 501 653 l 639 653 l 639 0 l 431 0 l 431 -181 l 292 -181 l 292 0 l 83 0 "},"№":{"ha":1250,"x_min":0,"x_max":0,"o":"m 514 249 l 292 1014 l 111 1014 l 111 0 l 236 0 l 236 779 l 458 0 l 639 0 l 639 1014 l 514 1014 m 736 792 b 951 1028 736 944 840 1028 b 1167 792 1063 1028 1167 944 b 951 556 1167 639 1063 556 b 736 792 840 556 736 639 m 750 382 l 1153 382 l 1153 500 l 750 500 m 856 792 b 951 667 856 722 889 667 b 1047 792 1014 667 1047 722 b 951 917 1047 861 1014 917 b 856 792 889 917 856 861 "},"∵":{"ha":806,"x_min":0,"x_max":0,"o":"m 42 653 l 208 653 l 208 472 l 42 472 m 319 181 l 486 181 l 486 0 l 319 0 m 597 653 l 764 653 l 764 472 l 597 472 "},"∴":{"ha":806,"x_min":0,"x_max":0,"o":"m 42 181 l 208 181 l 208 0 l 42 0 m 319 653 l 486 653 l 486 472 l 319 472 m 597 181 l 764 181 l 764 0 l 597 0 "},"⁂":{"ha":1236,"x_min":0,"x_max":0,"o":"m 461 517 l 392 586 l 500 694 l 347 694 l 347 792 l 500 792 l 392 900 l 461 969 l 569 861 l 569 1014 l 667 1014 l 667 861 l 775 969 l 844 900 l 736 792 l 889 792 l 889 694 l 736 694 l 844 586 l 775 517 l 667 625 l 667 472 l 569 472 l 569 625 m 653 222 l 653 319 l 875 319 l 875 542 l 972 542 l 972 389 l 1081 497 l 1150 428 l 1042 319 l 1194 319 l 1194 222 l 972 222 l 972 0 l 875 0 l 875 153 l 767 44 l 697 114 l 806 222 m 42 222 l 42 319 l 194 319 l 86 428 l 156 497 l 264 389 l 264 542 l 361 542 l 361 319 l 583 319 l 583 222 l 431 222 l 539 114 l 469 44 l 361 153 l 361 0 l 264 0 l 264 222 "},"Ⅷ":{"ha":2028,"x_min":0,"x_max":0,"o":"m 792 1014 l 506 0 l 356 0 l 69 1014 l 215 1014 l 431 204 l 646 1014 m 1167 0 l 875 0 l 875 138 l 951 138 l 951 878 l 875 878 l 875 1014 l 1167 1014 l 1167 878 l 1090 878 l 1090 138 l 1167 138 m 1264 0 l 1556 0 l 1556 138 l 1479 138 l 1479 878 l 1556 878 l 1556 1014 l 1264 1014 l 1264 878 l 1340 878 l 1340 138 l 1264 138 m 1653 0 l 1944 0 l 1944 138 l 1868 138 l 1868 878 l 1944 878 l 1944 1014 l 1653 1014 l 1653 878 l 1729 878 l 1729 138 l 1653 138 "},"Ⅰ":{"ha":542,"x_min":0,"x_max":0,"o":"m 97 138 l 201 138 l 201 878 l 97 878 l 97 1014 l 444 1014 l 444 878 l 340 878 l 340 138 l 444 138 l 444 0 l 97 0 "},"Ⅽ":{"ha":1000,"x_min":0,"x_max":0,"o":"m 250 507 b 535 121 250 264 361 121 b 765 264 674 121 740 194 l 910 264 b 535 -14 868 111 729 -14 b 111 507 299 -14 111 194 b 535 1028 111 819 299 1028 b 910 750 729 1028 868 903 l 764 750 b 535 893 740 819 674 893 b 250 507 361 893 250 750 "},"Ⅲ":{"ha":1264,"x_min":0,"x_max":0,"o":"m 83 138 l 160 138 l 160 878 l 83 878 l 83 1014 l 375 1014 l 375 878 l 299 878 l 299 138 l 375 138 l 375 0 l 83 0 m 486 138 l 563 138 l 563 878 l 486 878 l 486 1014 l 778 1014 l 778 878 l 701 878 l 701 138 l 778 138 l 778 0 l 486 0 m 889 138 l 965 138 l 965 878 l 889 878 l 889 1014 l 1181 1014 l 1181 878 l 1104 878 l 1104 138 l 1181 138 l 1181 0 l 889 0 "},"Ⅺ":{"ha":1264,"x_min":0,"x_max":0,"o":"m 338 507 l 49 1014 l 207 1014 l 417 646 l 626 1014 l 785 1014 l 496 507 l 785 0 l 626 0 l 417 368 l 207 0 l 49 0 m 1181 0 l 889 0 l 889 138 l 965 138 l 965 878 l 889 878 l 889 1014 l 1181 1014 l 1181 878 l 1104 878 l 1104 138 l 1181 138 "},"Ⅱ":{"ha":861,"x_min":0,"x_max":0,"o":"m 83 138 l 160 138 l 160 878 l 83 878 l 83 1014 l 375 1014 l 375 878 l 299 878 l 299 138 l 375 138 l 375 0 l 83 0 m 486 138 l 563 138 l 563 878 l 486 878 l 486 1014 l 778 1014 l 778 878 l 701 878 l 701 138 l 778 138 l 778 0 l 486 0 "},"Ⅵ":{"ha":1264,"x_min":0,"x_max":0,"o":"m 792 1014 l 506 0 l 356 0 l 69 1014 l 215 1014 l 431 204 l 646 1014 m 1181 0 l 889 0 l 889 138 l 965 138 l 965 878 l 889 878 l 889 1014 l 1181 1014 l 1181 878 l 1104 878 l 1104 138 l 1181 138 "},"Ⅻ":{"ha":1681,"x_min":0,"x_max":0,"o":"m 338 507 l 49 1014 l 207 1014 l 417 646 l 626 1014 l 785 1014 l 496 507 l 785 0 l 626 0 l 417 368 l 207 0 l 49 0 m 1181 0 l 889 0 l 889 138 l 965 138 l 965 878 l 889 878 l 889 1014 l 1181 1014 l 1181 878 l 1104 878 l 1104 138 l 1181 138 m 1292 0 l 1583 0 l 1583 138 l 1507 138 l 1507 878 l 1583 878 l 1583 1014 l 1292 1014 l 1292 878 l 1368 878 l 1368 138 l 1292 138 "},"Ⅴ":{"ha":861,"x_min":0,"x_max":0,"o":"m 215 1014 l 438 204 l 660 1014 l 806 1014 l 513 0 l 363 0 l 69 1014 "},"Ⅳ":{"ha":1264,"x_min":0,"x_max":0,"o":"m 618 1014 l 833 204 l 1049 1014 l 1194 1014 l 908 0 l 758 0 l 472 1014 m 83 138 l 160 138 l 160 878 l 83 878 l 83 1014 l 375 1014 l 375 878 l 299 878 l 299 138 l 375 138 l 375 0 l 83 0 "},"Ⅸ":{"ha":1264,"x_min":0,"x_max":0,"o":"m 1215 0 l 1057 0 l 847 368 l 638 0 l 479 0 l 768 507 l 479 1014 l 638 1014 l 847 646 l 1057 1014 l 1215 1014 l 926 507 m 83 138 l 160 138 l 160 878 l 83 878 l 83 1014 l 375 1014 l 375 878 l 299 878 l 299 138 l 375 138 l 375 0 l 83 0 "},"ↀ":{"ha":1625,"x_min":0,"x_max":0,"o":"m 764 1014 l 1000 1014 b 1514 507 1299 1014 1514 806 b 1000 0 1514 208 1299 0 l 764 0 l 764 63 b 535 -14 706 15 629 -14 b 111 507 299 -14 111 194 b 535 1028 111 819 299 1028 b 764 951 628 1028 706 999 m 250 507 b 535 121 250 264 361 121 b 764 264 674 121 739 194 l 764 750 b 535 893 740 819 674 893 b 250 507 361 893 250 750 m 903 878 l 903 136 l 1007 136 b 1375 507 1236 136 1375 278 b 1007 878 1375 736 1236 878 "},"Ⅹ":{"ha":861,"x_min":0,"x_max":0,"o":"m 806 0 l 649 0 l 431 372 l 213 0 l 56 0 l 351 507 l 56 1014 l 213 1014 l 431 640 l 649 1014 l 806 1014 l 508 507 "},"Ⅼ":{"ha":847,"x_min":0,"x_max":0,"o":"m 153 1014 l 292 1014 l 292 138 l 764 138 l 764 0 l 153 0 "},"Ⅾ":{"ha":1014,"x_min":0,"x_max":0,"o":"m 153 1014 l 389 1014 b 903 507 688 1014 903 806 b 389 0 903 208 688 0 l 153 0 m 292 878 l 292 136 l 396 136 b 764 507 625 136 764 278 b 396 878 764 736 625 878 "},"Ⅿ":{"ha":1236,"x_min":0,"x_max":0,"o":"m 889 1014 l 1083 1014 l 1083 0 l 947 0 l 947 826 l 704 250 l 532 250 l 289 826 l 289 0 l 153 0 l 153 1014 l 347 1014 l 618 381 "},"Ⅶ":{"ha":1681,"x_min":0,"x_max":0,"o":"m 792 1014 l 506 0 l 356 0 l 69 1014 l 215 1014 l 431 204 l 646 1014 m 1181 0 l 889 0 l 889 138 l 965 138 l 965 878 l 889 878 l 889 1014 l 1181 1014 l 1181 878 l 1104 878 l 1104 138 l 1181 138 m 1292 0 l 1583 0 l 1583 138 l 1507 138 l 1507 878 l 1583 878 l 1583 1014 l 1292 1014 l 1292 878 l 1368 878 l 1368 138 l 1292 138 "},"ↁ":{"ha":1014,"x_min":0,"x_max":0,"o":"m 153 1014 l 389 1014 b 903 507 688 1014 903 806 b 389 0 903 208 688 0 l 153 0 m 292 878 l 292 764 l 389 764 b 653 507 538 764 653 658 b 389 250 653 354 538 250 l 292 250 l 292 136 l 396 136 b 764 507 625 136 764 278 b 396 878 764 736 625 878 m 292 639 l 292 375 l 396 375 b 528 507 472 375 528 424 b 396 639 528 588 472 639 "}," ":{"ha":333,"x_min":0,"x_max":0,"o":""},"­":{"ha":444,"x_min":0,"x_max":0,"o":"m 403 472 l 403 319 l 42 319 l 42 472 "}," ":{"ha":333,"x_min":0,"x_max":0,"o":""}}}
